<?xml version="1.0" encoding="iso-8859-1" standalone="no"?>
<svg version="1.1" baseProfile="full"
xmlns="http://www.w3.org/2000/svg"
xmlns:xlink="http://www.w3.org/1999/xlink"
xmlns:ev="http://www.w3.org/2001/xml-events" x="0px" y="0px"
width="1326px" height="824px" viewBox="0 0 1326 824">
  <style>
.golden { stroke: #DA0; stroke-opacity: 0.4; fill: #DA0; } 
.selected { stroke: #69C; stroke-opacity: 0.4; fill: #69C; } 
.point { stroke: black; stroke-width: 1.5; fill: white; }
.point > path:nth-child(1) { stroke: black;  fill: none; }
.point > path:nth-child(2) { stroke: black; stroke-width: 1.5;  fill: white; }
.point.golden > path:nth-child(1) { stroke-width: 12;   stroke: #DA0; stroke-opacity: 0.4; fill: #DA0;  }
.point.golden > path:nth-child(2) { stroke: black; stroke-width: 1.5; stroke-opacity: 1; fill: white; }
.point.selected > path:nth-child(1) { stroke-width: 12;   stroke: #69C; stroke-opacity: 0.4; fill: #DA0;  }
.point.selected > path:nth-child(2) { stroke: black; stroke-width: 1.5; stroke-opacity: 1; fill: white; }
.line { stroke: #93C; stroke-width: 1.5; stroke-opacity: 1; stroke-dasharray: 1.5 3;  } 
.line.selected { stroke: #69C; }
.circle {fill: none; stroke: #93C; stroke-width: 1.5; stroke-opacity: 1; stroke-dasharray: 1.5 3; }
.polygon { stroke-width: 5; stroke-linejoin: round;  fill: #93C; fill-opacity: .1; } 
.bisector { stroke-dasharray: 1.5, 3, 5, 3; }
.segment {} 
.a { stroke-width: 4; } 
.b { stroke-width: 8; } 
.c { stroke-width: 12; } 
.d { stroke-width: 16; } 
#base .circle { stroke: #777; }
#base .line { stroke: #777; }
  </style>
  <g>
    <g id="base">
      <g class="line base">
        <path d="M -5.0000 345.55 L 1331.0 345.55" />
        <desc>Line a: Line A, B</desc>
      </g>
      <g class="circle">
        <path d="M 795.90 345.55 C 795.90 492.35 676.90 611.35 530.10 611.35 C 383.30 611.35 264.29 492.35 264.29 345.55 C 264.29 198.75 383.30 79.742 530.10 79.742 C 676.90 79.742 795.90 198.75 795.90 345.55 z" />
        <desc>Circle b: Circle through B with center A</desc>
      </g>
      <g class="circle">
        <path d="M 1061.7 345.55 C 1061.7 492.35 942.70 611.35 795.90 611.35 C 649.10 611.35 530.10 492.35 530.10 345.55 C 530.10 198.75 649.10 79.742 795.90 79.742 C 942.70 79.742 1061.7 198.75 1061.7 345.55 z" />
        <desc>Circle c: Circle through A with center B</desc>
      </g>
    </g>
    <g id="layer6">
      <g class="circle">
        <path d="M 969.93 422.28 C 969.93 591.79 832.51 729.21 663.00 729.21 C 493.49 729.21 356.07 591.79 356.07 422.28 C 356.07 252.77 493.49 115.35 663.00 115.35 C 832.51 115.35 969.93 252.77 969.93 422.28 z" />
        <desc>Circle e: Circle through L with center N</desc>
      </g>
      <g class="line bisector">
        <path d="M 663.00 829.00 L 663.00 -5.0000" />
        <desc>Line d: Line C, D</desc>
      </g>
      <g class="line">
        <path d="M 250.98 829.00 L 732.49 -5.0000" />
        <desc>Line h: Line A, C</desc>
      </g>
      <g class="line">
        <path d="M 1075.0 829.00 L 593.51 -5.0000" />
        <desc>Line i: Line B, C</desc>
      </g>
      <g class="line">
        <path d="M 809.22 829.00 L 327.71 -5.0000" />
        <desc>Line j: Line A, D</desc>
      </g>
      <g class="line">
        <path d="M 516.78 829.00 L 998.29 -5.0000" />
        <desc>Line k: Line B, D</desc>
      </g>
      <g class="line">
        <path d="M -5.0000 575.74 L 1331.0 575.74" />
        <desc>Line m: Line M, L</desc>
      </g>
      <g class="line bisector">
        <path d="M -5.0000 36.610 L 1331.0 807.95" />
        <desc>Line n: Line A, L</desc>
      </g>
      <g class="line selected">
        <path d="M -5.0000 203.28 L 1331.0 203.28" />
        <desc>Line p: Line Q, R</desc>
      </g>
      <g class="line selected">
        <path d="M 644.94 829.00 L 163.43 -5.0000" />
        <desc>Line q: Line O, T</desc>
      </g>
      <g class="line selected">
        <path d="M 681.06 829.00 L 1162.6 -5.0000" />
        <desc>Line r: Line S, P</desc>
      </g>
    </g>
    <g id="layer7">
      <g class="segment golden b">
        <path d="M 447.96 203.28 L 612.24 203.28" />
        <desc>Segment g0301b1: sectionBAB(Q, U, V, R)</desc>
      </g>
      <g class="segment golden a">
        <path d="M 612.24 203.28 L 713.76 203.28" />
        <desc>Segment g0301a_1: sectionBAB(Q, U, V, R)</desc>
      </g>
      <g class="segment golden b">
        <path d="M 713.76 203.28 L 878.04 203.28" />
        <desc>Segment g0301b2: sectionBAB(Q, U, V, R)</desc>
      </g>
      <g class="segment golden b">
        <path d="M 365.82 345.55 L 447.96 487.82" />
        <desc>Segment g0302b1: sectionBAB(O, W, Z, T)</desc>
      </g>
      <g class="segment golden a">
        <path d="M 447.96 487.82 L 498.72 575.74" />
        <desc>Segment g0302a: sectionBAB(O, W, Z, T)</desc>
      </g>
      <g class="segment golden b">
        <path d="M 498.72 575.74 L 580.86 718.01" />
        <desc>Segment g0302b2: sectionBAB(O, W, Z, T)</desc>
      </g>
      <g class="segment golden b">
        <path d="M 745.14 718.01 L 827.28 575.74" />
        <desc>Segment g0303b1: sectionBAB(S, A_1, B_1, P)</desc>
      </g>
      <g class="segment golden a">
        <path d="M 827.28 575.74 L 878.04 487.82" />
        <desc>Segment g0303a: sectionBAB(S, A_1, B_1, P)</desc>
      </g>
      <g class="segment golden b">
        <path d="M 878.04 487.82 L 960.18 345.55" />
        <desc>Segment g0303b2: sectionBAB(S, A_1, B_1, P)</desc>
      </g>
    </g>
    <g id="layer8">
      <g class="line bisector">
        <path d="M -5.0000 807.95 L 1331.0 36.610" />
        <desc>Line t_2: Line M, B</desc>
      </g>
    </g>
    <g id="layer9">
      <g class="point">
        <path d="M 535.10 345.55 C 535.10 348.31 532.86 350.55 530.10 350.55 C 527.34 350.55 525.10 348.31 525.10 345.55 C 525.10 342.79 527.34 340.55 530.10 340.55 C 532.86 340.55 535.10 342.79 535.10 345.55 z" />
        <path d="M 535.10 345.55 C 535.10 348.31 532.86 350.55 530.10 350.55 C 527.34 350.55 525.10 348.31 525.10 345.55 C 525.10 342.79 527.34 340.55 530.10 340.55 C 532.86 340.55 535.10 342.79 535.10 345.55 z" />
        <desc>Point A: Point on xAxis</desc>
      </g>
      <g class="point">
        <path d="M 800.90 345.55 C 800.90 348.31 798.66 350.55 795.90 350.55 C 793.14 350.55 790.90 348.31 790.90 345.55 C 790.90 342.79 793.14 340.55 795.90 340.55 C 798.66 340.55 800.90 342.79 800.90 345.55 z" />
        <path d="M 800.90 345.55 C 800.90 348.31 798.66 350.55 795.90 350.55 C 793.14 350.55 790.90 348.31 790.90 345.55 C 790.90 342.79 793.14 340.55 795.90 340.55 C 798.66 340.55 800.90 342.79 800.90 345.55 z" />
        <desc>Point B: Point on xAxis</desc>
      </g>
      <g class="point">
        <path d="M 666.00 115.35 C 666.00 117.01 664.66 118.35 663.00 118.35 C 661.34 118.35 660.00 117.01 660.00 115.35 C 660.00 113.70 661.34 112.35 663.00 112.35 C 664.66 112.35 666.00 113.70 666.00 115.35 z" />
        <path d="M 666.00 115.35 C 666.00 117.01 664.66 118.35 663.00 118.35 C 661.34 118.35 660.00 117.01 660.00 115.35 C 660.00 113.70 661.34 112.35 663.00 112.35 C 664.66 112.35 666.00 113.70 666.00 115.35 z" />
        <desc>Point C: Intersection point of b, c</desc>
      </g>
      <g class="point">
        <path d="M 666.00 575.74 C 666.00 577.40 664.66 578.74 663.00 578.74 C 661.34 578.74 660.00 577.40 660.00 575.74 C 660.00 574.09 661.34 572.74 663.00 572.74 C 664.66 572.74 666.00 574.09 666.00 575.74 z" />
        <path d="M 666.00 575.74 C 666.00 577.40 664.66 578.74 663.00 578.74 C 661.34 578.74 660.00 577.40 660.00 575.74 C 660.00 574.09 661.34 572.74 663.00 572.74 C 664.66 572.74 666.00 574.09 666.00 575.74 z" />
        <desc>Point D: Intersection point of b, c</desc>
      </g>
      <g class="point">
        <path d="M 666.00 345.55 C 666.00 347.21 664.66 348.55 663.00 348.55 C 661.34 348.55 660.00 347.21 660.00 345.55 C 660.00 343.89 661.34 342.55 663.00 342.55 C 664.66 342.55 666.00 343.89 666.00 345.55 z" />
        <path d="M 666.00 345.55 C 666.00 347.21 664.66 348.55 663.00 348.55 C 661.34 348.55 660.00 347.21 660.00 345.55 C 660.00 343.89 661.34 342.55 663.00 342.55 C 664.66 342.55 666.00 343.89 666.00 345.55 z" />
        <desc>Point E: Intersection of a and d</desc>
      </g>
      <g class="point">
        <path d="M 931.81 575.74 C 931.81 577.40 930.46 578.74 928.81 578.74 C 927.15 578.74 925.81 577.40 925.81 575.74 C 925.81 574.09 927.15 572.74 928.81 572.74 C 930.46 572.74 931.81 574.09 931.81 575.74 z" />
        <path d="M 931.81 575.74 C 931.81 577.40 930.46 578.74 928.81 578.74 C 927.15 578.74 925.81 577.40 925.81 575.74 C 925.81 574.09 927.15 572.74 928.81 572.74 C 930.46 572.74 931.81 574.09 931.81 575.74 z" />
        <desc>Point L: Intersection of c and i</desc>
      </g>
      <g class="point">
        <path d="M 400.19 575.74 C 400.19 577.40 398.85 578.74 397.19 578.74 C 395.54 578.74 394.19 577.40 394.19 575.74 C 394.19 574.09 395.54 572.74 397.19 572.74 C 398.85 572.74 400.19 574.09 400.19 575.74 z" />
        <path d="M 400.19 575.74 C 400.19 577.40 398.85 578.74 397.19 578.74 C 395.54 578.74 394.19 577.40 394.19 575.74 C 394.19 574.09 395.54 572.74 397.19 572.74 C 398.85 572.74 400.19 574.09 400.19 575.74 z" />
        <desc>Point M: Intersection of b and h</desc>
      </g>
      <g class="point">
        <path d="M 666.00 422.28 C 666.00 423.94 664.66 425.28 663.00 425.28 C 661.34 425.28 660.00 423.94 660.00 422.28 C 660.00 420.62 661.34 419.28 663.00 419.28 C 664.66 419.28 666.00 420.62 666.00 422.28 z" />
        <path d="M 666.00 422.28 C 666.00 423.94 664.66 425.28 663.00 425.28 C 661.34 425.28 660.00 423.94 660.00 422.28 C 660.00 420.62 661.34 419.28 663.00 419.28 C 664.66 419.28 666.00 420.62 666.00 422.28 z" />
        <desc>Point N: Intersection of d and n</desc>
      </g>
      <g class="point golden">
        <path d="M 368.82 345.55 C 368.82 347.21 367.48 348.55 365.82 348.55 C 364.16 348.55 362.82 347.21 362.82 345.55 C 362.82 343.89 364.16 342.55 365.82 342.55 C 367.48 342.55 368.82 343.89 368.82 345.55 z" />
        <path d="M 368.82 345.55 C 368.82 347.21 367.48 348.55 365.82 348.55 C 364.16 348.55 362.82 347.21 362.82 345.55 C 362.82 343.89 364.16 342.55 365.82 342.55 C 367.48 342.55 368.82 343.89 368.82 345.55 z" />
        <desc>Point O: Intersection point of e, a</desc>
      </g>
      <g class="point golden">
        <path d="M 963.18 345.55 C 963.18 347.21 961.84 348.55 960.18 348.55 C 958.52 348.55 957.18 347.21 957.18 345.55 C 957.18 343.89 958.52 342.55 960.18 342.55 C 961.84 342.55 963.18 343.89 963.18 345.55 z" />
        <path d="M 963.18 345.55 C 963.18 347.21 961.84 348.55 960.18 348.55 C 958.52 348.55 957.18 347.21 957.18 345.55 C 957.18 343.89 958.52 342.55 960.18 342.55 C 961.84 342.55 963.18 343.89 963.18 345.55 z" />
        <desc>Point P: Intersection point of e, a</desc>
      </g>
      <g class="point golden">
        <path d="M 450.96 203.28 C 450.96 204.94 449.61 206.28 447.96 206.28 C 446.30 206.28 444.96 204.94 444.96 203.28 C 444.96 201.62 446.30 200.28 447.96 200.28 C 449.61 200.28 450.96 201.62 450.96 203.28 z" />
        <path d="M 450.96 203.28 C 450.96 204.94 449.61 206.28 447.96 206.28 C 446.30 206.28 444.96 204.94 444.96 203.28 C 444.96 201.62 446.30 200.28 447.96 200.28 C 449.61 200.28 450.96 201.62 450.96 203.28 z" />
        <desc>Point Q: Intersection of e and j</desc>
      </g>
      <g class="point golden">
        <path d="M 881.04 203.28 C 881.04 204.94 879.70 206.28 878.04 206.28 C 876.39 206.28 875.04 204.94 875.04 203.28 C 875.04 201.62 876.39 200.28 878.04 200.28 C 879.70 200.28 881.04 201.62 881.04 203.28 z" />
        <path d="M 881.04 203.28 C 881.04 204.94 879.70 206.28 878.04 206.28 C 876.39 206.28 875.04 204.94 875.04 203.28 C 875.04 201.62 876.39 200.28 878.04 200.28 C 879.70 200.28 881.04 201.62 881.04 203.28 z" />
        <desc>Point R: Intersection of e and k</desc>
      </g>
      <g class="point golden">
        <path d="M 748.14 718.01 C 748.14 719.67 746.80 721.01 745.14 721.01 C 743.48 721.01 742.14 719.67 742.14 718.01 C 742.14 716.36 743.48 715.01 745.14 715.01 C 746.80 715.01 748.14 716.36 748.14 718.01 z" />
        <path d="M 748.14 718.01 C 748.14 719.67 746.80 721.01 745.14 721.01 C 743.48 721.01 742.14 719.67 742.14 718.01 C 742.14 716.36 743.48 715.01 745.14 715.01 C 746.80 715.01 748.14 716.36 748.14 718.01 z" />
        <desc>Point S: Intersection of e and j</desc>
      </g>
      <g class="point golden">
        <path d="M 583.86 718.01 C 583.86 719.67 582.52 721.01 580.86 721.01 C 579.20 721.01 577.86 719.67 577.86 718.01 C 577.86 716.36 579.20 715.01 580.86 715.01 C 582.52 715.01 583.86 716.36 583.86 718.01 z" />
        <path d="M 583.86 718.01 C 583.86 719.67 582.52 721.01 580.86 721.01 C 579.20 721.01 577.86 719.67 577.86 718.01 C 577.86 716.36 579.20 715.01 580.86 715.01 C 582.52 715.01 583.86 716.36 583.86 718.01 z" />
        <desc>Point T: Intersection of e and k</desc>
      </g>
      <g class="point golden">
        <path d="M 615.24 203.28 C 615.24 204.94 613.89 206.28 612.24 206.28 C 610.58 206.28 609.24 204.94 609.24 203.28 C 609.24 201.62 610.58 200.28 612.24 200.28 C 613.89 200.28 615.24 201.62 615.24 203.28 z" />
        <path d="M 615.24 203.28 C 615.24 204.94 613.89 206.28 612.24 206.28 C 610.58 206.28 609.24 204.94 609.24 203.28 C 609.24 201.62 610.58 200.28 612.24 200.28 C 613.89 200.28 615.24 201.62 615.24 203.28 z" />
        <desc>Point U: Intersection of p and h</desc>
      </g>
      <g class="point golden">
        <path d="M 716.76 203.28 C 716.76 204.94 715.42 206.28 713.76 206.28 C 712.11 206.28 710.76 204.94 710.76 203.28 C 710.76 201.62 712.11 200.28 713.76 200.28 C 715.42 200.28 716.76 201.62 716.76 203.28 z" />
        <path d="M 716.76 203.28 C 716.76 204.94 715.42 206.28 713.76 206.28 C 712.11 206.28 710.76 204.94 710.76 203.28 C 710.76 201.62 712.11 200.28 713.76 200.28 C 715.42 200.28 716.76 201.62 716.76 203.28 z" />
        <desc>Point V: Intersection of i and p</desc>
      </g>
      <g class="point golden">
        <path d="M 450.96 487.82 C 450.96 489.47 449.61 490.82 447.96 490.82 C 446.30 490.82 444.96 489.47 444.96 487.82 C 444.96 486.16 446.30 484.82 447.96 484.82 C 449.61 484.82 450.96 486.16 450.96 487.82 z" />
        <path d="M 450.96 487.82 C 450.96 489.47 449.61 490.82 447.96 490.82 C 446.30 490.82 444.96 489.47 444.96 487.82 C 444.96 486.16 446.30 484.82 447.96 484.82 C 449.61 484.82 450.96 486.16 450.96 487.82 z" />
        <desc>Point W: Intersection of q and h</desc>
      </g>
      <g class="point golden">
        <path d="M 501.72 575.74 C 501.72 577.40 500.38 578.74 498.72 578.74 C 497.07 578.74 495.72 577.40 495.72 575.74 C 495.72 574.09 497.07 572.74 498.72 572.74 C 500.38 572.74 501.72 574.09 501.72 575.74 z" />
        <path d="M 501.72 575.74 C 501.72 577.40 500.38 578.74 498.72 578.74 C 497.07 578.74 495.72 577.40 495.72 575.74 C 495.72 574.09 497.07 572.74 498.72 572.74 C 500.38 572.74 501.72 574.09 501.72 575.74 z" />
        <desc>Point Z: Intersection of q and m</desc>
      </g>
      <g class="point golden">
        <path d="M 830.28 575.74 C 830.28 577.40 828.93 578.74 827.28 578.74 C 825.62 578.74 824.28 577.40 824.28 575.74 C 824.28 574.09 825.62 572.74 827.28 572.74 C 828.93 572.74 830.28 574.09 830.28 575.74 z" />
        <path d="M 830.28 575.74 C 830.28 577.40 828.93 578.74 827.28 578.74 C 825.62 578.74 824.28 577.40 824.28 575.74 C 824.28 574.09 825.62 572.74 827.28 572.74 C 828.93 572.74 830.28 574.09 830.28 575.74 z" />
        <desc>Point A_1: Intersection of m and r</desc>
      </g>
      <g class="point golden">
        <path d="M 881.04 487.82 C 881.04 489.47 879.70 490.82 878.04 490.82 C 876.39 490.82 875.04 489.47 875.04 487.82 C 875.04 486.16 876.39 484.82 878.04 484.82 C 879.70 484.82 881.04 486.16 881.04 487.82 z" />
        <path d="M 881.04 487.82 C 881.04 489.47 879.70 490.82 878.04 490.82 C 876.39 490.82 875.04 489.47 875.04 487.82 C 875.04 486.16 876.39 484.82 878.04 484.82 C 879.70 484.82 881.04 486.16 881.04 487.82 z" />
        <desc>Point B_1: Intersection of i and r</desc>
      </g>
    </g>
  </g>
</svg>
