<svg version="1.1" xmlns="http://www.w3.org/2000/svg" xmlns:xlink="http://www.w3.org/1999/xlink" width="1132" height="928">
	<defs>
		<clipPath id="tCAKnFTOVMcl"><path fill="none" stroke="none" d=" M 0 0 L 1132 0 L 1132 928 L 0 928 L 0 0 Z"/></clipPath>
	</defs>
	<g transform="scale(1,1)" clip-path="url(#tCAKnFTOVMcl)">
		<g><rect fill="rgb(255,255,255)" stroke="none" x="0" y="0" width="1132" height="928" fill-opacity="1"/><path
			fill="none"
			stroke="rgb(0,0,0)"
			paint-order="fill stroke markers"
			d=" M 636.92294133208 559.1169437132473 C 636.92294133208 639.1052990412389 572.079567461505 703.9486729118141 492.0912121335135 703.9486729118141 C 412.10285680552204 703.9486729118141 347.259482934947 639.1052990412389 347.259482934947 559.1169437132473 C 347.259482934947 479.1285883852557 412.10285680552204 414.2852145146806 492.0912121335135 414.2852145146806 C 572.079567461505 414.2852145146806 636.92294133208 479.1285883852557 636.92294133208 559.1169437132473 Z"
			stroke-opacity="0.6980392156862745"
			stroke-linecap="round"
			stroke-linejoin="round"
			stroke-miterlimit="10"
			stroke-width="2.5"/><path
			fill="none"
			stroke="rgb(0,0,0)"
			paint-order="fill stroke markers"
			d=" M 781.7546705306465 559.1169437132473 C 781.7546705306465 639.1052990412389 716.9112966600716 703.9486729118141 636.9229413320801 703.9486729118141 C 556.9345860040886 703.9486729118141 492.0912121335136 639.1052990412389 492.0912121335136 559.1169437132473 C 492.0912121335136 479.1285883852557 556.9345860040886 414.2852145146806 636.9229413320801 414.2852145146806 C 716.9112966600716 414.2852145146806 781.7546705306465 479.1285883852557 781.7546705306465 559.1169437132473 Z"
			stroke-opacity="0.6980392156862745"
			stroke-linecap="round"
			stroke-linejoin="round"
			stroke-miterlimit="10"
			stroke-width="2.5"/><path
			fill="none"
			stroke="rgb(0,0,0)"
			paint-order="fill stroke markers"
			d=" M 636.9229413320801 559.1169437132473 C 636.9229413320801 719.0936543692305 507.23619359093004 848.7804021103808 347.2594829349471 848.7804021103808 C 187.28277227896405 848.7804021103808 57.59602453781406 719.0936543692305 57.59602453781406 559.1169437132473 C 57.59602453781406 399.140233057264 187.28277227896405 269.45348531611387 347.2594829349471 269.45348531611387 C 507.23619359093004 269.45348531611387 636.9229413320801 399.140233057264 636.9229413320801 559.1169437132473 Z"
			stroke-opacity="0.6980392156862745"
			stroke-linecap="round"
			stroke-linejoin="round"
			stroke-miterlimit="10"
			stroke-width="2.5"/><path
			fill="none"
			stroke="rgb(0,0,0)"
			paint-order="fill stroke markers"
			d=" M 926.5863997292131 559.1169437132473 C 926.5863997292131 719.0936543692305 796.899651988063 848.7804021103808 636.9229413320801 848.7804021103808 C 476.94623067609706 848.7804021103808 347.2594829349471 719.0936543692305 347.2594829349471 559.1169437132473 C 347.2594829349471 399.140233057264 476.94623067609706 269.45348531611387 636.9229413320801 269.45348531611387 C 796.899651988063 269.45348531611387 926.5863997292131 399.140233057264 926.5863997292131 559.1169437132473 Z"
			stroke-opacity="0.6980392156862745"
			stroke-linecap="round"
			stroke-linejoin="round"
			stroke-miterlimit="10"
			stroke-width="2.5"/><path
			fill="none"
			stroke="rgb(0,0,0)"
			paint-order="fill stroke markers"
			d=" M 781.7546705306465 559.1169437132473 C 781.7546705306465 719.0936543692305 652.0679227894965 848.7804021103808 492.0912121335135 848.7804021103808 C 332.1145014775305 848.7804021103808 202.4277537363805 719.0936543692305 202.4277537363805 559.1169437132473 C 202.4277537363805 399.140233057264 332.1145014775305 269.45348531611387 492.0912121335135 269.45348531611387 C 652.0679227894965 269.45348531611387 781.7546705306465 399.140233057264 781.7546705306465 559.1169437132473 Z"
			stroke-opacity="0.6980392156862745"
			stroke-linecap="round"
			stroke-linejoin="round"
			stroke-miterlimit="10"
			stroke-width="2.5"/><path
			fill="none"
			stroke="rgb(0,0,0)"
			paint-order="fill stroke markers"
			d=" M 1071.4181289277794 559.1169437132473 C 1071.4181289277794 719.0936543692305 941.7313811866295 848.7804021103808 781.7546705306465 848.7804021103808 C 621.7779598746636 848.7804021103808 492.0912121335135 719.0936543692305 492.0912121335135 559.1169437132473 C 492.0912121335135 399.140233057264 621.7779598746636 269.45348531611387 781.7546705306465 269.45348531611387 C 941.7313811866295 269.45348531611387 1071.4181289277794 399.140233057264 1071.4181289277794 559.1169437132473 Z"
			stroke-opacity="0.6980392156862745"
			stroke-linecap="round"
			stroke-linejoin="round"
			stroke-miterlimit="10"
			stroke-width="2.5"/><path
			fill="none"
			stroke="rgb(0,0,0)"
			paint-order="fill stroke markers"
			d=" M 636.92294133208 559.1169437132473 C 636.92294133208 599.1111213772431 604.5012543967925 631.5328083125307 564.5070767327968 631.5328083125307 C 524.5128990688011 631.5328083125307 492.0912121335135 599.1111213772431 492.0912121335135 559.1169437132473 C 492.0912121335135 519.1227660492515 524.5128990688011 486.70107911396394 564.5070767327968 486.70107911396394 C 604.5012543967925 486.70107911396394 636.92294133208 519.1227660492515 636.92294133208 559.1169437132473 Z"
			stroke-opacity="0.6980392156862745"
			stroke-linecap="round"
			stroke-linejoin="round"
			stroke-miterlimit="10"
			stroke-width="2.5"/><path
			fill="none"
			stroke="rgb(0,0,0)"
			paint-order="fill stroke markers"
			d=" M -5 559.1169437132473 L 1137 559.1169437132473"
			stroke-opacity="0.6980392156862745"
			stroke-linecap="round"
			stroke-linejoin="round"
			stroke-miterlimit="10"
			stroke-width="2.5"/><path fill="none" stroke="rgb(0,0,0)" paint-order="fill stroke markers" d=" M 564.5070767327968 933 L 564.5070767327968 -5" stroke-opacity="0.6980392156862745" stroke-linecap="round" stroke-linejoin="round" stroke-miterlimit="10" stroke-width="2.5"/><path fill="none" stroke="rgb(0,0,0)" paint-order="fill stroke markers" d=" M 492.0912121335135 933 L 492.0912121335135 -5" stroke-opacity="0.6980392156862745" stroke-linecap="round" stroke-linejoin="round" stroke-miterlimit="10" stroke-width="2.5"/><path fill="none" stroke="rgb(0,0,0)" paint-order="fill stroke markers" d=" M 636.9229413320801 933 L 636.9229413320801 -5" stroke-opacity="0.6980392156862745" stroke-linecap="round" stroke-linejoin="round" stroke-miterlimit="10" stroke-width="2.5"/><path
			fill="rgb(125,125,255)"
			stroke="none"
			paint-order="stroke fill markers"
			d=" M 497.0912121335135 559.1169437132473 C 497.0912121335135 561.8783674624013 494.85263588266747 564.1169437132473 492.0912121335135 564.1169437132473 C 489.3297883843596 564.1169437132473 487.0912121335135 561.8783674624013 487.0912121335135 559.1169437132473 C 487.0912121335135 556.3555199640933 489.3297883843596 554.1169437132473 492.0912121335135 554.1169437132473 C 494.85263588266747 554.1169437132473 497.0912121335135 556.3555199640933 497.0912121335135 559.1169437132473 Z"
			fill-opacity="1"/><path
			fill="none"
			stroke="rgb(0,0,0)"
			paint-order="fill stroke markers"
			d=" M 497.0912121335135 559.1169437132473 C 497.0912121335135 561.8783674624013 494.85263588266747 564.1169437132473 492.0912121335135 564.1169437132473 C 489.3297883843596 564.1169437132473 487.0912121335135 561.8783674624013 487.0912121335135 559.1169437132473 C 487.0912121335135 556.3555199640933 489.3297883843596 554.1169437132473 492.0912121335135 554.1169437132473 C 494.85263588266747 554.1169437132473 497.0912121335135 556.3555199640933 497.0912121335135 559.1169437132473 Z"
			stroke-opacity="1"
			stroke-linecap="round"
			stroke-linejoin="round"
			stroke-miterlimit="10"/><path
			fill="rgb(125,125,255)"
			stroke="none"
			paint-order="stroke fill markers"
			d=" M 641.9229413320801 559.1169437132473 C 641.9229413320801 561.8783674624013 639.6843650812341 564.1169437132473 636.9229413320801 564.1169437132473 C 634.1615175829261 564.1169437132473 631.9229413320801 561.8783674624013 631.9229413320801 559.1169437132473 C 631.9229413320801 556.3555199640933 634.1615175829261 554.1169437132473 636.9229413320801 554.1169437132473 C 639.6843650812341 554.1169437132473 641.9229413320801 556.3555199640933 641.9229413320801 559.1169437132473 Z"
			fill-opacity="1"/><path
			fill="none"
			stroke="rgb(0,0,0)"
			paint-order="fill stroke markers"
			d=" M 641.9229413320801 559.1169437132473 C 641.9229413320801 561.8783674624013 639.6843650812341 564.1169437132473 636.9229413320801 564.1169437132473 C 634.1615175829261 564.1169437132473 631.9229413320801 561.8783674624013 631.9229413320801 559.1169437132473 C 631.9229413320801 556.3555199640933 634.1615175829261 554.1169437132473 636.9229413320801 554.1169437132473 C 639.6843650812341 554.1169437132473 641.9229413320801 556.3555199640933 641.9229413320801 559.1169437132473 Z"
			stroke-opacity="1"
			stroke-linecap="round"
			stroke-linejoin="round"
			stroke-miterlimit="10"/><path
			fill="rgb(68,68,68)"
			stroke="none"
			paint-order="stroke fill markers"
			d=" M 568.5070767327968 433.6889869532601 C 568.5070767327968 435.89812595258326 566.71621573212 437.6889869532601 564.5070767327968 437.6889869532601 C 562.2979377334736 437.6889869532601 560.5070767327968 435.89812595258326 560.5070767327968 433.6889869532601 C 560.5070767327968 431.47984795393694 562.2979377334736 429.6889869532601 564.5070767327968 429.6889869532601 C 566.71621573212 429.6889869532601 568.5070767327968 431.47984795393694 568.5070767327968 433.6889869532601 Z"
			fill-opacity="1"/><path
			fill="none"
			stroke="rgb(0,0,0)"
			paint-order="fill stroke markers"
			d=" M 568.5070767327968 433.6889869532601 C 568.5070767327968 435.89812595258326 566.71621573212 437.6889869532601 564.5070767327968 437.6889869532601 C 562.2979377334736 437.6889869532601 560.5070767327968 435.89812595258326 560.5070767327968 433.6889869532601 C 560.5070767327968 431.47984795393694 562.2979377334736 429.6889869532601 564.5070767327968 429.6889869532601 C 566.71621573212 429.6889869532601 568.5070767327968 431.47984795393694 568.5070767327968 433.6889869532601 Z"
			stroke-opacity="1"
			stroke-linecap="round"
			stroke-linejoin="round"
			stroke-miterlimit="10"/><path
			fill="rgb(68,68,68)"
			stroke="none"
			paint-order="stroke fill markers"
			d=" M 568.5070767327968 684.5449004732345 C 568.5070767327968 686.7540394725577 566.71621573212 688.5449004732345 564.5070767327968 688.5449004732345 C 562.2979377334736 688.5449004732345 560.5070767327968 686.7540394725577 560.5070767327968 684.5449004732345 C 560.5070767327968 682.3357614739114 562.2979377334736 680.5449004732345 564.5070767327968 680.5449004732345 C 566.71621573212 680.5449004732345 568.5070767327968 682.3357614739114 568.5070767327968 684.5449004732345 Z"
			fill-opacity="1"/><path
			fill="none"
			stroke="rgb(0,0,0)"
			paint-order="fill stroke markers"
			d=" M 568.5070767327968 684.5449004732345 C 568.5070767327968 686.7540394725577 566.71621573212 688.5449004732345 564.5070767327968 688.5449004732345 C 562.2979377334736 688.5449004732345 560.5070767327968 686.7540394725577 560.5070767327968 684.5449004732345 C 560.5070767327968 682.3357614739114 562.2979377334736 680.5449004732345 564.5070767327968 680.5449004732345 C 566.71621573212 680.5449004732345 568.5070767327968 682.3357614739114 568.5070767327968 684.5449004732345 Z"
			stroke-opacity="1"
			stroke-linecap="round"
			stroke-linejoin="round"
			stroke-miterlimit="10"/><path
			fill="rgb(68,68,68)"
			stroke="none"
			paint-order="stroke fill markers"
			d=" M 351.2594829349471 559.1169437132473 C 351.2594829349471 561.3260827125705 349.46862193427023 563.1169437132473 347.2594829349471 563.1169437132473 C 345.0503439356239 563.1169437132473 343.2594829349471 561.3260827125705 343.2594829349471 559.1169437132473 C 343.2594829349471 556.9078047139242 345.0503439356239 555.1169437132473 347.2594829349471 555.1169437132473 C 349.46862193427023 555.1169437132473 351.2594829349471 556.9078047139242 351.2594829349471 559.1169437132473 Z"
			fill-opacity="1"/><path
			fill="none"
			stroke="rgb(0,0,0)"
			paint-order="fill stroke markers"
			d=" M 351.2594829349471 559.1169437132473 C 351.2594829349471 561.3260827125705 349.46862193427023 563.1169437132473 347.2594829349471 563.1169437132473 C 345.0503439356239 563.1169437132473 343.2594829349471 561.3260827125705 343.2594829349471 559.1169437132473 C 343.2594829349471 556.9078047139242 345.0503439356239 555.1169437132473 347.2594829349471 555.1169437132473 C 349.46862193427023 555.1169437132473 351.2594829349471 556.9078047139242 351.2594829349471 559.1169437132473 Z"
			stroke-opacity="1"
			stroke-linecap="round"
			stroke-linejoin="round"
			stroke-miterlimit="10"/><path
			fill="rgb(68,68,68)"
			stroke="none"
			paint-order="stroke fill markers"
			d=" M 785.7546705306465 559.1169437132473 C 785.7546705306465 561.3260827125705 783.9638095299697 563.1169437132473 781.7546705306465 563.1169437132473 C 779.5455315313234 563.1169437132473 777.7546705306465 561.3260827125705 777.7546705306465 559.1169437132473 C 777.7546705306465 556.9078047139242 779.5455315313234 555.1169437132473 781.7546705306465 555.1169437132473 C 783.9638095299697 555.1169437132473 785.7546705306465 556.9078047139242 785.7546705306465 559.1169437132473 Z"
			fill-opacity="1"/><path
			fill="none"
			stroke="rgb(0,0,0)"
			paint-order="fill stroke markers"
			d=" M 785.7546705306465 559.1169437132473 C 785.7546705306465 561.3260827125705 783.9638095299697 563.1169437132473 781.7546705306465 563.1169437132473 C 779.5455315313234 563.1169437132473 777.7546705306465 561.3260827125705 777.7546705306465 559.1169437132473 C 777.7546705306465 556.9078047139242 779.5455315313234 555.1169437132473 781.7546705306465 555.1169437132473 C 783.9638095299697 555.1169437132473 785.7546705306465 556.9078047139242 785.7546705306465 559.1169437132473 Z"
			stroke-opacity="1"
			stroke-linecap="round"
			stroke-linejoin="round"
			stroke-miterlimit="10"/><path
			fill="rgb(68,68,68)"
			stroke="none"
			paint-order="stroke fill markers"
			d=" M 496.0912121335135 809.9728572332218 C 496.0912121335135 812.181996232545 494.3003511328367 813.9728572332218 492.0912121335135 813.9728572332218 C 489.88207313419036 813.9728572332218 488.0912121335135 812.181996232545 488.0912121335135 809.9728572332218 C 488.0912121335135 807.7637182338987 489.88207313419036 805.9728572332218 492.0912121335135 805.9728572332218 C 494.3003511328367 805.9728572332218 496.0912121335135 807.7637182338987 496.0912121335135 809.9728572332218 Z"
			fill-opacity="1"/><path
			fill="none"
			stroke="rgb(0,0,0)"
			paint-order="fill stroke markers"
			d=" M 496.0912121335135 809.9728572332218 C 496.0912121335135 812.181996232545 494.3003511328367 813.9728572332218 492.0912121335135 813.9728572332218 C 489.88207313419036 813.9728572332218 488.0912121335135 812.181996232545 488.0912121335135 809.9728572332218 C 488.0912121335135 807.7637182338987 489.88207313419036 805.9728572332218 492.0912121335135 805.9728572332218 C 494.3003511328367 805.9728572332218 496.0912121335135 807.7637182338987 496.0912121335135 809.9728572332218 Z"
			stroke-opacity="1"
			stroke-linecap="round"
			stroke-linejoin="round"
			stroke-miterlimit="10"/><path
			fill="rgb(68,68,68)"
			stroke="none"
			paint-order="stroke fill markers"
			d=" M 496.0912121335135 308.26103019327286 C 496.0912121335135 310.470169192596 494.3003511328367 312.26103019327286 492.0912121335135 312.26103019327286 C 489.88207313419036 312.26103019327286 488.0912121335135 310.470169192596 488.0912121335135 308.26103019327286 C 488.0912121335135 306.0518911939497 489.88207313419036 304.26103019327286 492.0912121335135 304.26103019327286 C 494.3003511328367 304.26103019327286 496.0912121335135 306.0518911939497 496.0912121335135 308.26103019327286 Z"
			fill-opacity="1"/><path
			fill="none"
			stroke="rgb(0,0,0)"
			paint-order="fill stroke markers"
			d=" M 496.0912121335135 308.26103019327286 C 496.0912121335135 310.470169192596 494.3003511328367 312.26103019327286 492.0912121335135 312.26103019327286 C 489.88207313419036 312.26103019327286 488.0912121335135 310.470169192596 488.0912121335135 308.26103019327286 C 488.0912121335135 306.0518911939497 489.88207313419036 304.26103019327286 492.0912121335135 304.26103019327286 C 494.3003511328367 304.26103019327286 496.0912121335135 306.0518911939497 496.0912121335135 308.26103019327286 Z"
			stroke-opacity="1"
			stroke-linecap="round"
			stroke-linejoin="round"
			stroke-miterlimit="10"/><path
			fill="rgb(68,68,68)"
			stroke="none"
			paint-order="stroke fill markers"
			d=" M 640.9229413320801 809.9728572332218 C 640.9229413320801 812.181996232545 639.1320803314032 813.9728572332218 636.9229413320801 813.9728572332218 C 634.7138023327569 813.9728572332218 632.9229413320801 812.181996232545 632.9229413320801 809.9728572332218 C 632.9229413320801 807.7637182338987 634.7138023327569 805.9728572332218 636.9229413320801 805.9728572332218 C 639.1320803314032 805.9728572332218 640.9229413320801 807.7637182338987 640.9229413320801 809.9728572332218 Z"
			fill-opacity="1"/><path
			fill="none"
			stroke="rgb(0,0,0)"
			paint-order="fill stroke markers"
			d=" M 640.9229413320801 809.9728572332218 C 640.9229413320801 812.181996232545 639.1320803314032 813.9728572332218 636.9229413320801 813.9728572332218 C 634.7138023327569 813.9728572332218 632.9229413320801 812.181996232545 632.9229413320801 809.9728572332218 C 632.9229413320801 807.7637182338987 634.7138023327569 805.9728572332218 636.9229413320801 805.9728572332218 C 639.1320803314032 805.9728572332218 640.9229413320801 807.7637182338987 640.9229413320801 809.9728572332218 Z"
			stroke-opacity="1"
			stroke-linecap="round"
			stroke-linejoin="round"
			stroke-miterlimit="10"/><path
			fill="rgb(68,68,68)"
			stroke="none"
			paint-order="stroke fill markers"
			d=" M 640.9229413320801 308.26103019327286 C 640.9229413320801 310.470169192596 639.1320803314032 312.26103019327286 636.9229413320801 312.26103019327286 C 634.7138023327569 312.26103019327286 632.9229413320801 310.470169192596 632.9229413320801 308.26103019327286 C 632.9229413320801 306.0518911939497 634.7138023327569 304.26103019327286 636.9229413320801 304.26103019327286 C 639.1320803314032 304.26103019327286 640.9229413320801 306.0518911939497 640.9229413320801 308.26103019327286 Z"
			fill-opacity="1"/><path
			fill="none"
			stroke="rgb(0,0,0)"
			paint-order="fill stroke markers"
			d=" M 640.9229413320801 308.26103019327286 C 640.9229413320801 310.470169192596 639.1320803314032 312.26103019327286 636.9229413320801 312.26103019327286 C 634.7138023327569 312.26103019327286 632.9229413320801 310.470169192596 632.9229413320801 308.26103019327286 C 632.9229413320801 306.0518911939497 634.7138023327569 304.26103019327286 636.9229413320801 304.26103019327286 C 639.1320803314032 304.26103019327286 640.9229413320801 306.0518911939497 640.9229413320801 308.26103019327286 Z"
			stroke-opacity="1"
			stroke-linecap="round"
			stroke-linejoin="round"
			stroke-miterlimit="10"/><path
			fill="rgb(68,68,68)"
			stroke="none"
			paint-order="stroke fill markers"
			d=" M 568.5070767327968 559.1169437132473 C 568.5070767327968 561.3260827125705 566.71621573212 563.1169437132473 564.5070767327968 563.1169437132473 C 562.2979377334736 563.1169437132473 560.5070767327968 561.3260827125705 560.5070767327968 559.1169437132473 C 560.5070767327968 556.9078047139242 562.2979377334736 555.1169437132473 564.5070767327968 555.1169437132473 C 566.71621573212 555.1169437132473 568.5070767327968 556.9078047139242 568.5070767327968 559.1169437132473 Z"
			fill-opacity="1"/><path
			fill="none"
			stroke="rgb(0,0,0)"
			paint-order="fill stroke markers"
			d=" M 568.5070767327968 559.1169437132473 C 568.5070767327968 561.3260827125705 566.71621573212 563.1169437132473 564.5070767327968 563.1169437132473 C 562.2979377334736 563.1169437132473 560.5070767327968 561.3260827125705 560.5070767327968 559.1169437132473 C 560.5070767327968 556.9078047139242 562.2979377334736 555.1169437132473 564.5070767327968 555.1169437132473 C 566.71621573212 555.1169437132473 568.5070767327968 556.9078047139242 568.5070767327968 559.1169437132473 Z"
			stroke-opacity="1"
			stroke-linecap="round"
			stroke-linejoin="round"
			stroke-miterlimit="10"/></g>
	</g>
</svg>
