<?xml version="1.0"?>
<svg xmlns="http://www.w3.org/2000/svg" xmlns:lc="http://www.librecad.org" xmlns:xlink="http://www.w3.org/1999/xlink" width="330mm" height="116.05551275mm" viewBox="0 0 330 116.05551275">
    <g lc:layername="0" lc:is_locked="false" lc:is_construction="false" fill="none" stroke="black" stroke-width="1">
        <circle cx="140" cy="80" r="36.05551275"/>
        <g lc:blockname="test2">
            <g lc:layername="0" lc:is_locked="false" lc:is_construction="false" fill="none" stroke="black" stroke-width="1">
                <path d="M60,133.94448725 L40,133.94448725 L40,113.94448725 L60,113.94448725 L60,133.94448725 Z "/>
                <path d="M50,103.94448725 L70,103.94448725 L70,123.94448725 L50,123.94448725 L50,103.94448725 Z "/>
            </g>
        </g>
        <g lc:blockname="test2">
            <g lc:layername="0" lc:is_locked="false" lc:is_construction="false" fill="none" stroke="black" stroke-width="1">
                <path d="M250,93.94448725 L230,93.94448725 L230,73.94448725 L250,73.94448725 L250,93.94448725 Z "/>
                <path d="M240,63.94448725 L260,63.94448725 L260,83.94448725 L240,83.94448725 L240,63.94448725 Z "/>
            </g>
        </g>
        <g lc:blockname="test2">
            <g lc:layername="0" lc:is_locked="false" lc:is_construction="false" fill="none" stroke="black" stroke-width="1">
                <path d="M280,163.94448725 L260,163.94448725 L260,143.94448725 L280,143.94448725 L280,163.94448725 Z "/>
                <path d="M270,133.94448725 L290,133.94448725 L290,153.94448725 L270,153.94448725 L270,133.94448725 Z "/>
            </g>
        </g>
        <g lc:blockname="test2">
            <g lc:layername="0" lc:is_locked="false" lc:is_construction="false" fill="none" stroke="black" stroke-width="1">
                <path d="M320,163.94448725 L300,163.94448725 L300,143.94448725 L320,143.94448725 L320,163.94448725 Z "/>
                <path d="M310,133.94448725 L330,133.94448725 L330,153.94448725 L310,153.94448725 L310,133.94448725 Z "/>
            </g>
        </g>
        <g lc:blockname="test2">
            <g lc:layername="0" lc:is_locked="false" lc:is_construction="false" fill="none" stroke="black" stroke-width="1">
                <path d="M360,163.94448725 L340,163.94448725 L340,143.94448725 L360,143.94448725 L360,163.94448725 Z "/>
                <path d="M350,133.94448725 L370,133.94448725 L370,153.94448725 L350,153.94448725 L350,133.94448725 Z "/>
            </g>
        </g>
    </g>
</svg>
