<?xml version="1.0" encoding="ISO-8859-1" standalone="no"?>

<svg 
     version="1.1"
     baseProfile="full"
     xmlns="http://www.w3.org/2000/svg"
     xmlns:xlink="http://www.w3.org/1999/xlink"
     xmlns:ev="http://www.w3.org/2001/xml-events"
     x="0px"
     y="0px"
     width="1326px"
     height="824px"
     viewBox="0 0 1326 824"
     >
<title>

</title>
<g stroke-linejoin="miter" stroke-dashoffset="0.0000" stroke-dasharray="none" stroke-width="1.0000" stroke-miterlimit="10.000" stroke-linecap="square">
<g id="misc">
</g>
<g id="layer0">

<g stroke-linejoin="round" stroke-width="1.5000" stroke-linecap="round" fill="none" stroke-opacity="1.0000" stroke="#808080">
  <path d="M 795.90 345.55 C 795.90 492.35 676.90 611.35 530.10 611.35 C 383.30 611.35 264.29 492.35 264.29 345.55 C 264.29 198.75 383.30 79.742 530.10 79.742 C 676.90 79.742 795.90 198.75 795.90 345.55 z"/>
<title>Circle b</title>
<desc>Circle b: Circle through B with center A</desc>

</g> 


<g stroke-linejoin="round" stroke-width="1.5000" stroke-linecap="round" fill="none" stroke-opacity="1.0000" stroke="#808080">
  <path d="M 1061.7 345.55 C 1061.7 492.35 942.70 611.35 795.90 611.35 C 649.10 611.35 530.10 492.35 530.10 345.55 C 530.10 198.75 649.10 79.742 795.90 79.742 C 942.70 79.742 1061.7 198.75 1061.7 345.55 z"/>
<title>Circle c</title>
<desc>Circle c: Circle through A with center B</desc>

</g> 

</g>
<g id="layer1">
</g>
<g id="layer2">
</g>
<g id="layer3">
</g>
<g id="layer4">
</g>
<g id="layer5">
</g>
<g id="layer6">

<g stroke-linejoin="round" stroke-width="1.5000" stroke-linecap="round" fill="none" stroke-opacity="1.0000" stroke="#808080">
  <path d="M -5.0000 345.55 L 1331.0 345.55"/>
<title>Line a</title>
<desc>Line a: Line A, B</desc>

</g> 


<g stroke-linejoin="round" stroke-dasharray="9.5000,4.0000,1.5000,4.0000" stroke-width="1.5000" stroke-linecap="butt" fill="none" stroke-opacity="1.0000" stroke="#808080">
  <path d="M 663.00 829.00 L 663.00 -5.0000"/>
<title>Line d</title>
<desc>Line d: Line C, D</desc>

</g> 


<g stroke-linejoin="round" stroke-width="1.5000" stroke-linecap="round" fill="none" stroke-opacity="1.0000" stroke="#ff0000">
  <path d="M 250.98 829.00 L 732.49 -5.0000"/>
<title>Line h</title>
<desc>Line h: Line A, C</desc>

</g> 


<g stroke-linejoin="round" stroke-width="1.5000" stroke-linecap="round" fill="none" stroke-opacity="1.0000" stroke="#ff0000">
  <path d="M 1075.0 829.00 L 593.51 -5.0000"/>
<title>Line i</title>
<desc>Line i: Line B, C</desc>

</g> 


<g stroke-linejoin="round" stroke-width="1.5000" stroke-linecap="round" fill="none" stroke-opacity="1.0000" stroke="#ff0000">
  <path d="M 809.22 829.00 L 327.71 -5.0000"/>
<title>Line j</title>
<desc>Line j: Line A, D</desc>

</g> 


<g stroke-linejoin="round" stroke-width="1.5000" stroke-linecap="round" fill="none" stroke-opacity="1.0000" stroke="#ff0000">
  <path d="M 516.78 829.00 L 998.29 -5.0000"/>
<title>Line k</title>
<desc>Line k: Line B, D</desc>

</g> 

</g>
<g id="layer7">
</g>
<g id="layer8">

<g stroke-linejoin="round" stroke-dasharray="1.5000,3.0000" stroke-width="1.5000" stroke-linecap="butt" fill="none" stroke-opacity="1.0000" stroke="#ff0000">
  <path d="M -5.0000 115.35 L 1331.0 115.35"/>
<title>Line a_1</title>
<desc>Line a_1: Line G, H</desc>

</g> 


<g fill-opacity="1.0000" fill-rule="nonzero" stroke="none" fill="#FFFFFF">
  <path d="M 400.19 115.35 C 400.19 117.01 398.85 118.35 397.19 118.35 C 395.54 118.35 394.19 117.01 394.19 115.35 C 394.19 113.70 395.54 112.35 397.19 112.35 C 398.85 112.35 400.19 113.70 400.19 115.35 z"/>
<title>Point G</title>
<desc>Point G: Intersection of b and j</desc>

</g> 


<g fill-opacity="1.0000" fill-rule="nonzero" stroke="none" fill="#FFFFFF">
  <path d="M 931.81 115.35 C 931.81 117.01 930.46 118.35 928.81 118.35 C 927.15 118.35 925.81 117.01 925.81 115.35 C 925.81 113.70 927.15 112.35 928.81 112.35 C 930.46 112.35 931.81 113.70 931.81 115.35 z"/>
<title>Point H</title>
<desc>Point H: Intersection of c and k</desc>

</g> 

</g>
<g id="layer9">

<g fill-opacity="1.0000" fill-rule="nonzero" stroke="none" fill="#FFFFFF">
  <path d="M 535.10 345.55 C 535.10 348.31 532.86 350.55 530.10 350.55 C 527.34 350.55 525.10 348.31 525.10 345.55 C 525.10 342.79 527.34 340.55 530.10 340.55 C 532.86 340.55 535.10 342.79 535.10 345.55 z"/>
<title>Point A</title>
<desc>Point A: Point on xAxis</desc>

</g> 


<g fill-opacity="1.0000" fill-rule="nonzero" stroke="none" fill="#FFFFFF">
  <path d="M 800.90 345.55 C 800.90 348.31 798.66 350.55 795.90 350.55 C 793.14 350.55 790.90 348.31 790.90 345.55 C 790.90 342.79 793.14 340.55 795.90 340.55 C 798.66 340.55 800.90 342.79 800.90 345.55 z"/>
<title>Point B</title>
<desc>Point B: Point on xAxis</desc>

</g> 


<g fill-opacity="1.0000" fill-rule="nonzero" stroke="none" fill="#FFFFFF">
  <path d="M 666.00 115.35 C 666.00 117.01 664.66 118.35 663.00 118.35 C 661.34 118.35 660.00 117.01 660.00 115.35 C 660.00 113.70 661.34 112.35 663.00 112.35 C 664.66 112.35 666.00 113.70 666.00 115.35 z"/>
<title>Point C</title>
<desc>Point C: Intersection point of b, c</desc>

</g> 


<g fill-opacity="1.0000" fill-rule="nonzero" stroke="none" fill="#FFFFFF">
  <path d="M 666.00 575.74 C 666.00 577.40 664.66 578.74 663.00 578.74 C 661.34 578.74 660.00 577.40 660.00 575.74 C 660.00 574.09 661.34 572.74 663.00 572.74 C 664.66 572.74 666.00 574.09 666.00 575.74 z"/>
<title>Point D</title>
<desc>Point D: Intersection point of b, c</desc>

</g> 


<g fill-opacity="1.0000" fill-rule="nonzero" stroke="none" fill="#FFFFFF">
  <path d="M 666.00 345.55 C 666.00 347.21 664.66 348.55 663.00 348.55 C 661.34 348.55 660.00 347.21 660.00 345.55 C 660.00 343.89 661.34 342.55 663.00 342.55 C 664.66 342.55 666.00 343.89 666.00 345.55 z"/>
<title>Point E</title>
<desc>Point E: Intersection of a and d</desc>

</g> 


<g fill-opacity="1.0000" fill-rule="nonzero" stroke="none" fill="#FFFFFF">
  <path d="M 931.81 575.74 C 931.81 577.40 930.46 578.74 928.81 578.74 C 927.15 578.74 925.81 577.40 925.81 575.74 C 925.81 574.09 927.15 572.74 928.81 572.74 C 930.46 572.74 931.81 574.09 931.81 575.74 z"/>
<title>Point L</title>
<desc>Point L: Intersection of c and i</desc>

</g> 


<g fill-opacity="1.0000" fill-rule="nonzero" stroke="none" fill="#FFFFFF">
  <path d="M 400.19 575.74 C 400.19 577.40 398.85 578.74 397.19 578.74 C 395.54 578.74 394.19 577.40 394.19 575.74 C 394.19 574.09 395.54 572.74 397.19 572.74 C 398.85 572.74 400.19 574.09 400.19 575.74 z"/>
<title>Point M</title>
<desc>Point M: Intersection of b and h</desc>

</g> 

</g>
</g> 
</svg> 
