<?xml version="1.0" encoding="iso-8859-1" standalone="no"?>
<svg version="1.1" baseProfile="full"
xmlns="http://www.w3.org/2000/svg"
xmlns:xlink="http://www.w3.org/1999/xlink"
xmlns:ev="http://www.w3.org/2001/xml-events" x="0px" y="0px"
width="1218px" height="860px" viewBox="0 0 1218 860">
  <style>
.golden { stroke: #DA0; stroke-opacity: 0.4; fill: #DA0; } 
.selected { stroke: #69C; stroke-opacity: 0.4; fill: #69C; } 
.point { stroke: black; stroke-width: 1.5; fill: white; }
.point > path:nth-child(1) { stroke: black;  fill: none; }
.point > path:nth-child(2) { stroke: black; stroke-width: 1.5;  fill: white; }
.point.golden > path:nth-child(1) { stroke-width: 12;   stroke: #DA0; stroke-opacity: 0.4; fill: #DA0;  }
.point.golden > path:nth-child(2) { stroke: black; stroke-width: 1.5; stroke-opacity: 1; fill: white; }
.point.selected > path:nth-child(1) { stroke-width: 12;   stroke: #69C; stroke-opacity: 0.4; fill: #DA0;  }
.point.selected > path:nth-child(2) { stroke: black; stroke-width: 1.5; stroke-opacity: 1; fill: white; }
.line { stroke: #93C; stroke-width: 1.5; stroke-opacity: 1; stroke-dasharray: 1.5 3;  } 
.line.selected { stroke: #69C; }
.line.highlight { stroke-dasharray: none; stroke-width: 3; }
.circle {fill: none; stroke: #93C; stroke-width: 1.5; stroke-opacity: 1; stroke-dasharray: 1.5 3; }
.polygon { stroke-width: 5; stroke-linejoin: round;  fill: #93C; fill-opacity: .1; } 
.bisector { stroke-dasharray: 1.5, 3, 5, 3; }
.segment {} 
.segment.golden > path:nth-child(2) { stroke: none;  }
.a { stroke-width: 4; } 
.b { stroke-width: 8; } 
.c { stroke-width: 12; } 
.d { stroke-width: 16; } 
#base .circle { stroke: #777; }
#base .line { stroke: #777; }
  </style>
  <g stroke-linejoin="miter" stroke-dashoffset="0.0000"
  stroke-dasharray="none" stroke-width="1.0000"
  stroke-miterlimit="10.000" stroke-linecap="square">
    <g id="misc"></g>
    <g id="base">
      <g class="circle">
        <path d="M 673.11 397.95 C 673.11 468.76 615.70 526.16 544.89 526.16 C 474.09 526.16 416.68 468.76 416.68 397.95 C 416.68 327.14 474.09 269.74 544.89 269.74 C 615.70 269.74 673.11 327.14 673.11 397.95 z" />
        <desc>Circle c: Circle through B with center A</desc>
      </g>
      <g class="circle">
        <path d="M 801.32 397.95 C 801.32 468.76 743.91 526.16 673.11 526.16 C 602.30 526.16 544.89 468.76 544.89 397.95 C 544.89 327.14 602.30 269.74 673.11 269.74 C 743.91 269.74 801.32 327.14 801.32 397.95 z" />
        <desc>Circle d: Circle through A with center B</desc>
      </g>
      <g class="line">
        <path d="M -5.0000 397.95 L 1223.0 397.95" />
        <desc>Line a: Line A, B</desc>
      </g>
    </g>
    <g id="main">
      <g class="line bisector">
        <path d="M 609.00 865.00 L 609.00 -5.0000" />
        <desc>Line b: Line D, C</desc>
      </g>
      <g class="line">
        <path d="M 814.55 865.00 L 312.25 -5.0000" />
        <desc>Line h: Line A, C</desc>
      </g>
      <g class="line">
        <path d="M 403.45 865.00 L 905.75 -5.0000" />
        <desc>Line i: Line B, C</desc>
      </g>
      <g class="line">
        <path d="M -5.0000 286.91 L 1223.0 286.91" />
        <desc>Line k: Line H, I</desc>
      </g>
    </g>
    <g id="layer1"></g>
    <g id="layer2"></g>
    <g id="layer3"></g>
    <g id="layer4"></g>
    <g id="layer5"></g>
    <g id="layer6"></g>
    <g id="layer7"></g>
    <g id="layer8">
      <g fill-opacity=".14902" fill-rule="evenodd" stroke="none"
      fill="#93C">
        <path d="M 609.00 286.91 L 480.79 508.98 L 737.21 508.98 z" />
        <desc>Triangle t1: Polygon D, J, K</desc>
      </g>
      <g class="circle">
        <path d="M 757.04 434.96 C 757.04 516.72 690.76 583.00 609.00 583.00 C 527.24 583.00 460.96 516.72 460.96 434.96 C 460.96 353.20 527.24 286.91 609.00 286.91 C 690.76 286.91 757.04 353.20 757.04 434.96 z" />
        <desc>Circle e: Circle through K with center L</desc>
      </g>
      <g class="line">
        <path d="M 275.24 865.00 L 777.54 -5.0000" />
        <desc>Line f: Line A, D</desc>
      </g>
      <g class="line">
        <path d="M 942.76 865.00 L 440.46 -5.0000" />
        <desc>Line g: Line B, D</desc>
      </g>
      <g class="line">
        <path d="M -5.0000 508.98 L 1223.0 508.98" />
        <desc>Line j: Line J, K</desc>
      </g>
      <g class="line bisector">
        <path d="M -5.0000 789.45 L 1223.0 80.465" />
        <desc>Line l: Line J, B</desc>
      </g>
      <g class="line bisector">
        <path d="M -5.0000 80.465 L 1223.0 789.45" />
        <desc>Line m: Line K, A</desc>
      </g>
      <g class="line selected">
        <path d="M -5.0000 537.97 L 1223.0 35.860" />
        <desc>Line n: Line D, O</desc>
      </g>
      <g class="line selected">
        <path d="M -5.0000 762.52 L 985.86 -5.0000" />
        <desc>Line p: Line D, M</desc>
      </g>
      <g class="line selected">
        <path d="M 530.21 865.00 L 648.79 -5.0000" />
        <desc>Line q: Line D, R</desc>
      </g>
      <g class="line selected">
        <path d="M 687.79 865.00 L 569.21 -5.0000" />
        <desc>Line r: Line D, P</desc>
      </g>
      <g class="line selected">
        <path d="M 232.14 -5.0000 L 1223.0 762.52" />
        <desc>Line s: Line D, N</desc>
      </g>
      <g class="line selected">
        <path d="M -5.0000 35.860 L 1223.0 537.97" />
        <desc>Line t: Line D, Q</desc>
      </g>
    </g>
    <g id="layer9">
      <g class="segment golden a">
        <path d="M 505.28 329.32 L 609.00 286.91" />
        <path d="M 542.11 290.70 Q 540.81 290.70 540.30 291.00 Q 539.80 291.30 539.80 292.02 Q 539.80 292.59 540.18 292.93 Q 540.56 293.27 541.20 293.27 Q 542.11 293.27 542.65 292.63 Q 543.19 292.00 543.19 290.94 L 543.19 290.70 L 542.11 290.70 z M 544.27 290.25 L 544.27 294.00 L 543.19 294.00 L 543.19 293.00 Q 542.81 293.59 542.27 293.88 Q 541.72 294.17 540.92 294.17 Q 539.91 294.17 539.31 293.60 Q 538.72 293.03 538.72 292.09 Q 538.72 290.98 539.46 290.42 Q 540.20 289.86 541.67 289.86 L 543.19 289.86 L 543.19 289.75 Q 543.19 289.00 542.70 288.59 Q 542.20 288.19 541.33 288.19 Q 540.77 288.19 540.23 288.33 Q 539.69 288.47 539.20 288.73 L 539.20 287.73 Q 539.80 287.50 540.35 287.39 Q 540.91 287.28 541.44 287.28 Q 542.86 287.28 543.56 288.02 Q 544.27 288.75 544.27 290.25 z" />
        <desc>Segment gc001a_1: sectionAB(O, D, M)</desc>
      </g>
      <g class="segment golden b">
        <path d="M 609.00 286.91 L 465.66 397.95" />
        <path d="M 497.84 355.72 Q 497.84 354.53 497.35 353.86 Q 496.86 353.19 496.02 353.19 Q 495.16 353.19 494.66 353.86 Q 494.17 354.53 494.17 355.72 Q 494.17 356.91 494.66 357.59 Q 495.16 358.27 496.02 358.27 Q 496.86 358.27 497.35 357.59 Q 497.84 356.91 497.84 355.72 z M 494.17 353.44 Q 494.52 352.84 495.03 352.56 Q 495.55 352.28 496.27 352.28 Q 497.47 352.28 498.22 353.23 Q 498.97 354.17 498.97 355.72 Q 498.97 357.27 498.22 358.22 Q 497.47 359.17 496.27 359.17 Q 495.55 359.17 495.03 358.88 Q 494.52 358.59 494.17 358.02 L 494.17 359.00 L 493.09 359.00 L 493.09 349.88 L 494.17 349.88 L 494.17 353.44 z" />
        <desc>Segment gc001b_1: sectionAB(O, D, M)</desc>
      </g>
      <g class="segment golden a">
        <path d="M 712.72 329.32 L 609.00 286.91" />
        <path d="M 675.11 289.70 Q 673.81 289.70 673.30 290.00 Q 672.80 290.30 672.80 291.02 Q 672.80 291.59 673.18 291.93 Q 673.56 292.27 674.20 292.27 Q 675.11 292.27 675.65 291.63 Q 676.19 291.00 676.19 289.94 L 676.19 289.70 L 675.11 289.70 z M 677.27 289.25 L 677.27 293.00 L 676.19 293.00 L 676.19 292.00 Q 675.81 292.59 675.27 292.88 Q 674.72 293.17 673.92 293.17 Q 672.91 293.17 672.31 292.60 Q 671.72 292.03 671.72 291.09 Q 671.72 289.98 672.46 289.42 Q 673.20 288.86 674.67 288.86 L 676.19 288.86 L 676.19 288.75 Q 676.19 288.00 675.70 287.59 Q 675.20 287.19 674.33 287.19 Q 673.77 287.19 673.23 287.33 Q 672.69 287.47 672.20 287.73 L 672.20 286.73 Q 672.80 286.50 673.35 286.39 Q 673.91 286.28 674.44 286.28 Q 675.86 286.28 676.56 287.02 Q 677.27 287.75 677.27 289.25 z" />
        <desc>Segment gc001a_2: sectionAB(Q, D, N)</desc>
      </g>
      <g class="segment golden b">
        <path d="M 609.00 286.91 L 752.34 397.95" />
        <path d="M 724.84 354.72 Q 724.84 353.53 724.35 352.86 Q 723.86 352.19 723.02 352.19 Q 722.16 352.19 721.66 352.86 Q 721.17 353.53 721.17 354.72 Q 721.17 355.91 721.66 356.59 Q 722.16 357.27 723.02 357.27 Q 723.86 357.27 724.35 356.59 Q 724.84 355.91 724.84 354.72 z M 721.17 352.44 Q 721.52 351.84 722.03 351.56 Q 722.55 351.28 723.27 351.28 Q 724.47 351.28 725.22 352.23 Q 725.97 353.17 725.97 354.72 Q 725.97 356.27 725.22 357.22 Q 724.47 358.17 723.27 358.17 Q 722.55 358.17 722.03 357.88 Q 721.52 357.59 721.17 357.02 L 721.17 358.00 L 720.09 358.00 L 720.09 348.88 L 721.17 348.88 L 721.17 352.44 z" />
        <desc>Segment gc001b_2: sectionAB(Q, D, N)</desc>
      </g>
      <g class="segment golden c">
        <path d="M 609.00 286.91 L 569.38 577.60" />
        <path d="M 558.11 434.70 Q 556.81 434.70 556.30 435.00 Q 555.80 435.30 555.80 436.02 Q 555.80 436.59 556.18 436.93 Q 556.56 437.27 557.20 437.27 Q 558.11 437.27 558.65 436.63 Q 559.19 436.00 559.19 434.94 L 559.19 434.70 L 558.11 434.70 z M 560.27 434.25 L 560.27 438.00 L 559.19 438.00 L 559.19 437.00 Q 558.81 437.59 558.27 437.88 Q 557.72 438.17 556.92 438.17 Q 555.91 438.17 555.31 437.60 Q 554.72 437.03 554.72 436.09 Q 554.72 434.98 555.46 434.42 Q 556.20 433.86 557.67 433.86 L 559.19 433.86 L 559.19 433.75 Q 559.19 433.00 558.70 432.59 Q 558.20 432.19 557.33 432.19 Q 556.77 432.19 556.23 432.33 Q 555.69 432.47 555.20 432.73 L 555.20 431.73 Q 555.80 431.50 556.35 431.39 Q 556.91 431.28 557.44 431.28 Q 558.86 431.28 559.56 432.02 Q 560.27 432.75 560.27 434.25 z M 566.87 430.47 L 566.87 433.73 L 570.13 433.73 L 570.13 434.73 L 566.87 434.73 L 566.87 438.00 L 565.88 438.00 L 565.88 434.73 L 562.62 434.73 L 562.62 433.73 L 565.88 433.73 L 565.88 430.47 L 566.87 430.47 z M 577.25 434.72 Q 577.25 433.53 576.76 432.86 Q 576.27 432.19 575.42 432.19 Q 574.56 432.19 574.07 432.86 Q 573.58 433.53 573.58 434.72 Q 573.58 435.91 574.07 436.59 Q 574.56 437.27 575.42 437.27 Q 576.27 437.27 576.76 436.59 Q 577.25 435.91 577.25 434.72 z M 573.58 432.44 Q 573.92 431.84 574.44 431.56 Q 574.96 431.28 575.67 431.28 Q 576.88 431.28 577.63 432.23 Q 578.38 433.17 578.38 434.72 Q 578.38 436.27 577.63 437.22 Q 576.88 438.17 575.67 438.17 Q 574.96 438.17 574.44 437.88 Q 573.92 437.59 573.58 437.02 L 573.58 438.00 L 572.50 438.00 L 572.50 428.88 L 573.58 428.88 L 573.58 432.44 z" />
        <desc>Segment gc002b_1: sectionAB(M, D, R)</desc>
      </g>
      <g class="segment golden c">
        <path d="M 609.00 286.91 L 648.62 577.60" />
        <path d="M 645.11 433.70 Q 643.81 433.70 643.30 434.00 Q 642.80 434.30 642.80 435.02 Q 642.80 435.59 643.18 435.93 Q 643.56 436.27 644.20 436.27 Q 645.11 436.27 645.65 435.63 Q 646.19 435.00 646.19 433.94 L 646.19 433.70 L 645.11 433.70 z M 647.27 433.25 L 647.27 437.00 L 646.19 437.00 L 646.19 436.00 Q 645.81 436.59 645.27 436.88 Q 644.72 437.17 643.92 437.17 Q 642.91 437.17 642.31 436.60 Q 641.72 436.03 641.72 435.09 Q 641.72 433.98 642.46 433.42 Q 643.20 432.86 644.67 432.86 L 646.19 432.86 L 646.19 432.75 Q 646.19 432.00 645.70 431.59 Q 645.20 431.19 644.33 431.19 Q 643.77 431.19 643.23 431.33 Q 642.69 431.47 642.20 431.73 L 642.20 430.73 Q 642.80 430.50 643.35 430.39 Q 643.91 430.28 644.44 430.28 Q 645.86 430.28 646.56 431.02 Q 647.27 431.75 647.27 433.25 z M 653.87 429.47 L 653.87 432.73 L 657.13 432.73 L 657.13 433.73 L 653.87 433.73 L 653.87 437.00 L 652.88 437.00 L 652.88 433.73 L 649.62 433.73 L 649.62 432.73 L 652.88 432.73 L 652.88 429.47 L 653.87 429.47 z M 664.25 433.72 Q 664.25 432.53 663.76 431.86 Q 663.27 431.19 662.42 431.19 Q 661.56 431.19 661.07 431.86 Q 660.58 432.53 660.58 433.72 Q 660.58 434.91 661.07 435.59 Q 661.56 436.27 662.42 436.27 Q 663.27 436.27 663.76 435.59 Q 664.25 434.91 664.25 433.72 z M 660.58 431.44 Q 660.92 430.84 661.44 430.56 Q 661.96 430.28 662.67 430.28 Q 663.88 430.28 664.63 431.23 Q 665.38 432.17 665.38 433.72 Q 665.38 435.27 664.63 436.22 Q 663.88 437.17 662.67 437.17 Q 661.96 437.17 661.44 436.88 Q 660.92 436.59 660.58 436.02 L 660.58 437.00 L 659.50 437.00 L 659.50 427.88 L 660.58 427.88 L 660.58 431.44 z" />
        <desc>Segment gc002b_2: sectionAB(N, D, P)</desc>
      </g>
      <g class="point">
        <path d="M 548.89 397.95 C 548.89 400.16 547.10 401.95 544.89 401.95 C 542.69 401.95 540.89 400.16 540.89 397.95 C 540.89 395.74 542.69 393.95 544.89 393.95 C 547.10 393.95 548.89 395.74 548.89 397.95 z" />
        <path d="M 548.89 397.95 C 548.89 400.16 547.10 401.95 544.89 401.95 C 542.69 401.95 540.89 400.16 540.89 397.95 C 540.89 395.74 542.69 393.95 544.89 393.95 C 547.10 393.95 548.89 395.74 548.89 397.95 z" />
        <desc>Point A: Point on xAxis</desc>
      </g>
      <g class="point">
        <path d="M 677.11 397.95 C 677.11 400.16 675.31 401.95 673.11 401.95 C 670.90 401.95 669.11 400.16 669.11 397.95 C 669.11 395.74 670.90 393.95 673.11 393.95 C 675.31 393.95 677.11 395.74 677.11 397.95 z" />
        <path d="M 677.11 397.95 C 677.11 400.16 675.31 401.95 673.11 401.95 C 670.90 401.95 669.11 400.16 669.11 397.95 C 669.11 395.74 670.90 393.95 673.11 393.95 C 675.31 393.95 677.11 395.74 677.11 397.95 z" />
        <desc>Point B: Point on xAxis</desc>
      </g>
      <g class="point golden">
        <path d="M 613.00 286.91 C 613.00 289.12 611.21 290.91 609.00 290.91 C 606.79 290.91 605.00 289.12 605.00 286.91 C 605.00 284.70 606.79 282.91 609.00 282.91 C 611.21 282.91 613.00 284.70 613.00 286.91 z" />
        <path d="M 613.00 286.91 C 613.00 289.12 611.21 290.91 609.00 290.91 C 606.79 290.91 605.00 289.12 605.00 286.91 C 605.00 284.70 606.79 282.91 609.00 282.91 C 611.21 282.91 613.00 284.70 613.00 286.91 z" />
        <desc>Point D: Intersection point of c, d</desc>
      </g>
      <g class="point">
        <path d="M 613.00 508.98 C 613.00 511.19 611.21 512.98 609.00 512.98 C 606.79 512.98 605.00 511.19 605.00 508.98 C 605.00 506.77 606.79 504.98 609.00 504.98 C 611.21 504.98 613.00 506.77 613.00 508.98 z" />
        <path d="M 613.00 508.98 C 613.00 511.19 611.21 512.98 609.00 512.98 C 606.79 512.98 605.00 511.19 605.00 508.98 C 605.00 506.77 606.79 504.98 609.00 504.98 C 611.21 504.98 613.00 506.77 613.00 508.98 z" />
        <desc>Point C: Intersection point of c, d</desc>
      </g>
      <g class="point">
        <path d="M 613.00 397.95 C 613.00 400.16 611.21 401.95 609.00 401.95 C 606.79 401.95 605.00 400.16 605.00 397.95 C 605.00 395.74 606.79 393.95 609.00 393.95 C 611.21 393.95 613.00 395.74 613.00 397.95 z" />
        <path d="M 613.00 397.95 C 613.00 400.16 611.21 401.95 609.00 401.95 C 606.79 401.95 605.00 400.16 605.00 397.95 C 605.00 395.74 606.79 393.95 609.00 393.95 C 611.21 393.95 613.00 395.74 613.00 397.95 z" />
        <desc>Point E: Intersection of a and b</desc>
      </g>
      <g class="point">
        <path d="M 484.79 508.98 C 484.79 511.19 483.00 512.98 480.79 512.98 C 478.58 512.98 476.79 511.19 476.79 508.98 C 476.79 506.77 478.58 504.98 480.79 504.98 C 483.00 504.98 484.79 506.77 484.79 508.98 z" />
        <path d="M 484.79 508.98 C 484.79 511.19 483.00 512.98 480.79 512.98 C 478.58 512.98 476.79 511.19 476.79 508.98 C 476.79 506.77 478.58 504.98 480.79 504.98 C 483.00 504.98 484.79 506.77 484.79 508.98 z" />
        <desc>Point J: Intersection of c and f</desc>
      </g>
      <g class="point">
        <path d="M 741.21 508.98 C 741.21 511.19 739.42 512.98 737.21 512.98 C 735.00 512.98 733.21 511.19 733.21 508.98 C 733.21 506.77 735.00 504.98 737.21 504.98 C 739.42 504.98 741.21 506.77 741.21 508.98 z" />
        <path d="M 741.21 508.98 C 741.21 511.19 739.42 512.98 737.21 512.98 C 735.00 512.98 733.21 511.19 733.21 508.98 C 733.21 506.77 735.00 504.98 737.21 504.98 C 739.42 504.98 741.21 506.77 741.21 508.98 z" />
        <desc>Point K: Intersection of d and g</desc>
      </g>
      <g class="point">
        <path d="M 613.00 434.96 C 613.00 437.17 611.21 438.96 609.00 438.96 C 606.79 438.96 605.00 437.17 605.00 434.96 C 605.00 432.75 606.79 430.96 609.00 430.96 C 611.21 430.96 613.00 432.75 613.00 434.96 z" />
        <path d="M 613.00 434.96 C 613.00 437.17 611.21 438.96 609.00 438.96 C 606.79 438.96 605.00 437.17 605.00 434.96 C 605.00 432.75 606.79 430.96 609.00 430.96 C 611.21 430.96 613.00 432.75 613.00 434.96 z" />
        <desc>Point L: Intersection of l and m</desc>
      </g>
      <g class="point golden">
        <path d="M 469.66 397.95 C 469.66 400.16 467.87 401.95 465.66 401.95 C 463.45 401.95 461.66 400.16 461.66 397.95 C 461.66 395.74 463.45 393.95 465.66 393.95 C 467.87 393.95 469.66 395.74 469.66 397.95 z" />
        <path d="M 469.66 397.95 C 469.66 400.16 467.87 401.95 465.66 401.95 C 463.45 401.95 461.66 400.16 461.66 397.95 C 461.66 395.74 463.45 393.95 465.66 393.95 C 467.87 393.95 469.66 395.74 469.66 397.95 z" />
        <desc>Point M: Intersection point of e, a</desc>
      </g>
      <g class="point golden">
        <path d="M 756.34 397.95 C 756.34 400.16 754.55 401.95 752.34 401.95 C 750.13 401.95 748.34 400.16 748.34 397.95 C 748.34 395.74 750.13 393.95 752.34 393.95 C 754.55 393.95 756.34 395.74 756.34 397.95 z" />
        <path d="M 756.34 397.95 C 756.34 400.16 754.55 401.95 752.34 401.95 C 750.13 401.95 748.34 400.16 748.34 397.95 C 748.34 395.74 750.13 393.95 752.34 393.95 C 754.55 393.95 756.34 395.74 756.34 397.95 z" />
        <desc>Point N: Intersection point of e, a</desc>
      </g>
      <g class="point golden">
        <path d="M 509.28 329.32 C 509.28 331.53 507.48 333.32 505.28 333.32 C 503.07 333.32 501.28 331.53 501.28 329.32 C 501.28 327.12 503.07 325.32 505.28 325.32 C 507.48 325.32 509.28 327.12 509.28 329.32 z" />
        <path d="M 509.28 329.32 C 509.28 331.53 507.48 333.32 505.28 333.32 C 503.07 333.32 501.28 331.53 501.28 329.32 C 501.28 327.12 503.07 325.32 505.28 325.32 C 507.48 325.32 509.28 327.12 509.28 329.32 z" />
        <desc>Point O: Intersection point of e, h</desc>
      </g>
      <g class="point golden">
        <path d="M 652.62 577.60 C 652.62 579.81 650.83 581.60 648.62 581.60 C 646.41 581.60 644.62 579.81 644.62 577.60 C 644.62 575.39 646.41 573.60 648.62 573.60 C 650.83 573.60 652.62 575.39 652.62 577.60 z" />
        <path d="M 652.62 577.60 C 652.62 579.81 650.83 581.60 648.62 581.60 C 646.41 581.60 644.62 579.81 644.62 577.60 C 644.62 575.39 646.41 573.60 648.62 573.60 C 650.83 573.60 652.62 575.39 652.62 577.60 z" />
        <desc>Point P: Intersection point of e, h</desc>
      </g>
      <g class="point golden">
        <path d="M 716.72 329.32 C 716.72 331.53 714.93 333.32 712.72 333.32 C 710.52 333.32 708.72 331.53 708.72 329.32 C 708.72 327.12 710.52 325.32 712.72 325.32 C 714.93 325.32 716.72 327.12 716.72 329.32 z" />
        <path d="M 716.72 329.32 C 716.72 331.53 714.93 333.32 712.72 333.32 C 710.52 333.32 708.72 331.53 708.72 329.32 C 708.72 327.12 710.52 325.32 712.72 325.32 C 714.93 325.32 716.72 327.12 716.72 329.32 z" />
        <desc>Point Q: Intersection point of e, i</desc>
      </g>
      <g class="point golden">
        <path d="M 573.38 577.60 C 573.38 579.81 571.59 581.60 569.38 581.60 C 567.17 581.60 565.38 579.81 565.38 577.60 C 565.38 575.39 567.17 573.60 569.38 573.60 C 571.59 573.60 573.38 575.39 573.38 577.60 z" />
        <path d="M 573.38 577.60 C 573.38 579.81 571.59 581.60 569.38 581.60 C 567.17 581.60 565.38 579.81 565.38 577.60 C 565.38 575.39 567.17 573.60 569.38 573.60 C 571.59 573.60 573.38 575.39 573.38 577.60 z" />
        <desc>Point R: Intersection point of e, i</desc>
      </g>
    </g>
  </g>
</svg>
