<?xml version="1.0" encoding="iso-8859-1" standalone="no"?>
<svg version="1.1" baseProfile="full"
xmlns="http://www.w3.org/2000/svg"
xmlns:xlink="http://www.w3.org/1999/xlink"
xmlns:ev="http://www.w3.org/2001/xml-events" x="0px" y="0px"
width="1218px" height="860px" viewBox="0 0 1218 860">
  <style>
.golden { stroke: #DA0; stroke-opacity: 0.4; fill: #DA0; } 
.selected { stroke: #69C; stroke-opacity: 0.4; fill: #69C; } 
.point { stroke: black; stroke-width: 1.5; fill: white; }
.point > path:nth-child(1) { stroke: black;  fill: none; }
.point > path:nth-child(2) { stroke: black; stroke-width: 1.5;  fill: white; }
.point.golden > path:nth-child(1) { stroke-width: 12;   stroke: #DA0; stroke-opacity: 0.4; fill: #DA0;  }
.point.golden > path:nth-child(2) { stroke: black; stroke-width: 1.5; stroke-opacity: 1; fill: white; }
.point.selected > path:nth-child(1) { stroke-width: 12;   stroke: #69C; stroke-opacity: 0.4; fill: #DA0;  }
.point.selected > path:nth-child(2) { stroke: black; stroke-width: 1.5; stroke-opacity: 1; fill: white; }
.line { stroke: #93C; stroke-width: 1.5; stroke-opacity: 1; stroke-dasharray: 1.5 3;  } 
.line.selected { stroke: #69C; }
.line.highlight { stroke-dasharray: none; stroke-width: 3; }
.circle {fill: none; stroke: #93C; stroke-width: 1.5; stroke-opacity: 1; stroke-dasharray: 1.5 3; }
.polygon { stroke-width: 5; stroke-linejoin: round;  fill: #93C; fill-opacity: .1; } 
.bisector { stroke-dasharray: 1.5, 3, 5, 3; }
.segment {} 
.segment.golden > path:nth-child(2) { stroke: none;  }
.a { stroke-width: 4; } 
.b { stroke-width: 8; } 
.c { stroke-width: 12; } 
.d { stroke-width: 16; } 
#base .circle { stroke: #777; }
#base .line { stroke: #777; }
  </style>
  <g stroke-linejoin="miter" stroke-dashoffset="0.0000"
  stroke-dasharray="none" stroke-width="2.0000"
  stroke-miterlimit="10.000" stroke-linecap="square">
    <g id="base">
      <g class="circle">
        <path d="M 673.11 397.95 C 673.11 468.76 615.70 526.16 544.89 526.16 C 474.09 526.16 416.68 468.76 416.68 397.95 C 416.68 327.14 474.09 269.74 544.89 269.74 C 615.70 269.74 673.11 327.14 673.11 397.95 z" />
        <desc>Circle c: Circle through B with center A</desc>
      </g>
      <g class="circle">
        <path d="M 801.32 397.95 C 801.32 468.76 743.91 526.16 673.11 526.16 C 602.30 526.16 544.89 468.76 544.89 397.95 C 544.89 327.14 602.30 269.74 673.11 269.74 C 743.91 269.74 801.32 327.14 801.32 397.95 z" />
        <desc>Circle d: Circle through A with center B</desc>
      </g>
      <g class="line">
        <path d="M -5.0000 397.95 L 1223.0 397.95" />
        <desc>Line a: Line A, B</desc>
      </g>
    </g>
    <g id="main">
      <g class="line bisector">
        <path d="M 609.00 865.00 L 609.00 -5.0000" />
        <desc>Line b: Line D, C</desc>
      </g>
      <g class="line">
        <path d="M 814.55 865.00 L 312.25 -5.0000" />
        <desc>Line h: Line A, C</desc>
      </g>
      <g class="line">
        <path d="M 403.45 865.00 L 905.75 -5.0000" />
        <desc>Line i: Line B, C</desc>
      </g>
      <g class="line">
        <path d="M -5.0000 286.91 L 1223.0 286.91" />
        <desc>Line k: Line H, I</desc>
      </g>
    </g>
    <g id="layer8">
      <g fill-opacity=".14902" fill-rule="evenodd" stroke="none"
      fill="#93C">
        <path d="M 609.00 286.91 L 480.79 508.98 L 737.21 508.98 z" />
        <desc>Triangle t1: Polygon D, J, K</desc>
      </g>
      <g class="circle">
        <path d="M 757.04 434.96 C 757.04 516.72 690.76 583.00 609.00 583.00 C 527.24 583.00 460.96 516.72 460.96 434.96 C 460.96 353.20 527.24 286.91 609.00 286.91 C 690.76 286.91 757.04 353.20 757.04 434.96 z" />
        <desc>Circle e: Circle through K with center L</desc>
      </g>
      <g class="line">
        <path d="M 275.24 865.00 L 777.54 -5.0000" />
        <desc>Line f: Line A, D</desc>
      </g>
      <g class="line">
        <path d="M 942.76 865.00 L 440.46 -5.0000" />
        <desc>Line g: Line B, D</desc>
      </g>
      <g class="line highlight">
        <path d="M -5.0000 508.98 L 1223.0 508.98" />
        <desc>Line j: Line J, K</desc>
      </g>
      <g class="line bisector">
        <path d="M -5.0000 789.45 L 1223.0 80.465" />
        <desc>Line l: Line J, B</desc>
      </g>
      <g class="line bisector">
        <path d="M -5.0000 80.465 L 1223.0 789.45" />
        <desc>Line m: Line K, A</desc>
      </g>
      <g class="line selected">
        <path d="M -5.0000 537.97 L 1223.0 35.860" />
        <desc>Line n: Line D, O</desc>
      </g>
      <g class="line selected">
        <path d="M -5.0000 762.52 L 985.86 -5.0000" />
        <desc>Line p: Line D, M</desc>
      </g>
      <g class="line selected">
        <path d="M 530.21 865.00 L 648.79 -5.0000" />
        <desc>Line q: Line D, R</desc>
      </g>
      <g class="line selected">
        <path d="M 687.79 865.00 L 569.21 -5.0000" />
        <desc>Line r: Line D, P</desc>
      </g>
      <g class="line selected">
        <path d="M 232.14 -5.0000 L 1223.0 762.52" />
        <desc>Line s: Line D, N</desc>
      </g>
      <g class="line selected">
        <path d="M -5.0000 35.860 L 1223.0 537.97" />
        <desc>Line t: Line D, Q</desc>
      </g>
    </g>
    <g id="layer9">
      <g class="segment golden c">
        <path d="M 480.79 508.98 L 322.31 508.98" />
        <path d="M 400.11 494.70 Q 398.81 494.70 398.30 495.00 Q 397.80 495.30 397.80 496.02 Q 397.80 496.59 398.18 496.93 Q 398.56 497.27 399.20 497.27 Q 400.11 497.27 400.65 496.63 Q 401.19 496.00 401.19 494.94 L 401.19 494.70 L 400.11 494.70 z M 402.27 494.25 L 402.27 498.00 L 401.19 498.00 L 401.19 497.00 Q 400.81 497.59 400.27 497.88 Q 399.72 498.17 398.92 498.17 Q 397.91 498.17 397.31 497.60 Q 396.72 497.03 396.72 496.09 Q 396.72 494.98 397.46 494.42 Q 398.20 493.86 399.67 493.86 L 401.19 493.86 L 401.19 493.75 Q 401.19 493.00 400.70 492.59 Q 400.20 492.19 399.33 492.19 Q 398.77 492.19 398.23 492.33 Q 397.69 492.47 397.20 492.73 L 397.20 491.73 Q 397.80 491.50 398.35 491.39 Q 398.91 491.28 399.44 491.28 Q 400.86 491.28 401.56 492.02 Q 402.27 492.75 402.27 494.25 z M 408.87 490.47 L 408.87 493.73 L 412.13 493.73 L 412.13 494.73 L 408.87 494.73 L 408.87 498.00 L 407.88 498.00 L 407.88 494.73 L 404.62 494.73 L 404.62 493.73 L 407.88 493.73 L 407.88 490.47 L 408.87 490.47 z M 419.25 494.72 Q 419.25 493.53 418.76 492.86 Q 418.27 492.19 417.42 492.19 Q 416.56 492.19 416.07 492.86 Q 415.58 493.53 415.58 494.72 Q 415.58 495.91 416.07 496.59 Q 416.56 497.27 417.42 497.27 Q 418.27 497.27 418.76 496.59 Q 419.25 495.91 419.25 494.72 z M 415.58 492.44 Q 415.92 491.84 416.44 491.56 Q 416.96 491.28 417.67 491.28 Q 418.88 491.28 419.63 492.23 Q 420.38 493.17 420.38 494.72 Q 420.38 496.27 419.63 497.22 Q 418.88 498.17 417.67 498.17 Q 416.96 498.17 416.44 497.88 Q 415.92 497.59 415.58 497.02 L 415.58 498.00 L 414.50 498.00 L 414.50 488.88 L 415.58 488.88 L 415.58 492.44 z" />
        <desc>Segment g001c_1: sectionAB(J, T, S)</desc>
      </g>
      <g class="segment golden d">
        <path d="M 322.31 508.98 L 65.891 508.98" />
        <path d="M 182.11 490.70 Q 180.81 490.70 180.30 491.00 Q 179.80 491.30 179.80 492.02 Q 179.80 492.59 180.18 492.93 Q 180.56 493.27 181.20 493.27 Q 182.11 493.27 182.65 492.63 Q 183.19 492.00 183.19 490.94 L 183.19 490.70 L 182.11 490.70 z M 184.27 490.25 L 184.27 494.00 L 183.19 494.00 L 183.19 493.00 Q 182.81 493.59 182.27 493.88 Q 181.72 494.17 180.92 494.17 Q 179.91 494.17 179.31 493.60 Q 178.72 493.03 178.72 492.09 Q 178.72 490.98 179.46 490.42 Q 180.20 489.86 181.67 489.86 L 183.19 489.86 L 183.19 489.75 Q 183.19 489.00 182.70 488.59 Q 182.20 488.19 181.33 488.19 Q 180.77 488.19 180.23 488.33 Q 179.69 488.47 179.20 488.73 L 179.20 487.73 Q 179.80 487.50 180.35 487.39 Q 180.91 487.28 181.44 487.28 Q 182.86 487.28 183.56 488.02 Q 184.27 488.75 184.27 490.25 z M 190.87 486.47 L 190.87 489.73 L 194.13 489.73 L 194.13 490.73 L 190.87 490.73 L 190.87 494.00 L 189.88 494.00 L 189.88 490.73 L 186.62 490.73 L 186.62 489.73 L 189.88 489.73 L 189.88 486.47 L 190.87 486.47 z M 197.71 493.00 L 201.85 493.00 L 201.85 494.00 L 196.28 494.00 L 196.28 493.00 Q 196.96 492.31 198.12 491.13 Q 199.28 489.95 199.58 489.61 Q 200.16 488.98 200.38 488.54 Q 200.61 488.09 200.61 487.67 Q 200.61 486.97 200.12 486.53 Q 199.63 486.09 198.85 486.09 Q 198.28 486.09 197.67 486.28 Q 197.05 486.47 196.35 486.88 L 196.35 485.67 Q 197.06 485.39 197.68 485.24 Q 198.30 485.09 198.81 485.09 Q 200.17 485.09 200.99 485.77 Q 201.80 486.45 201.80 487.59 Q 201.80 488.12 201.60 488.61 Q 201.39 489.09 200.86 489.75 Q 200.71 489.92 199.92 490.73 Q 199.14 491.55 197.71 493.00 z M 208.89 490.72 Q 208.89 489.53 208.39 488.86 Q 207.90 488.19 207.06 488.19 Q 206.20 488.19 205.71 488.86 Q 205.21 489.53 205.21 490.72 Q 205.21 491.91 205.71 492.59 Q 206.20 493.27 207.06 493.27 Q 207.90 493.27 208.39 492.59 Q 208.89 491.91 208.89 490.72 z M 205.21 488.44 Q 205.56 487.84 206.07 487.56 Q 206.59 487.28 207.31 487.28 Q 208.51 487.28 209.26 488.23 Q 210.01 489.17 210.01 490.72 Q 210.01 492.27 209.26 493.22 Q 208.51 494.17 207.31 494.17 Q 206.59 494.17 206.07 493.88 Q 205.56 493.59 205.21 493.02 L 205.21 494.00 L 204.14 494.00 L 204.14 484.88 L 205.21 484.88 L 205.21 488.44 z" />
        <desc>Segment g001d_1: sectionAB(J, T, S)</desc>
      </g>
      <g class="segment golden c">
        <path d="M 737.21 508.98 L 895.69 508.98" />
        <path d="M 811.11 493.70 Q 809.81 493.70 809.30 494.00 Q 808.80 494.30 808.80 495.02 Q 808.80 495.59 809.18 495.93 Q 809.56 496.27 810.20 496.27 Q 811.11 496.27 811.65 495.63 Q 812.19 495.00 812.19 493.94 L 812.19 493.70 L 811.11 493.70 z M 813.27 493.25 L 813.27 497.00 L 812.19 497.00 L 812.19 496.00 Q 811.81 496.59 811.27 496.88 Q 810.72 497.17 809.92 497.17 Q 808.91 497.17 808.31 496.60 Q 807.72 496.03 807.72 495.09 Q 807.72 493.98 808.46 493.42 Q 809.20 492.86 810.67 492.86 L 812.19 492.86 L 812.19 492.75 Q 812.19 492.00 811.70 491.59 Q 811.20 491.19 810.33 491.19 Q 809.77 491.19 809.23 491.33 Q 808.69 491.47 808.20 491.73 L 808.20 490.73 Q 808.80 490.50 809.35 490.39 Q 809.91 490.28 810.44 490.28 Q 811.86 490.28 812.56 491.02 Q 813.27 491.75 813.27 493.25 z M 819.87 489.47 L 819.87 492.73 L 823.13 492.73 L 823.13 493.73 L 819.87 493.73 L 819.87 497.00 L 818.88 497.00 L 818.88 493.73 L 815.62 493.73 L 815.62 492.73 L 818.88 492.73 L 818.88 489.47 L 819.87 489.47 z M 830.25 493.72 Q 830.25 492.53 829.76 491.86 Q 829.27 491.19 828.42 491.19 Q 827.56 491.19 827.07 491.86 Q 826.58 492.53 826.58 493.72 Q 826.58 494.91 827.07 495.59 Q 827.56 496.27 828.42 496.27 Q 829.27 496.27 829.76 495.59 Q 830.25 494.91 830.25 493.72 z M 826.58 491.44 Q 826.92 490.84 827.44 490.56 Q 827.96 490.28 828.67 490.28 Q 829.88 490.28 830.63 491.23 Q 831.38 492.17 831.38 493.72 Q 831.38 495.27 830.63 496.22 Q 829.88 497.17 828.67 497.17 Q 827.96 497.17 827.44 496.88 Q 826.92 496.59 826.58 496.02 L 826.58 497.00 L 825.50 497.00 L 825.50 487.88 L 826.58 487.88 L 826.58 491.44 z" />
        <desc>Segment g001c_2: sectionAB(K, Z, A_1)</desc>
      </g>
      <g class="segment golden d">
        <path d="M 895.69 508.98 L 1152.1 508.98" />
        <path d="M 1004.1 493.70 Q 1002.8 493.70 1002.3 494.00 Q 1001.8 494.30 1001.8 495.02 Q 1001.8 495.59 1002.2 495.93 Q 1002.6 496.27 1003.2 496.27 Q 1004.1 496.27 1004.6 495.63 Q 1005.2 495.00 1005.2 493.94 L 1005.2 493.70 L 1004.1 493.70 z M 1006.3 493.25 L 1006.3 497.00 L 1005.2 497.00 L 1005.2 496.00 Q 1004.8 496.59 1004.3 496.88 Q 1003.7 497.17 1002.9 497.17 Q 1001.9 497.17 1001.3 496.60 Q 1000.7 496.03 1000.7 495.09 Q 1000.7 493.98 1001.5 493.42 Q 1002.2 492.86 1003.7 492.86 L 1005.2 492.86 L 1005.2 492.75 Q 1005.2 492.00 1004.7 491.59 Q 1004.2 491.19 1003.3 491.19 Q 1002.8 491.19 1002.2 491.33 Q 1001.7 491.47 1001.2 491.73 L 1001.2 490.73 Q 1001.8 490.50 1002.4 490.39 Q 1002.9 490.28 1003.4 490.28 Q 1004.9 490.28 1005.6 491.02 Q 1006.3 491.75 1006.3 493.25 z M 1012.9 489.47 L 1012.9 492.73 L 1016.1 492.73 L 1016.1 493.73 L 1012.9 493.73 L 1012.9 497.00 L 1011.9 497.00 L 1011.9 493.73 L 1008.6 493.73 L 1008.6 492.73 L 1011.9 492.73 L 1011.9 489.47 L 1012.9 489.47 z M 1019.7 496.00 L 1023.8 496.00 L 1023.8 497.00 L 1018.3 497.00 L 1018.3 496.00 Q 1019.0 495.31 1020.1 494.13 Q 1021.3 492.95 1021.6 492.61 Q 1022.2 491.98 1022.4 491.54 Q 1022.6 491.09 1022.6 490.67 Q 1022.6 489.97 1022.1 489.53 Q 1021.6 489.09 1020.8 489.09 Q 1020.3 489.09 1019.7 489.28 Q 1019.0 489.47 1018.3 489.88 L 1018.3 488.67 Q 1019.1 488.39 1019.7 488.24 Q 1020.3 488.09 1020.8 488.09 Q 1022.2 488.09 1023.0 488.77 Q 1023.8 489.45 1023.8 490.59 Q 1023.8 491.12 1023.6 491.61 Q 1023.4 492.09 1022.9 492.75 Q 1022.7 492.92 1021.9 493.73 Q 1021.1 494.55 1019.7 496.00 z M 1030.9 493.72 Q 1030.9 492.53 1030.4 491.86 Q 1029.9 491.19 1029.1 491.19 Q 1028.2 491.19 1027.7 491.86 Q 1027.2 492.53 1027.2 493.72 Q 1027.2 494.91 1027.7 495.59 Q 1028.2 496.27 1029.1 496.27 Q 1029.9 496.27 1030.4 495.59 Q 1030.9 494.91 1030.9 493.72 z M 1027.2 491.44 Q 1027.6 490.84 1028.1 490.56 Q 1028.6 490.28 1029.3 490.28 Q 1030.5 490.28 1031.3 491.23 Q 1032.0 492.17 1032.0 493.72 Q 1032.0 495.27 1031.3 496.22 Q 1030.5 497.17 1029.3 497.17 Q 1028.6 497.17 1028.1 496.88 Q 1027.6 496.59 1027.2 496.02 L 1027.2 497.00 L 1026.1 497.00 L 1026.1 487.88 L 1027.2 487.88 L 1027.2 491.44 z" />
        <desc>Segment g001d_2: sectionAB(K, Z, A_1)</desc>
      </g>
      <g class="segment golden b">
        <path d="M 480.79 508.98 L 578.73 508.98" />
        <path d="M 549.84 494.72 Q 549.84 493.53 549.35 492.86 Q 548.86 492.19 548.02 492.19 Q 547.16 492.19 546.66 492.86 Q 546.17 493.53 546.17 494.72 Q 546.17 495.91 546.66 496.59 Q 547.16 497.27 548.02 497.27 Q 548.86 497.27 549.35 496.59 Q 549.84 495.91 549.84 494.72 z M 546.17 492.44 Q 546.52 491.84 547.03 491.56 Q 547.55 491.28 548.27 491.28 Q 549.47 491.28 550.22 492.23 Q 550.97 493.17 550.97 494.72 Q 550.97 496.27 550.22 497.22 Q 549.47 498.17 548.27 498.17 Q 547.55 498.17 547.03 497.88 Q 546.52 497.59 546.17 497.02 L 546.17 498.00 L 545.09 498.00 L 545.09 488.88 L 546.17 488.88 L 546.17 492.44 z" />
        <desc>Segment g001b_1: sectionBAB(J, U, V, K)</desc>
      </g>
      <g class="segment golden a">
        <path d="M 578.73 508.98 L 639.27 508.98" />
        <path d="M 610.11 493.70 Q 608.81 493.70 608.30 494.00 Q 607.80 494.30 607.80 495.02 Q 607.80 495.59 608.18 495.93 Q 608.56 496.27 609.20 496.27 Q 610.11 496.27 610.65 495.63 Q 611.19 495.00 611.19 493.94 L 611.19 493.70 L 610.11 493.70 z M 612.27 493.25 L 612.27 497.00 L 611.19 497.00 L 611.19 496.00 Q 610.81 496.59 610.27 496.88 Q 609.72 497.17 608.92 497.17 Q 607.91 497.17 607.31 496.60 Q 606.72 496.03 606.72 495.09 Q 606.72 493.98 607.46 493.42 Q 608.20 492.86 609.67 492.86 L 611.19 492.86 L 611.19 492.75 Q 611.19 492.00 610.70 491.59 Q 610.20 491.19 609.33 491.19 Q 608.77 491.19 608.23 491.33 Q 607.69 491.47 607.20 491.73 L 607.20 490.73 Q 607.80 490.50 608.35 490.39 Q 608.91 490.28 609.44 490.28 Q 610.86 490.28 611.56 491.02 Q 612.27 491.75 612.27 493.25 z" />
        <desc>Segment g001a: sectionBAB(J, U, V, K)</desc>
      </g>
      <g class="segment golden b">
        <path d="M 639.27 508.98 L 737.21 508.98" />
        <path d="M 679.84 494.72 Q 679.84 493.53 679.35 492.86 Q 678.86 492.19 678.02 492.19 Q 677.16 492.19 676.66 492.86 Q 676.17 493.53 676.17 494.72 Q 676.17 495.91 676.66 496.59 Q 677.16 497.27 678.02 497.27 Q 678.86 497.27 679.35 496.59 Q 679.84 495.91 679.84 494.72 z M 676.17 492.44 Q 676.52 491.84 677.03 491.56 Q 677.55 491.28 678.27 491.28 Q 679.47 491.28 680.22 492.23 Q 680.97 493.17 680.97 494.72 Q 680.97 496.27 680.22 497.22 Q 679.47 498.17 678.27 498.17 Q 677.55 498.17 677.03 497.88 Q 676.52 497.59 676.17 497.02 L 676.17 498.00 L 675.09 498.00 L 675.09 488.88 L 676.17 488.88 L 676.17 492.44 z" />
        <desc>Segment g001b_2: sectionBAB(J, U, V, K)</desc>
      </g>
      <g class="point">
        <path d="M 548.89 397.95 C 548.89 400.16 547.10 401.95 544.89 401.95 C 542.69 401.95 540.89 400.16 540.89 397.95 C 540.89 395.74 542.69 393.95 544.89 393.95 C 547.10 393.95 548.89 395.74 548.89 397.95 z" />
        <path d="M 548.89 397.95 C 548.89 400.16 547.10 401.95 544.89 401.95 C 542.69 401.95 540.89 400.16 540.89 397.95 C 540.89 395.74 542.69 393.95 544.89 393.95 C 547.10 393.95 548.89 395.74 548.89 397.95 z" />
        <desc>Point A: Point on xAxis</desc>
      </g>
      <g class="point">
        <path d="M 677.11 397.95 C 677.11 400.16 675.31 401.95 673.11 401.95 C 670.90 401.95 669.11 400.16 669.11 397.95 C 669.11 395.74 670.90 393.95 673.11 393.95 C 675.31 393.95 677.11 395.74 677.11 397.95 z" />
        <path d="M 677.11 397.95 C 677.11 400.16 675.31 401.95 673.11 401.95 C 670.90 401.95 669.11 400.16 669.11 397.95 C 669.11 395.74 670.90 393.95 673.11 393.95 C 675.31 393.95 677.11 395.74 677.11 397.95 z" />
        <desc>Point B: Point on xAxis</desc>
      </g>
      <g class="point">
        <path d="M 613.00 286.91 C 613.00 289.12 611.21 290.91 609.00 290.91 C 606.79 290.91 605.00 289.12 605.00 286.91 C 605.00 284.70 606.79 282.91 609.00 282.91 C 611.21 282.91 613.00 284.70 613.00 286.91 z" />
        <path d="M 613.00 286.91 C 613.00 289.12 611.21 290.91 609.00 290.91 C 606.79 290.91 605.00 289.12 605.00 286.91 C 605.00 284.70 606.79 282.91 609.00 282.91 C 611.21 282.91 613.00 284.70 613.00 286.91 z" />
        <desc>Point D: Intersection point of c, d</desc>
      </g>
      <g class="point">
        <path d="M 613.00 508.98 C 613.00 511.19 611.21 512.98 609.00 512.98 C 606.79 512.98 605.00 511.19 605.00 508.98 C 605.00 506.77 606.79 504.98 609.00 504.98 C 611.21 504.98 613.00 506.77 613.00 508.98 z" />
        <path d="M 613.00 508.98 C 613.00 511.19 611.21 512.98 609.00 512.98 C 606.79 512.98 605.00 511.19 605.00 508.98 C 605.00 506.77 606.79 504.98 609.00 504.98 C 611.21 504.98 613.00 506.77 613.00 508.98 z" />
        <desc>Point C: Intersection point of c, d</desc>
      </g>
      <g class="point">
        <path d="M 613.00 397.95 C 613.00 400.16 611.21 401.95 609.00 401.95 C 606.79 401.95 605.00 400.16 605.00 397.95 C 605.00 395.74 606.79 393.95 609.00 393.95 C 611.21 393.95 613.00 395.74 613.00 397.95 z" />
        <path d="M 613.00 397.95 C 613.00 400.16 611.21 401.95 609.00 401.95 C 606.79 401.95 605.00 400.16 605.00 397.95 C 605.00 395.74 606.79 393.95 609.00 393.95 C 611.21 393.95 613.00 395.74 613.00 397.95 z" />
        <desc>Point E: Intersection of a and b</desc>
      </g>
      <g class="point golden">
        <path d="M 484.79 508.98 C 484.79 511.19 483.00 512.98 480.79 512.98 C 478.58 512.98 476.79 511.19 476.79 508.98 C 476.79 506.77 478.58 504.98 480.79 504.98 C 483.00 504.98 484.79 506.77 484.79 508.98 z" />
        <path d="M 484.79 508.98 C 484.79 511.19 483.00 512.98 480.79 512.98 C 478.58 512.98 476.79 511.19 476.79 508.98 C 476.79 506.77 478.58 504.98 480.79 504.98 C 483.00 504.98 484.79 506.77 484.79 508.98 z" />
        <desc>Point J: Intersection of c and f</desc>
      </g>
      <g class="point golden">
        <path d="M 741.21 508.98 C 741.21 511.19 739.42 512.98 737.21 512.98 C 735.00 512.98 733.21 511.19 733.21 508.98 C 733.21 506.77 735.00 504.98 737.21 504.98 C 739.42 504.98 741.21 506.77 741.21 508.98 z" />
        <path d="M 741.21 508.98 C 741.21 511.19 739.42 512.98 737.21 512.98 C 735.00 512.98 733.21 511.19 733.21 508.98 C 733.21 506.77 735.00 504.98 737.21 504.98 C 739.42 504.98 741.21 506.77 741.21 508.98 z" />
        <desc>Point K: Intersection of d and g</desc>
      </g>
      <g class="point">
        <path d="M 613.00 434.96 C 613.00 437.17 611.21 438.96 609.00 438.96 C 606.79 438.96 605.00 437.17 605.00 434.96 C 605.00 432.75 606.79 430.96 609.00 430.96 C 611.21 430.96 613.00 432.75 613.00 434.96 z" />
        <path d="M 613.00 434.96 C 613.00 437.17 611.21 438.96 609.00 438.96 C 606.79 438.96 605.00 437.17 605.00 434.96 C 605.00 432.75 606.79 430.96 609.00 430.96 C 611.21 430.96 613.00 432.75 613.00 434.96 z" />
        <desc>Point L: Intersection of l and m</desc>
      </g>
      <g class="point">
        <path d="M 469.66 397.95 C 469.66 400.16 467.87 401.95 465.66 401.95 C 463.45 401.95 461.66 400.16 461.66 397.95 C 461.66 395.74 463.45 393.95 465.66 393.95 C 467.87 393.95 469.66 395.74 469.66 397.95 z" />
        <path d="M 469.66 397.95 C 469.66 400.16 467.87 401.95 465.66 401.95 C 463.45 401.95 461.66 400.16 461.66 397.95 C 461.66 395.74 463.45 393.95 465.66 393.95 C 467.87 393.95 469.66 395.74 469.66 397.95 z" />
        <desc>Point M: Intersection point of e, a</desc>
      </g>
      <g class="point">
        <path d="M 756.34 397.95 C 756.34 400.16 754.55 401.95 752.34 401.95 C 750.13 401.95 748.34 400.16 748.34 397.95 C 748.34 395.74 750.13 393.95 752.34 393.95 C 754.55 393.95 756.34 395.74 756.34 397.95 z" />
        <path d="M 756.34 397.95 C 756.34 400.16 754.55 401.95 752.34 401.95 C 750.13 401.95 748.34 400.16 748.34 397.95 C 748.34 395.74 750.13 393.95 752.34 393.95 C 754.55 393.95 756.34 395.74 756.34 397.95 z" />
        <desc>Point N: Intersection point of e, a</desc>
      </g>
      <g class="point">
        <path d="M 509.28 329.32 C 509.28 331.53 507.48 333.32 505.28 333.32 C 503.07 333.32 501.28 331.53 501.28 329.32 C 501.28 327.12 503.07 325.32 505.28 325.32 C 507.48 325.32 509.28 327.12 509.28 329.32 z" />
        <path d="M 509.28 329.32 C 509.28 331.53 507.48 333.32 505.28 333.32 C 503.07 333.32 501.28 331.53 501.28 329.32 C 501.28 327.12 503.07 325.32 505.28 325.32 C 507.48 325.32 509.28 327.12 509.28 329.32 z" />
        <desc>Point O: Intersection point of e, h</desc>
      </g>
      <g class="point">
        <path d="M 652.62 577.60 C 652.62 579.81 650.83 581.60 648.62 581.60 C 646.41 581.60 644.62 579.81 644.62 577.60 C 644.62 575.39 646.41 573.60 648.62 573.60 C 650.83 573.60 652.62 575.39 652.62 577.60 z" />
        <path d="M 652.62 577.60 C 652.62 579.81 650.83 581.60 648.62 581.60 C 646.41 581.60 644.62 579.81 644.62 577.60 C 644.62 575.39 646.41 573.60 648.62 573.60 C 650.83 573.60 652.62 575.39 652.62 577.60 z" />
        <desc>Point P: Intersection point of e, h</desc>
      </g>
      <g class="point">
        <path d="M 716.72 329.32 C 716.72 331.53 714.93 333.32 712.72 333.32 C 710.52 333.32 708.72 331.53 708.72 329.32 C 708.72 327.12 710.52 325.32 712.72 325.32 C 714.93 325.32 716.72 327.12 716.72 329.32 z" />
        <path d="M 716.72 329.32 C 716.72 331.53 714.93 333.32 712.72 333.32 C 710.52 333.32 708.72 331.53 708.72 329.32 C 708.72 327.12 710.52 325.32 712.72 325.32 C 714.93 325.32 716.72 327.12 716.72 329.32 z" />
        <desc>Point Q: Intersection point of e, i</desc>
      </g>
      <g class="point">
        <path d="M 573.38 577.60 C 573.38 579.81 571.59 581.60 569.38 581.60 C 567.17 581.60 565.38 579.81 565.38 577.60 C 565.38 575.39 567.17 573.60 569.38 573.60 C 571.59 573.60 573.38 575.39 573.38 577.60 z" />
        <path d="M 573.38 577.60 C 573.38 579.81 571.59 581.60 569.38 581.60 C 567.17 581.60 565.38 579.81 565.38 577.60 C 565.38 575.39 567.17 573.60 569.38 573.60 C 571.59 573.60 573.38 575.39 573.38 577.60 z" />
        <desc>Point R: Intersection point of e, i</desc>
      </g>
      <g class="point golden">
        <path d="M 69.891 508.98 C 69.891 511.19 68.101 512.98 65.891 512.98 C 63.682 512.98 61.891 511.19 61.891 508.98 C 61.891 506.77 63.682 504.98 65.891 504.98 C 68.101 504.98 69.891 506.77 69.891 508.98 z" />
        <path d="M 69.891 508.98 C 69.891 511.19 68.101 512.98 65.891 512.98 C 63.682 512.98 61.891 511.19 61.891 508.98 C 61.891 506.77 63.682 504.98 65.891 504.98 C 68.101 504.98 69.891 506.77 69.891 508.98 z" />
        <desc>Point S: Intersection of j and n</desc>
      </g>
      <g class="point golden">
        <path d="M 326.31 508.98 C 326.31 511.19 324.52 512.98 322.31 512.98 C 320.10 512.98 318.31 511.19 318.31 508.98 C 318.31 506.77 320.10 504.98 322.31 504.98 C 324.52 504.98 326.31 506.77 326.31 508.98 z" />
        <path d="M 326.31 508.98 C 326.31 511.19 324.52 512.98 322.31 512.98 C 320.10 512.98 318.31 511.19 318.31 508.98 C 318.31 506.77 320.10 504.98 322.31 504.98 C 324.52 504.98 326.31 506.77 326.31 508.98 z" />
        <desc>Point T: Intersection of j and p</desc>
      </g>
      <g class="point golden">
        <path d="M 582.73 508.98 C 582.73 511.19 580.94 512.98 578.73 512.98 C 576.52 512.98 574.73 511.19 574.73 508.98 C 574.73 506.77 576.52 504.98 578.73 504.98 C 580.94 504.98 582.73 506.77 582.73 508.98 z" />
        <path d="M 582.73 508.98 C 582.73 511.19 580.94 512.98 578.73 512.98 C 576.52 512.98 574.73 511.19 574.73 508.98 C 574.73 506.77 576.52 504.98 578.73 504.98 C 580.94 504.98 582.73 506.77 582.73 508.98 z" />
        <desc>Point U: Intersection of q and j</desc>
      </g>
      <g class="point golden">
        <path d="M 643.27 508.98 C 643.27 511.19 641.48 512.98 639.27 512.98 C 637.06 512.98 635.27 511.19 635.27 508.98 C 635.27 506.77 637.06 504.98 639.27 504.98 C 641.48 504.98 643.27 506.77 643.27 508.98 z" />
        <path d="M 643.27 508.98 C 643.27 511.19 641.48 512.98 639.27 512.98 C 637.06 512.98 635.27 511.19 635.27 508.98 C 635.27 506.77 637.06 504.98 639.27 504.98 C 641.48 504.98 643.27 506.77 643.27 508.98 z" />
        <desc>Point V: Intersection of r and j</desc>
      </g>
      <g class="point golden">
        <path d="M 899.69 508.98 C 899.69 511.19 897.90 512.98 895.69 512.98 C 893.48 512.98 891.69 511.19 891.69 508.98 C 891.69 506.77 893.48 504.98 895.69 504.98 C 897.90 504.98 899.69 506.77 899.69 508.98 z" />
        <path d="M 899.69 508.98 C 899.69 511.19 897.90 512.98 895.69 512.98 C 893.48 512.98 891.69 511.19 891.69 508.98 C 891.69 506.77 893.48 504.98 895.69 504.98 C 897.90 504.98 899.69 506.77 899.69 508.98 z" />
        <desc>Point Z: Intersection of s and j</desc>
      </g>
      <g class="point golden">
        <path d="M 1156.1 508.98 C 1156.1 511.19 1154.3 512.98 1152.1 512.98 C 1149.9 512.98 1148.1 511.19 1148.1 508.98 C 1148.1 506.77 1149.9 504.98 1152.1 504.98 C 1154.3 504.98 1156.1 506.77 1156.1 508.98 z" />
        <path d="M 1156.1 508.98 C 1156.1 511.19 1154.3 512.98 1152.1 512.98 C 1149.9 512.98 1148.1 511.19 1148.1 508.98 C 1148.1 506.77 1149.9 504.98 1152.1 504.98 C 1154.3 504.98 1156.1 506.77 1156.1 508.98 z" />
        <desc>Point A_1: Intersection of t and j</desc>
      </g>
    </g>
  </g>
</svg>
