<?xml version="1.0" encoding="iso-8859-1" standalone="no"?>
<svg version="1.1" baseProfile="full"
xmlns="http://www.w3.org/2000/svg"
xmlns:xlink="http://www.w3.org/1999/xlink"
xmlns:ev="http://www.w3.org/2001/xml-events" x="0px" y="0px"
width="1218px" height="860px" viewBox="0 0 1218 860">
  <style>
.golden { stroke: #DA0; stroke-opacity: 0.4; fill: #DA0; } 
.selected { stroke: #69C; stroke-opacity: 0.4; fill: #69C; } 
.point { stroke: black; stroke-width: 1.5; fill: white; }
.point > path:nth-child(1) { stroke: black;  fill: none; }
.point > path:nth-child(2) { stroke: black; stroke-width: 1.5;  fill: white; }
.point.golden > path:nth-child(1) { stroke-width: 12;   stroke: #DA0; stroke-opacity: 0.4; fill: #DA0;  }
.point.golden > path:nth-child(2) { stroke: black; stroke-width: 1.5; stroke-opacity: 1; fill: white; }
.point.selected > path:nth-child(1) { stroke-width: 12;   stroke: #69C; stroke-opacity: 0.4; fill: #DA0;  }
.point.selected > path:nth-child(2) { stroke: black; stroke-width: 1.5; stroke-opacity: 1; fill: white; }
.line { stroke: #93C; stroke-width: 1.5; stroke-opacity: 1; stroke-dasharray: 1.5 3;  } 
.line.selected { stroke: #69C; }
.line.highlight { stroke-dasharray: none; stroke-width: 3; }
.circle {fill: none; stroke: #93C; stroke-width: 1.5; stroke-opacity: 1; stroke-dasharray: 1.5 3; }
.polygon { stroke-width: 5; stroke-linejoin: round;  fill: #93C; fill-opacity: .1; } 
.bisector { stroke-dasharray: 1.5, 3, 5, 3; }
.segment {} 
.segment.golden > path:nth-child(2) { stroke: none;  }
.a { stroke-width: 4; } 
.b { stroke-width: 8; } 
.c { stroke-width: 12; } 
.d { stroke-width: 16; } 
#base .circle { stroke: #777; }
#base .line { stroke: #777; }
  </style>
  <g stroke-linejoin="miter" stroke-dashoffset="0.0000"
  stroke-dasharray="none" stroke-width="1.0000"
  stroke-miterlimit="10.000" stroke-linecap="square">
    <g id="layer0"></g>
    <g id="layer1"></g>
    <g id="layer2"></g>
    <g id="layer3"></g>
    <g id="layer4"></g>
    <g id="base">
      <g class="line">
        <path d="M -5.0000 397.95 L 1223.0 397.95" />
        <desc>Line a: Line A, B</desc>
      </g>
      <g class="circle">
        <path d="M 801.32 397.95 C 801.32 468.76 743.91 526.16 673.11 526.16 C 602.30 526.16 544.89 468.76 544.89 397.95 C 544.89 327.14 602.30 269.74 673.11 269.74 C 743.91 269.74 801.32 327.14 801.32 397.95 z" />
        <desc>Circle d: Circle through A with center B</desc>
      </g>
      <g class="circle">
        <path d="M 673.11 397.95 C 673.11 468.76 615.70 526.16 544.89 526.16 C 474.09 526.16 416.68 468.76 416.68 397.95 C 416.68 327.14 474.09 269.74 544.89 269.74 C 615.70 269.74 673.11 327.14 673.11 397.95 z" />
        <desc>Circle c: Circle through B with center A</desc>
      </g>
    </g>
    <g id="layer6">
      <g class="circle">
        <path d="M 757.04 434.96 C 757.04 516.72 690.76 583.00 609.00 583.00 C 527.24 583.00 460.96 516.72 460.96 434.96 C 460.96 353.20 527.24 286.91 609.00 286.91 C 690.76 286.91 757.04 353.20 757.04 434.96 z" />
        <desc>Circle e: Circle through K with center L</desc>
      </g>
      <g class="line">
        <path d="M -5.0000 286.91 L 1223.0 286.91" />
        <desc>Line k: Line H, I</desc>
      </g>
      <g class="line highlight">
        <path d="M 403.45 865.00 L 905.75 -5.0000" />
        <desc>Line i: Line B, C</desc>
      </g>
      <g class="line">
        <path d="M 814.55 865.00 L 312.25 -5.0000" />
        <desc>Line h: Line A, C</desc>
      </g>
      <g class="line bisector">
        <path d="M 609.00 865.00 L 609.00 -5.0000" />
        <desc>Line b: Line D, C</desc>
      </g>
      <g class="line">
        <path d="M 275.24 865.00 L 777.54 -5.0000" />
        <desc>Line f: Line A, D</desc>
      </g>
      <g class="line">
        <path d="M 942.76 865.00 L 440.46 -5.0000" />
        <desc>Line g: Line B, D</desc>
      </g>
      <g class="line">
        <path d="M -5.0000 508.98 L 1223.0 508.98" />
        <desc>Line j: Line J, K</desc>
      </g>
      <g class="line bisector">
        <path d="M -5.0000 789.45 L 1223.0 80.465" />
        <desc>Line l: Line J, B</desc>
      </g>
      <g class="line bisector">
        <path d="M -5.0000 80.465 L 1223.0 789.45" />
        <desc>Line m: Line K, A</desc>
      </g>
      <g class="line selected">
        <path d="M -5.0000 537.97 L 1223.0 35.860" />
        <desc>Line n: Line D, O</desc>
      </g>
      <g class="line selected">
        <path d="M -5.0000 762.52 L 985.86 -5.0000" />
        <desc>Line p: Line D, M</desc>
      </g>
      <g class="line selected">
        <path d="M 530.21 865.00 L 648.79 -5.0000" />
        <desc>Line q: Line D, R</desc>
      </g>
      <g class="line selected">
        <path d="M 687.79 865.00 L 569.21 -5.0000" />
        <desc>Line r: Line D, P</desc>
      </g>
      <g class="line selected">
        <path d="M 232.14 -5.0000 L 1223.0 762.52" />
        <desc>Line s: Line D, N</desc>
      </g>
      <g class="line selected">
        <path d="M -5.0000 35.860 L 1223.0 537.97" />
        <desc>Line t: Line D, Q</desc>
      </g>
    </g>
    <g id="layer7">
      <g fill-opacity=".14902" fill-rule="evenodd" stroke="none"
      fill="#93C">
        <path d="M 609.00 286.91 L 480.79 508.98 L 737.21 508.98 z" />
        <desc>Triangle t1: Polygon D, J, K</desc>
      </g>
    </g>
    <g id="layer8">
      <g class="segment golden c">
        <path d="M 673.11 397.95 L 633.49 466.57" />
        <path d="M 672.11 451.70 Q 670.81 451.70 670.30 452.00 Q 669.80 452.30 669.80 453.02 Q 669.80 453.59 670.18 453.93 Q 670.56 454.27 671.20 454.27 Q 672.11 454.27 672.65 453.63 Q 673.19 453.00 673.19 451.94 L 673.19 451.70 L 672.11 451.70 z M 674.27 451.25 L 674.27 455.00 L 673.19 455.00 L 673.19 454.00 Q 672.81 454.59 672.27 454.88 Q 671.72 455.17 670.92 455.17 Q 669.91 455.17 669.31 454.60 Q 668.72 454.03 668.72 453.09 Q 668.72 451.98 669.46 451.42 Q 670.20 450.86 671.67 450.86 L 673.19 450.86 L 673.19 450.75 Q 673.19 450.00 672.70 449.59 Q 672.20 449.19 671.33 449.19 Q 670.77 449.19 670.23 449.33 Q 669.69 449.47 669.20 449.73 L 669.20 448.73 Q 669.80 448.50 670.35 448.39 Q 670.91 448.28 671.44 448.28 Q 672.86 448.28 673.56 449.02 Q 674.27 449.75 674.27 451.25 z M 680.87 447.47 L 680.87 450.73 L 684.13 450.73 L 684.13 451.73 L 680.87 451.73 L 680.87 455.00 L 679.88 455.00 L 679.88 451.73 L 676.62 451.73 L 676.62 450.73 L 679.88 450.73 L 679.88 447.47 L 680.87 447.47 z M 691.25 451.72 Q 691.25 450.53 690.76 449.86 Q 690.27 449.19 689.42 449.19 Q 688.56 449.19 688.07 449.86 Q 687.58 450.53 687.58 451.72 Q 687.58 452.91 688.07 453.59 Q 688.56 454.27 689.42 454.27 Q 690.27 454.27 690.76 453.59 Q 691.25 452.91 691.25 451.72 z M 687.58 449.44 Q 687.92 448.84 688.44 448.56 Q 688.96 448.28 689.67 448.28 Q 690.88 448.28 691.63 449.23 Q 692.38 450.17 692.38 451.72 Q 692.38 453.27 691.63 454.22 Q 690.88 455.17 689.67 455.17 Q 688.96 455.17 688.44 454.88 Q 687.92 454.59 687.58 454.02 L 687.58 455.00 L 686.50 455.00 L 686.50 445.88 L 687.58 445.88 L 687.58 449.44 z" />
        <desc>Segment g002c_1: sectionAB(B, D_1, R)</desc>
      </g>
      <g class="segment golden d">
        <path d="M 633.49 466.57 L 569.38 577.60" />
        <path d="M 616.11 539.70 Q 614.81 539.70 614.30 540.00 Q 613.80 540.30 613.80 541.02 Q 613.80 541.59 614.18 541.93 Q 614.56 542.27 615.20 542.27 Q 616.11 542.27 616.65 541.63 Q 617.19 541.00 617.19 539.94 L 617.19 539.70 L 616.11 539.70 z M 618.27 539.25 L 618.27 543.00 L 617.19 543.00 L 617.19 542.00 Q 616.81 542.59 616.27 542.88 Q 615.72 543.17 614.92 543.17 Q 613.91 543.17 613.31 542.60 Q 612.72 542.03 612.72 541.09 Q 612.72 539.98 613.46 539.42 Q 614.20 538.86 615.67 538.86 L 617.19 538.86 L 617.19 538.75 Q 617.19 538.00 616.70 537.59 Q 616.20 537.19 615.33 537.19 Q 614.77 537.19 614.23 537.33 Q 613.69 537.47 613.20 537.73 L 613.20 536.73 Q 613.80 536.50 614.35 536.39 Q 614.91 536.28 615.44 536.28 Q 616.86 536.28 617.56 537.02 Q 618.27 537.75 618.27 539.25 z M 624.87 535.47 L 624.87 538.73 L 628.13 538.73 L 628.13 539.73 L 624.87 539.73 L 624.87 543.00 L 623.88 543.00 L 623.88 539.73 L 620.62 539.73 L 620.62 538.73 L 623.88 538.73 L 623.88 535.47 L 624.87 535.47 z M 631.71 542.00 L 635.85 542.00 L 635.85 543.00 L 630.28 543.00 L 630.28 542.00 Q 630.96 541.31 632.12 540.13 Q 633.28 538.95 633.58 538.61 Q 634.16 537.98 634.38 537.54 Q 634.61 537.09 634.61 536.67 Q 634.61 535.97 634.12 535.53 Q 633.63 535.09 632.85 535.09 Q 632.28 535.09 631.67 535.28 Q 631.05 535.47 630.35 535.88 L 630.35 534.67 Q 631.06 534.39 631.68 534.24 Q 632.30 534.09 632.81 534.09 Q 634.17 534.09 634.99 534.77 Q 635.80 535.45 635.80 536.59 Q 635.80 537.12 635.60 537.61 Q 635.39 538.09 634.86 538.75 Q 634.71 538.92 633.92 539.73 Q 633.14 540.55 631.71 542.00 z M 642.89 539.72 Q 642.89 538.53 642.39 537.86 Q 641.90 537.19 641.06 537.19 Q 640.20 537.19 639.71 537.86 Q 639.21 538.53 639.21 539.72 Q 639.21 540.91 639.71 541.59 Q 640.20 542.27 641.06 542.27 Q 641.90 542.27 642.39 541.59 Q 642.89 540.91 642.89 539.72 z M 639.21 537.44 Q 639.56 536.84 640.07 536.56 Q 640.59 536.28 641.31 536.28 Q 642.51 536.28 643.26 537.23 Q 644.01 538.17 644.01 539.72 Q 644.01 541.27 643.26 542.22 Q 642.51 543.17 641.31 543.17 Q 640.59 543.17 640.07 542.88 Q 639.56 542.59 639.21 542.02 L 639.21 543.00 L 638.14 543.00 L 638.14 533.88 L 639.21 533.88 L 639.21 537.44 z" />
        <desc>Segment g002d_1: sectionAB(B, D_1, R)</desc>
      </g>
      <g class="segment golden c">
        <path d="M 737.21 286.91 L 776.83 218.29" />
        <path d="M 774.11 256.70 Q 772.81 256.70 772.30 257.00 Q 771.80 257.30 771.80 258.02 Q 771.80 258.59 772.18 258.93 Q 772.56 259.27 773.20 259.27 Q 774.11 259.27 774.65 258.63 Q 775.19 258.00 775.19 256.94 L 775.19 256.70 L 774.11 256.70 z M 776.27 256.25 L 776.27 260.00 L 775.19 260.00 L 775.19 259.00 Q 774.81 259.59 774.27 259.88 Q 773.72 260.17 772.92 260.17 Q 771.91 260.17 771.31 259.60 Q 770.72 259.03 770.72 258.09 Q 770.72 256.98 771.46 256.42 Q 772.20 255.86 773.67 255.86 L 775.19 255.86 L 775.19 255.75 Q 775.19 255.00 774.70 254.59 Q 774.20 254.19 773.33 254.19 Q 772.77 254.19 772.23 254.33 Q 771.69 254.47 771.20 254.73 L 771.20 253.73 Q 771.80 253.50 772.35 253.39 Q 772.91 253.28 773.44 253.28 Q 774.86 253.28 775.56 254.02 Q 776.27 254.75 776.27 256.25 z M 782.87 252.47 L 782.87 255.73 L 786.13 255.73 L 786.13 256.73 L 782.87 256.73 L 782.87 260.00 L 781.88 260.00 L 781.88 256.73 L 778.62 256.73 L 778.62 255.73 L 781.88 255.73 L 781.88 252.47 L 782.87 252.47 z M 793.25 256.72 Q 793.25 255.53 792.76 254.86 Q 792.27 254.19 791.42 254.19 Q 790.56 254.19 790.07 254.86 Q 789.58 255.53 789.58 256.72 Q 789.58 257.91 790.07 258.59 Q 790.56 259.27 791.42 259.27 Q 792.27 259.27 792.76 258.59 Q 793.25 257.91 793.25 256.72 z M 789.58 254.44 Q 789.92 253.84 790.44 253.56 Q 790.96 253.28 791.67 253.28 Q 792.88 253.28 793.63 254.23 Q 794.38 255.17 794.38 256.72 Q 794.38 258.27 793.63 259.22 Q 792.88 260.17 791.67 260.17 Q 790.96 260.17 790.44 259.88 Q 789.92 259.59 789.58 259.02 L 789.58 260.00 L 788.50 260.00 L 788.50 250.88 L 789.58 250.88 L 789.58 254.44 z" />
        <desc>Segment g002c_2: sectionAB(I, B_1, W)</desc>
      </g>
      <g class="segment golden d">
        <path d="M 776.83 218.29 L 840.94 107.26" />
        <path d="M 826.11 166.70 Q 824.81 166.70 824.30 167.00 Q 823.80 167.30 823.80 168.02 Q 823.80 168.59 824.18 168.93 Q 824.56 169.27 825.20 169.27 Q 826.11 169.27 826.65 168.63 Q 827.19 168.00 827.19 166.94 L 827.19 166.70 L 826.11 166.70 z M 828.27 166.25 L 828.27 170.00 L 827.19 170.00 L 827.19 169.00 Q 826.81 169.59 826.27 169.88 Q 825.72 170.17 824.92 170.17 Q 823.91 170.17 823.31 169.60 Q 822.72 169.03 822.72 168.09 Q 822.72 166.98 823.46 166.42 Q 824.20 165.86 825.67 165.86 L 827.19 165.86 L 827.19 165.75 Q 827.19 165.00 826.70 164.59 Q 826.20 164.19 825.33 164.19 Q 824.77 164.19 824.23 164.33 Q 823.69 164.47 823.20 164.73 L 823.20 163.73 Q 823.80 163.50 824.35 163.39 Q 824.91 163.28 825.44 163.28 Q 826.86 163.28 827.56 164.02 Q 828.27 164.75 828.27 166.25 z M 834.87 162.47 L 834.87 165.73 L 838.13 165.73 L 838.13 166.73 L 834.87 166.73 L 834.87 170.00 L 833.88 170.00 L 833.88 166.73 L 830.62 166.73 L 830.62 165.73 L 833.88 165.73 L 833.88 162.47 L 834.87 162.47 z M 841.71 169.00 L 845.85 169.00 L 845.85 170.00 L 840.28 170.00 L 840.28 169.00 Q 840.96 168.31 842.12 167.13 Q 843.28 165.95 843.58 165.61 Q 844.16 164.98 844.38 164.54 Q 844.61 164.09 844.61 163.67 Q 844.61 162.97 844.12 162.53 Q 843.63 162.09 842.85 162.09 Q 842.28 162.09 841.67 162.28 Q 841.05 162.47 840.35 162.88 L 840.35 161.67 Q 841.06 161.39 841.68 161.24 Q 842.30 161.09 842.81 161.09 Q 844.17 161.09 844.99 161.77 Q 845.80 162.45 845.80 163.59 Q 845.80 164.12 845.60 164.61 Q 845.39 165.09 844.86 165.75 Q 844.71 165.92 843.92 166.73 Q 843.14 167.55 841.71 169.00 z M 852.89 166.72 Q 852.89 165.53 852.39 164.86 Q 851.90 164.19 851.06 164.19 Q 850.20 164.19 849.71 164.86 Q 849.21 165.53 849.21 166.72 Q 849.21 167.91 849.71 168.59 Q 850.20 169.27 851.06 169.27 Q 851.90 169.27 852.39 168.59 Q 852.89 167.91 852.89 166.72 z M 849.21 164.44 Q 849.56 163.84 850.07 163.56 Q 850.59 163.28 851.31 163.28 Q 852.51 163.28 853.26 164.23 Q 854.01 165.17 854.01 166.72 Q 854.01 168.27 853.26 169.22 Q 852.51 170.17 851.31 170.17 Q 850.59 170.17 850.07 169.88 Q 849.56 169.59 849.21 169.02 L 849.21 170.00 L 848.14 170.00 L 848.14 160.88 L 849.21 160.88 L 849.21 164.44 z" />
        <desc>Segment g002d_2: sectionAB(I, B_1, W)</desc>
      </g>
      <g class="segment golden b">
        <path d="M 673.11 397.95 L 697.59 355.54" />
        <path d="M 706.84 383.72 Q 706.84 382.53 706.35 381.86 Q 705.86 381.19 705.02 381.19 Q 704.16 381.19 703.66 381.86 Q 703.17 382.53 703.17 383.72 Q 703.17 384.91 703.66 385.59 Q 704.16 386.27 705.02 386.27 Q 705.86 386.27 706.35 385.59 Q 706.84 384.91 706.84 383.72 z M 703.17 381.44 Q 703.52 380.84 704.03 380.56 Q 704.55 380.28 705.27 380.28 Q 706.47 380.28 707.22 381.23 Q 707.97 382.17 707.97 383.72 Q 707.97 385.27 707.22 386.22 Q 706.47 387.17 705.27 387.17 Q 704.55 387.17 704.03 386.88 Q 703.52 386.59 703.17 386.02 L 703.17 387.00 L 702.09 387.00 L 702.09 377.88 L 703.17 377.88 L 703.17 381.44 z" />
        <desc>Segment g002b_1: sectionBAB(B, C_1, Q, I)</desc>
      </g>
      <g class="segment golden a">
        <path d="M 697.59 355.54 L 712.72 329.32" />
        <path d="M 721.11 354.70 Q 719.81 354.70 719.30 355.00 Q 718.80 355.30 718.80 356.02 Q 718.80 356.59 719.18 356.93 Q 719.56 357.27 720.20 357.27 Q 721.11 357.27 721.65 356.63 Q 722.19 356.00 722.19 354.94 L 722.19 354.70 L 721.11 354.70 z M 723.27 354.25 L 723.27 358.00 L 722.19 358.00 L 722.19 357.00 Q 721.81 357.59 721.27 357.88 Q 720.72 358.17 719.92 358.17 Q 718.91 358.17 718.31 357.60 Q 717.72 357.03 717.72 356.09 Q 717.72 354.98 718.46 354.42 Q 719.20 353.86 720.67 353.86 L 722.19 353.86 L 722.19 353.75 Q 722.19 353.00 721.70 352.59 Q 721.20 352.19 720.33 352.19 Q 719.77 352.19 719.23 352.33 Q 718.69 352.47 718.20 352.73 L 718.20 351.73 Q 718.80 351.50 719.35 351.39 Q 719.91 351.28 720.44 351.28 Q 721.86 351.28 722.56 352.02 Q 723.27 352.75 723.27 354.25 z" />
        <desc>Segment g002a: sectionBAB(B, C_1, Q, I)</desc>
      </g>
      <g class="segment golden b">
        <path d="M 712.72 329.32 L 737.21 286.91" />
        <path d="M 743.84 317.72 Q 743.84 316.53 743.35 315.86 Q 742.86 315.19 742.02 315.19 Q 741.16 315.19 740.66 315.86 Q 740.17 316.53 740.17 317.72 Q 740.17 318.91 740.66 319.59 Q 741.16 320.27 742.02 320.27 Q 742.86 320.27 743.35 319.59 Q 743.84 318.91 743.84 317.72 z M 740.17 315.44 Q 740.52 314.84 741.03 314.56 Q 741.55 314.28 742.27 314.28 Q 743.47 314.28 744.22 315.23 Q 744.97 316.17 744.97 317.72 Q 744.97 319.27 744.22 320.22 Q 743.47 321.17 742.27 321.17 Q 741.55 321.17 741.03 320.88 Q 740.52 320.59 740.17 320.02 L 740.17 321.00 L 739.09 321.00 L 739.09 311.88 L 740.17 311.88 L 740.17 315.44 z" />
        <desc>Segment g002b_2: sectionBAB(B, C_1, Q, I)</desc>
      </g>
    </g>
    <g id="layer9">
      <g class="point golden">
        <path d="M 844.94 107.26 C 844.94 109.47 843.14 111.26 840.94 111.26 C 838.73 111.26 836.94 109.47 836.94 107.26 C 836.94 105.05 838.73 103.26 840.94 103.26 C 843.14 103.26 844.94 105.05 844.94 107.26 z" />
        <path d="M 844.94 107.26 C 844.94 109.47 843.14 111.26 840.94 111.26 C 838.73 111.26 836.94 109.47 836.94 107.26 C 836.94 105.05 838.73 103.26 840.94 103.26 C 843.14 103.26 844.94 105.05 844.94 107.26 z" />
        <desc>Point W: Intersection of i and p</desc>
      </g>
      <g class="point golden">
        <path d="M 780.83 218.29 C 780.83 220.50 779.04 222.29 776.83 222.29 C 774.62 222.29 772.83 220.50 772.83 218.29 C 772.83 216.08 774.62 214.29 776.83 214.29 C 779.04 214.29 780.83 216.08 780.83 218.29 z" />
        <path d="M 780.83 218.29 C 780.83 220.50 779.04 222.29 776.83 222.29 C 774.62 222.29 772.83 220.50 772.83 218.29 C 772.83 216.08 774.62 214.29 776.83 214.29 C 779.04 214.29 780.83 216.08 780.83 218.29 z" />
        <desc>Point B_1: Intersection of i and n</desc>
      </g>
      <g class="point">
        <path d="M 548.89 397.95 C 548.89 400.16 547.10 401.95 544.89 401.95 C 542.69 401.95 540.89 400.16 540.89 397.95 C 540.89 395.74 542.69 393.95 544.89 393.95 C 547.10 393.95 548.89 395.74 548.89 397.95 z" />
        <path d="M 548.89 397.95 C 548.89 400.16 547.10 401.95 544.89 401.95 C 542.69 401.95 540.89 400.16 540.89 397.95 C 540.89 395.74 542.69 393.95 544.89 393.95 C 547.10 393.95 548.89 395.74 548.89 397.95 z" />
        <desc>Point A: Point on xAxis</desc>
      </g>
      <g class="point golden">
        <path d="M 677.11 397.95 C 677.11 400.16 675.31 401.95 673.11 401.95 C 670.90 401.95 669.11 400.16 669.11 397.95 C 669.11 395.74 670.90 393.95 673.11 393.95 C 675.31 393.95 677.11 395.74 677.11 397.95 z" />
        <path d="M 677.11 397.95 C 677.11 400.16 675.31 401.95 673.11 401.95 C 670.90 401.95 669.11 400.16 669.11 397.95 C 669.11 395.74 670.90 393.95 673.11 393.95 C 675.31 393.95 677.11 395.74 677.11 397.95 z" />
        <desc>Point B: Point on xAxis</desc>
      </g>
      <g class="point">
        <path d="M 613.00 286.91 C 613.00 289.12 611.21 290.91 609.00 290.91 C 606.79 290.91 605.00 289.12 605.00 286.91 C 605.00 284.70 606.79 282.91 609.00 282.91 C 611.21 282.91 613.00 284.70 613.00 286.91 z" />
        <path d="M 613.00 286.91 C 613.00 289.12 611.21 290.91 609.00 290.91 C 606.79 290.91 605.00 289.12 605.00 286.91 C 605.00 284.70 606.79 282.91 609.00 282.91 C 611.21 282.91 613.00 284.70 613.00 286.91 z" />
        <desc>Point D: Intersection point of c, d</desc>
      </g>
      <g class="point">
        <path d="M 613.00 508.98 C 613.00 511.19 611.21 512.98 609.00 512.98 C 606.79 512.98 605.00 511.19 605.00 508.98 C 605.00 506.77 606.79 504.98 609.00 504.98 C 611.21 504.98 613.00 506.77 613.00 508.98 z" />
        <path d="M 613.00 508.98 C 613.00 511.19 611.21 512.98 609.00 512.98 C 606.79 512.98 605.00 511.19 605.00 508.98 C 605.00 506.77 606.79 504.98 609.00 504.98 C 611.21 504.98 613.00 506.77 613.00 508.98 z" />
        <desc>Point C: Intersection point of c, d</desc>
      </g>
      <g class="point">
        <path d="M 613.00 397.95 C 613.00 400.16 611.21 401.95 609.00 401.95 C 606.79 401.95 605.00 400.16 605.00 397.95 C 605.00 395.74 606.79 393.95 609.00 393.95 C 611.21 393.95 613.00 395.74 613.00 397.95 z" />
        <path d="M 613.00 397.95 C 613.00 400.16 611.21 401.95 609.00 401.95 C 606.79 401.95 605.00 400.16 605.00 397.95 C 605.00 395.74 606.79 393.95 609.00 393.95 C 611.21 393.95 613.00 395.74 613.00 397.95 z" />
        <desc>Point E: Intersection of a and b</desc>
      </g>
      <g class="point golden">
        <path d="M 741.21 286.91 C 741.21 289.12 739.42 290.91 737.21 290.91 C 735.00 290.91 733.21 289.12 733.21 286.91 C 733.21 284.70 735.00 282.91 737.21 282.91 C 739.42 282.91 741.21 284.70 741.21 286.91 z" />
        <path d="M 741.21 286.91 C 741.21 289.12 739.42 290.91 737.21 290.91 C 735.00 290.91 733.21 289.12 733.21 286.91 C 733.21 284.70 735.00 282.91 737.21 282.91 C 739.42 282.91 741.21 284.70 741.21 286.91 z" />
        <desc>Point I: Intersection of d and i</desc>
      </g>
      <g class="point">
        <path d="M 484.79 508.98 C 484.79 511.19 483.00 512.98 480.79 512.98 C 478.58 512.98 476.79 511.19 476.79 508.98 C 476.79 506.77 478.58 504.98 480.79 504.98 C 483.00 504.98 484.79 506.77 484.79 508.98 z" />
        <path d="M 484.79 508.98 C 484.79 511.19 483.00 512.98 480.79 512.98 C 478.58 512.98 476.79 511.19 476.79 508.98 C 476.79 506.77 478.58 504.98 480.79 504.98 C 483.00 504.98 484.79 506.77 484.79 508.98 z" />
        <desc>Point J: Intersection of c and f</desc>
      </g>
      <g class="point">
        <path d="M 741.21 508.98 C 741.21 511.19 739.42 512.98 737.21 512.98 C 735.00 512.98 733.21 511.19 733.21 508.98 C 733.21 506.77 735.00 504.98 737.21 504.98 C 739.42 504.98 741.21 506.77 741.21 508.98 z" />
        <path d="M 741.21 508.98 C 741.21 511.19 739.42 512.98 737.21 512.98 C 735.00 512.98 733.21 511.19 733.21 508.98 C 733.21 506.77 735.00 504.98 737.21 504.98 C 739.42 504.98 741.21 506.77 741.21 508.98 z" />
        <desc>Point K: Intersection of d and g</desc>
      </g>
      <g class="point">
        <path d="M 613.00 434.96 C 613.00 437.17 611.21 438.96 609.00 438.96 C 606.79 438.96 605.00 437.17 605.00 434.96 C 605.00 432.75 606.79 430.96 609.00 430.96 C 611.21 430.96 613.00 432.75 613.00 434.96 z" />
        <path d="M 613.00 434.96 C 613.00 437.17 611.21 438.96 609.00 438.96 C 606.79 438.96 605.00 437.17 605.00 434.96 C 605.00 432.75 606.79 430.96 609.00 430.96 C 611.21 430.96 613.00 432.75 613.00 434.96 z" />
        <desc>Point L: Intersection of l and m</desc>
      </g>
      <g class="point">
        <path d="M 469.66 397.95 C 469.66 400.16 467.87 401.95 465.66 401.95 C 463.45 401.95 461.66 400.16 461.66 397.95 C 461.66 395.74 463.45 393.95 465.66 393.95 C 467.87 393.95 469.66 395.74 469.66 397.95 z" />
        <path d="M 469.66 397.95 C 469.66 400.16 467.87 401.95 465.66 401.95 C 463.45 401.95 461.66 400.16 461.66 397.95 C 461.66 395.74 463.45 393.95 465.66 393.95 C 467.87 393.95 469.66 395.74 469.66 397.95 z" />
        <desc>Point M: Intersection point of e, a</desc>
      </g>
      <g class="point">
        <path d="M 756.34 397.95 C 756.34 400.16 754.55 401.95 752.34 401.95 C 750.13 401.95 748.34 400.16 748.34 397.95 C 748.34 395.74 750.13 393.95 752.34 393.95 C 754.55 393.95 756.34 395.74 756.34 397.95 z" />
        <path d="M 756.34 397.95 C 756.34 400.16 754.55 401.95 752.34 401.95 C 750.13 401.95 748.34 400.16 748.34 397.95 C 748.34 395.74 750.13 393.95 752.34 393.95 C 754.55 393.95 756.34 395.74 756.34 397.95 z" />
        <desc>Point N: Intersection point of e, a</desc>
      </g>
      <g class="point">
        <path d="M 509.28 329.32 C 509.28 331.53 507.48 333.32 505.28 333.32 C 503.07 333.32 501.28 331.53 501.28 329.32 C 501.28 327.12 503.07 325.32 505.28 325.32 C 507.48 325.32 509.28 327.12 509.28 329.32 z" />
        <path d="M 509.28 329.32 C 509.28 331.53 507.48 333.32 505.28 333.32 C 503.07 333.32 501.28 331.53 501.28 329.32 C 501.28 327.12 503.07 325.32 505.28 325.32 C 507.48 325.32 509.28 327.12 509.28 329.32 z" />
        <desc>Point O: Intersection point of e, h</desc>
      </g>
      <g class="point">
        <path d="M 652.62 577.60 C 652.62 579.81 650.83 581.60 648.62 581.60 C 646.41 581.60 644.62 579.81 644.62 577.60 C 644.62 575.39 646.41 573.60 648.62 573.60 C 650.83 573.60 652.62 575.39 652.62 577.60 z" />
        <path d="M 652.62 577.60 C 652.62 579.81 650.83 581.60 648.62 581.60 C 646.41 581.60 644.62 579.81 644.62 577.60 C 644.62 575.39 646.41 573.60 648.62 573.60 C 650.83 573.60 652.62 575.39 652.62 577.60 z" />
        <desc>Point P: Intersection point of e, h</desc>
      </g>
      <g class="point golden">
        <path d="M 716.72 329.32 C 716.72 331.53 714.93 333.32 712.72 333.32 C 710.52 333.32 708.72 331.53 708.72 329.32 C 708.72 327.12 710.52 325.32 712.72 325.32 C 714.93 325.32 716.72 327.12 716.72 329.32 z" />
        <path d="M 716.72 329.32 C 716.72 331.53 714.93 333.32 712.72 333.32 C 710.52 333.32 708.72 331.53 708.72 329.32 C 708.72 327.12 710.52 325.32 712.72 325.32 C 714.93 325.32 716.72 327.12 716.72 329.32 z" />
        <desc>Point Q: Intersection point of e, i</desc>
      </g>
      <g class="point golden">
        <path d="M 573.38 577.60 C 573.38 579.81 571.59 581.60 569.38 581.60 C 567.17 581.60 565.38 579.81 565.38 577.60 C 565.38 575.39 567.17 573.60 569.38 573.60 C 571.59 573.60 573.38 575.39 573.38 577.60 z" />
        <path d="M 573.38 577.60 C 573.38 579.81 571.59 581.60 569.38 581.60 C 567.17 581.60 565.38 579.81 565.38 577.60 C 565.38 575.39 567.17 573.60 569.38 573.60 C 571.59 573.60 573.38 575.39 573.38 577.60 z" />
        <desc>Point R: Intersection point of e, i</desc>
      </g>
      <g class="point">
        <path d="M 69.891 508.98 C 69.891 511.19 68.101 512.98 65.891 512.98 C 63.682 512.98 61.891 511.19 61.891 508.98 C 61.891 506.77 63.682 504.98 65.891 504.98 C 68.101 504.98 69.891 506.77 69.891 508.98 z" />
        <path d="M 69.891 508.98 C 69.891 511.19 68.101 512.98 65.891 512.98 C 63.682 512.98 61.891 511.19 61.891 508.98 C 61.891 506.77 63.682 504.98 65.891 504.98 C 68.101 504.98 69.891 506.77 69.891 508.98 z" />
        <desc>Point S: Intersection of j and n</desc>
      </g>
      <g class="point">
        <path d="M 326.31 508.98 C 326.31 511.19 324.52 512.98 322.31 512.98 C 320.10 512.98 318.31 511.19 318.31 508.98 C 318.31 506.77 320.10 504.98 322.31 504.98 C 324.52 504.98 326.31 506.77 326.31 508.98 z" />
        <path d="M 326.31 508.98 C 326.31 511.19 324.52 512.98 322.31 512.98 C 320.10 512.98 318.31 511.19 318.31 508.98 C 318.31 506.77 320.10 504.98 322.31 504.98 C 324.52 504.98 326.31 506.77 326.31 508.98 z" />
        <desc>Point T: Intersection of j and p</desc>
      </g>
      <g class="point">
        <path d="M 582.73 508.98 C 582.73 511.19 580.94 512.98 578.73 512.98 C 576.52 512.98 574.73 511.19 574.73 508.98 C 574.73 506.77 576.52 504.98 578.73 504.98 C 580.94 504.98 582.73 506.77 582.73 508.98 z" />
        <path d="M 582.73 508.98 C 582.73 511.19 580.94 512.98 578.73 512.98 C 576.52 512.98 574.73 511.19 574.73 508.98 C 574.73 506.77 576.52 504.98 578.73 504.98 C 580.94 504.98 582.73 506.77 582.73 508.98 z" />
        <desc>Point U: Intersection of q and j</desc>
      </g>
      <g class="point">
        <path d="M 643.27 508.98 C 643.27 511.19 641.48 512.98 639.27 512.98 C 637.06 512.98 635.27 511.19 635.27 508.98 C 635.27 506.77 637.06 504.98 639.27 504.98 C 641.48 504.98 643.27 506.77 643.27 508.98 z" />
        <path d="M 643.27 508.98 C 643.27 511.19 641.48 512.98 639.27 512.98 C 637.06 512.98 635.27 511.19 635.27 508.98 C 635.27 506.77 637.06 504.98 639.27 504.98 C 641.48 504.98 643.27 506.77 643.27 508.98 z" />
        <desc>Point V: Intersection of r and j</desc>
      </g>
      <g class="point">
        <path d="M 899.69 508.98 C 899.69 511.19 897.90 512.98 895.69 512.98 C 893.48 512.98 891.69 511.19 891.69 508.98 C 891.69 506.77 893.48 504.98 895.69 504.98 C 897.90 504.98 899.69 506.77 899.69 508.98 z" />
        <path d="M 899.69 508.98 C 899.69 511.19 897.90 512.98 895.69 512.98 C 893.48 512.98 891.69 511.19 891.69 508.98 C 891.69 506.77 893.48 504.98 895.69 504.98 C 897.90 504.98 899.69 506.77 899.69 508.98 z" />
        <desc>Point Z: Intersection of s and j</desc>
      </g>
      <g class="point">
        <path d="M 1156.1 508.98 C 1156.1 511.19 1154.3 512.98 1152.1 512.98 C 1149.9 512.98 1148.1 511.19 1148.1 508.98 C 1148.1 506.77 1149.9 504.98 1152.1 504.98 C 1154.3 504.98 1156.1 506.77 1156.1 508.98 z" />
        <path d="M 1156.1 508.98 C 1156.1 511.19 1154.3 512.98 1152.1 512.98 C 1149.9 512.98 1148.1 511.19 1148.1 508.98 C 1148.1 506.77 1149.9 504.98 1152.1 504.98 C 1154.3 504.98 1156.1 506.77 1156.1 508.98 z" />
        <desc>Point A_1: Intersection of t and j</desc>
      </g>
      <g class="point golden">
        <path d="M 701.59 355.54 C 701.59 357.75 699.80 359.54 697.59 359.54 C 695.38 359.54 693.59 357.75 693.59 355.54 C 693.59 353.33 695.38 351.54 697.59 351.54 C 699.80 351.54 701.59 353.33 701.59 355.54 z" />
        <path d="M 701.59 355.54 C 701.59 357.75 699.80 359.54 697.59 359.54 C 695.38 359.54 693.59 357.75 693.59 355.54 C 693.59 353.33 695.38 351.54 697.59 351.54 C 699.80 351.54 701.59 353.33 701.59 355.54 z" />
        <desc>Point C_1: Intersection of i and s</desc>
      </g>
      <g class="point golden">
        <path d="M 637.49 466.57 C 637.49 468.78 635.70 470.57 633.49 470.57 C 631.28 470.57 629.49 468.78 629.49 466.57 C 629.49 464.36 631.28 462.57 633.49 462.57 C 635.70 462.57 637.49 464.36 637.49 466.57 z" />
        <path d="M 637.49 466.57 C 637.49 468.78 635.70 470.57 633.49 470.57 C 631.28 470.57 629.49 468.78 629.49 466.57 C 629.49 464.36 631.28 462.57 633.49 462.57 C 635.70 462.57 637.49 464.36 637.49 466.57 z" />
        <desc>Point D_1: Intersection of r and i</desc>
      </g>
    </g>
  </g>
</svg>
