<?xml version="1.0" encoding="iso-8859-1" standalone="no"?>
<svg version="1.1" baseProfile="full"
xmlns="http://www.w3.org/2000/svg"
xmlns:xlink="http://www.w3.org/1999/xlink"
xmlns:ev="http://www.w3.org/2001/xml-events" x="0px" y="0px"
width="1218px" height="860px" viewBox="0 0 1218 860">
  <style>
.golden { stroke: #DA0; stroke-opacity: 0.4; fill: #DA0; } 
.selected { stroke: #69C; stroke-opacity: 0.4; fill: #69C; } 
.point { stroke: black; stroke-width: 1.5; fill: white; }
.point > path:nth-child(1) { stroke: black;  fill: none; }
.point > path:nth-child(2) { stroke: black; stroke-width: 1.5;  fill: white; }
.point.golden > path:nth-child(1) { stroke-width: 12;   stroke: #DA0; stroke-opacity: 0.4; fill: #DA0;  }
.point.golden > path:nth-child(2) { stroke: black; stroke-width: 1.5; stroke-opacity: 1; fill: white; }
.point.selected > path:nth-child(1) { stroke-width: 12;   stroke: #69C; stroke-opacity: 0.4; fill: #DA0;  }
.point.selected > path:nth-child(2) { stroke: black; stroke-width: 1.5; stroke-opacity: 1; fill: white; }
.line { stroke: #93C; stroke-width: 1.5; stroke-opacity: 1; stroke-dasharray: 1.5 3;  } 
.line.selected { stroke: #69C; }
.line.highlight { stroke-dasharray: none; stroke-width: 3; }
.circle {fill: none; stroke: #93C; stroke-width: 1.5; stroke-opacity: 1; stroke-dasharray: 1.5 3; }
.polygon { stroke-width: 5; stroke-linejoin: round;  fill: #93C; fill-opacity: .1; } 
.bisector { stroke-dasharray: 1.5, 3, 5, 3; }
.segment {} 
.segment.golden > path:nth-child(2) { stroke: none;  }
.a { stroke-width: 4; } 
.b { stroke-width: 8; } 
.c { stroke-width: 12; } 
.d { stroke-width: 16; } 
#base .circle { stroke: #777; }
#base .line { stroke: #777; }
  </style>
  <g stroke-linejoin="miter" stroke-dashoffset="0.0000"
  stroke-dasharray="none" stroke-width="1.0000"
  stroke-miterlimit="10.000" stroke-linecap="square">
    <g id="misc"></g>
    <g id="base">
      <g class="circle">
        <path d="M 648.29 410.35 C 648.29 453.75 613.11 488.94 569.71 488.94 C 526.31 488.94 491.13 453.75 491.13 410.35 C 491.13 366.96 526.31 331.77 569.71 331.77 C 613.11 331.77 648.29 366.96 648.29 410.35 z" />
        <desc>Circle c: Circle through B with center A</desc>
      </g>
      <g class="circle">
        <path d="M 726.87 410.35 C 726.87 453.75 691.69 488.94 648.29 488.94 C 604.89 488.94 569.71 453.75 569.71 410.35 C 569.71 366.96 604.89 331.77 648.29 331.77 C 691.69 331.77 726.87 366.96 726.87 410.35 z" />
        <desc>Circle d: Circle through A with center B</desc>
      </g>
      <g class="line">
        <path d="M -5.0000 410.35 L 1223.0 410.35" />
        <desc>Line a: Line A, B</desc>
      </g>
    </g>
    <g id="main">
      <g class="line bisector">
        <path d="M 609.00 865.00 L 609.00 -5.0000" />
        <desc>Line b: Line D, C</desc>
      </g>
      <g class="line">
        <path d="M 832.20 865.00 L 329.90 -5.0000" />
        <desc>Line h: Line A, C</desc>
      </g>
      <g class="line">
        <path d="M 385.80 865.00 L 888.10 -5.0000" />
        <desc>Line i: Line B, C</desc>
      </g>
      <g class="line">
        <path d="M -5.0000 342.30 L 1223.0 342.30" />
        <desc>Line k: Line H, I</desc>
      </g>
    </g>
    <g id="layer1"></g>
    <g id="layer2"></g>
    <g id="layer3"></g>
    <g id="layer4"></g>
    <g id="layer5"></g>
    <g id="layer6"></g>
    <g id="layer7"></g>
    <g id="layer8">
      <g fill-opacity=".14902" fill-rule="evenodd" stroke="none"
      fill="#93C">
        <path d="M 609.00 342.30 L 530.42 478.41 L 687.58 478.41 z" />
        <desc>Triangle t1: Polygon D, J, K</desc>
      </g>
      <g class="circle">
        <path d="M 699.74 433.04 C 699.74 483.15 659.11 523.78 609.00 523.78 C 558.89 523.78 518.26 483.15 518.26 433.04 C 518.26 382.93 558.89 342.30 609.00 342.30 C 659.11 342.30 699.74 382.93 699.74 433.04 z" />
        <desc>Circle e: Circle through K with center L</desc>
      </g>
      <g class="line">
        <path d="M 307.22 865.00 L 809.51 -5.0000" />
        <desc>Line f: Line A, D</desc>
      </g>
      <g class="line">
        <path d="M 910.78 865.00 L 408.49 -5.0000" />
        <desc>Line g: Line B, D</desc>
      </g>
      <g class="line">
        <path d="M -5.0000 478.41 L 1223.0 478.41" />
        <desc>Line j: Line J, K</desc>
      </g>
      <g class="line highlight">
        <path d="M -5.0000 787.53 L 1223.0 78.546" />
        <desc>Line l: Line J, B</desc>
      </g>
      <g class="line bisector">
        <path d="M -5.0000 78.546 L 1223.0 787.53" />
        <desc>Line m: Line K, A</desc>
      </g>
      <g class="line selected">
        <path d="M -5.0000 593.36 L 1223.0 91.249" />
        <desc>Line n: Line D, O</desc>
      </g>
      <g class="line selected">
        <path d="M -5.0000 817.90 L 1057.4 -5.0000" />
        <desc>Line p: Line D, M</desc>
      </g>
      <g class="line selected">
        <path d="M 537.76 865.00 L 656.34 -5.0000" />
        <desc>Line q: Line D, R</desc>
      </g>
      <g class="line selected">
        <path d="M 680.24 865.00 L 561.66 -5.0000" />
        <desc>Line r: Line D, P</desc>
      </g>
      <g class="line selected">
        <path d="M 160.64 -5.0000 L 1223.0 817.90" />
        <desc>Line s: Line D, N</desc>
      </g>
      <g class="line selected">
        <path d="M -5.0000 91.249 L 1223.0 593.36" />
        <desc>Line t: Line D, Q</desc>
      </g>
      <g class="point">
        <path d="M 755.15 232.19 C 755.15 234.40 753.36 236.19 751.15 236.19 C 748.94 236.19 747.15 234.40 747.15 232.19 C 747.15 229.98 748.94 228.19 751.15 228.19 C 753.36 228.19 755.15 229.98 755.15 232.19 z" />
        <path d="M 755.15 232.19 C 755.15 234.40 753.36 236.19 751.15 236.19 C 748.94 236.19 747.15 234.40 747.15 232.19 C 747.15 229.98 748.94 228.19 751.15 228.19 C 753.36 228.19 755.15 229.98 755.15 232.19 z" />
        <desc>Point W: Intersection of i and p</desc>
      </g>
      <g class="point">
        <path d="M 715.86 300.24 C 715.86 302.45 714.07 304.24 711.86 304.24 C 709.65 304.24 707.86 302.45 707.86 300.24 C 707.86 298.03 709.65 296.24 711.86 296.24 C 714.07 296.24 715.86 298.03 715.86 300.24 z" />
        <path d="M 715.86 300.24 C 715.86 302.45 714.07 304.24 711.86 304.24 C 709.65 304.24 707.86 302.45 707.86 300.24 C 707.86 298.03 709.65 296.24 711.86 296.24 C 714.07 296.24 715.86 298.03 715.86 300.24 z" />
        <desc>Point B_1: Intersection of i and n</desc>
      </g>
      <g class="point">
        <path d="M 667.30 384.36 C 667.30 386.57 665.51 388.36 663.30 388.36 C 661.09 388.36 659.30 386.57 659.30 384.36 C 659.30 382.15 661.09 380.36 663.30 380.36 C 665.51 380.36 667.30 382.15 667.30 384.36 z" />
        <path d="M 667.30 384.36 C 667.30 386.57 665.51 388.36 663.30 388.36 C 661.09 388.36 659.30 386.57 659.30 384.36 C 659.30 382.15 661.09 380.36 663.30 380.36 C 665.51 380.36 667.30 382.15 667.30 384.36 z" />
        <desc>Point C_1: Intersection of i and s</desc>
      </g>
      <g class="point">
        <path d="M 628.01 452.41 C 628.01 454.62 626.22 456.41 624.01 456.41 C 621.80 456.41 620.01 454.62 620.01 452.41 C 620.01 450.20 621.80 448.41 624.01 448.41 C 626.22 448.41 628.01 450.20 628.01 452.41 z" />
        <path d="M 628.01 452.41 C 628.01 454.62 626.22 456.41 624.01 456.41 C 621.80 456.41 620.01 454.62 620.01 452.41 C 620.01 450.20 621.80 448.41 624.01 448.41 C 626.22 448.41 628.01 450.20 628.01 452.41 z" />
        <desc>Point D_1: Intersection of r and i</desc>
      </g>
      <g class="point">
        <path d="M 599.58 440.79 C 599.58 443.00 597.79 444.79 595.58 444.79 C 593.37 444.79 591.58 443.00 591.58 440.79 C 591.58 438.58 593.37 436.79 595.58 436.79 C 597.79 436.79 599.58 438.58 599.58 440.79 z" />
        <path d="M 599.58 440.79 C 599.58 443.00 597.79 444.79 595.58 444.79 C 593.37 444.79 591.58 443.00 591.58 440.79 C 591.58 438.58 593.37 436.79 595.58 436.79 C 597.79 436.79 599.58 438.58 599.58 440.79 z" />
        <desc>Point E_1: Intersection of q and l</desc>
      </g>
      <g class="point">
        <path d="M 624.46 426.42 C 624.46 428.63 622.67 430.42 620.46 430.42 C 618.26 430.42 616.46 428.63 616.46 426.42 C 616.46 424.21 618.26 422.42 620.46 422.42 C 622.67 422.42 624.46 424.21 624.46 426.42 z" />
        <path d="M 624.46 426.42 C 624.46 428.63 622.67 430.42 620.46 430.42 C 618.26 430.42 616.46 428.63 616.46 426.42 C 616.46 424.21 618.26 422.42 620.46 422.42 C 622.67 422.42 624.46 424.21 624.46 426.42 z" />
        <desc>Point F_1: Intersection of r and l</desc>
      </g>
      <g class="point">
        <path d="M 680.12 394.29 C 680.12 396.50 678.33 398.29 676.12 398.29 C 673.91 398.29 672.12 396.50 672.12 394.29 C 672.12 392.08 673.91 390.29 676.12 390.29 C 678.33 390.29 680.12 392.08 680.12 394.29 z" />
        <path d="M 680.12 394.29 C 680.12 396.50 678.33 398.29 676.12 398.29 C 673.91 398.29 672.12 396.50 672.12 394.29 C 672.12 392.08 673.91 390.29 676.12 390.29 C 678.33 390.29 680.12 392.08 680.12 394.29 z" />
        <desc>Point G_1: Intersection of s and l</desc>
      </g>
      <g class="point">
        <path d="M 705.00 379.92 C 705.00 382.13 703.21 383.92 701.00 383.92 C 698.79 383.92 697.00 382.13 697.00 379.92 C 697.00 377.71 698.79 375.92 701.00 375.92 C 703.21 375.92 705.00 377.71 705.00 379.92 z" />
        <path d="M 705.00 379.92 C 705.00 382.13 703.21 383.92 701.00 383.92 C 698.79 383.92 697.00 382.13 697.00 379.92 C 697.00 377.71 698.79 375.92 701.00 375.92 C 703.21 375.92 705.00 377.71 705.00 379.92 z" />
        <desc>Point H_1: Intersection of t and l</desc>
      </g>
      <g class="point">
        <path d="M 770.16 342.30 C 770.16 344.51 768.37 346.30 766.16 346.30 C 763.95 346.30 762.16 344.51 762.16 342.30 C 762.16 340.09 763.95 338.30 766.16 338.30 C 768.37 338.30 770.16 340.09 770.16 342.30 z" />
        <path d="M 770.16 342.30 C 770.16 344.51 768.37 346.30 766.16 346.30 C 763.95 346.30 762.16 344.51 762.16 342.30 C 762.16 340.09 763.95 338.30 766.16 338.30 C 768.37 338.30 770.16 340.09 770.16 342.30 z" />
        <desc>Point I_1: Intersection of k and l</desc>
      </g>
      <g class="point">
        <path d="M 152.98 698.63 C 152.98 700.84 151.19 702.63 148.98 702.63 C 146.77 702.63 144.98 700.84 144.98 698.63 C 144.98 696.42 146.77 694.63 148.98 694.63 C 151.19 694.63 152.98 696.42 152.98 698.63 z" />
        <path d="M 152.98 698.63 C 152.98 700.84 151.19 702.63 148.98 702.63 C 146.77 702.63 144.98 700.84 144.98 698.63 C 144.98 696.42 146.77 694.63 148.98 694.63 C 151.19 694.63 152.98 696.42 152.98 698.63 z" />
        <desc>Point J_1: Intersection of p and l</desc>
      </g>
      <g class="point">
        <path d="M 1151.6 122.08 C 1151.6 124.29 1149.8 126.08 1147.6 126.08 C 1145.4 126.08 1143.6 124.29 1143.6 122.08 C 1143.6 119.87 1145.4 118.08 1147.6 118.08 C 1149.8 118.08 1151.6 119.87 1151.6 122.08 z" />
        <path d="M 1151.6 122.08 C 1151.6 124.29 1149.8 126.08 1147.6 126.08 C 1145.4 126.08 1143.6 124.29 1143.6 122.08 C 1143.6 119.87 1145.4 118.08 1147.6 118.08 C 1149.8 118.08 1151.6 119.87 1151.6 122.08 z" />
        <desc>Point K_1: Intersection of n and l</desc>
      </g>
    </g>
    <g id="layer9">
      <g class="point">
        <path d="M 573.71 410.35 C 573.71 412.56 571.92 414.35 569.71 414.35 C 567.50 414.35 565.71 412.56 565.71 410.35 C 565.71 408.15 567.50 406.35 569.71 406.35 C 571.92 406.35 573.71 408.15 573.71 410.35 z" />
        <path d="M 573.71 410.35 C 573.71 412.56 571.92 414.35 569.71 414.35 C 567.50 414.35 565.71 412.56 565.71 410.35 C 565.71 408.15 567.50 406.35 569.71 406.35 C 571.92 406.35 573.71 408.15 573.71 410.35 z" />
        <desc>Point A: Point on xAxis</desc>
      </g>
      <g class="point">
        <path d="M 652.29 410.35 C 652.29 412.56 650.50 414.35 648.29 414.35 C 646.08 414.35 644.29 412.56 644.29 410.35 C 644.29 408.15 646.08 406.35 648.29 406.35 C 650.50 406.35 652.29 408.15 652.29 410.35 z" />
        <path d="M 652.29 410.35 C 652.29 412.56 650.50 414.35 648.29 414.35 C 646.08 414.35 644.29 412.56 644.29 410.35 C 644.29 408.15 646.08 406.35 648.29 406.35 C 650.50 406.35 652.29 408.15 652.29 410.35 z" />
        <desc>Point B: Point on xAxis</desc>
      </g>
      <g class="point">
        <path d="M 613.00 342.30 C 613.00 344.51 611.21 346.30 609.00 346.30 C 606.79 346.30 605.00 344.51 605.00 342.30 C 605.00 340.09 606.79 338.30 609.00 338.30 C 611.21 338.30 613.00 340.09 613.00 342.30 z" />
        <path d="M 613.00 342.30 C 613.00 344.51 611.21 346.30 609.00 346.30 C 606.79 346.30 605.00 344.51 605.00 342.30 C 605.00 340.09 606.79 338.30 609.00 338.30 C 611.21 338.30 613.00 340.09 613.00 342.30 z" />
        <desc>Point D: Intersection point of c, d</desc>
      </g>
      <g class="point">
        <path d="M 613.00 478.41 C 613.00 480.62 611.21 482.41 609.00 482.41 C 606.79 482.41 605.00 480.62 605.00 478.41 C 605.00 476.20 606.79 474.41 609.00 474.41 C 611.21 474.41 613.00 476.20 613.00 478.41 z" />
        <path d="M 613.00 478.41 C 613.00 480.62 611.21 482.41 609.00 482.41 C 606.79 482.41 605.00 480.62 605.00 478.41 C 605.00 476.20 606.79 474.41 609.00 474.41 C 611.21 474.41 613.00 476.20 613.00 478.41 z" />
        <desc>Point C: Intersection point of c, d</desc>
      </g>
      <g class="point">
        <path d="M 613.00 410.35 C 613.00 412.56 611.21 414.35 609.00 414.35 C 606.79 414.35 605.00 412.56 605.00 410.35 C 605.00 408.15 606.79 406.35 609.00 406.35 C 611.21 406.35 613.00 408.15 613.00 410.35 z" />
        <path d="M 613.00 410.35 C 613.00 412.56 611.21 414.35 609.00 414.35 C 606.79 414.35 605.00 412.56 605.00 410.35 C 605.00 408.15 606.79 406.35 609.00 406.35 C 611.21 406.35 613.00 408.15 613.00 410.35 z" />
        <desc>Point E: Intersection of a and b</desc>
      </g>
      <g class="point">
        <path d="M 691.58 342.30 C 691.58 344.51 689.79 346.30 687.58 346.30 C 685.37 346.30 683.58 344.51 683.58 342.30 C 683.58 340.09 685.37 338.30 687.58 338.30 C 689.79 338.30 691.58 340.09 691.58 342.30 z" />
        <path d="M 691.58 342.30 C 691.58 344.51 689.79 346.30 687.58 346.30 C 685.37 346.30 683.58 344.51 683.58 342.30 C 683.58 340.09 685.37 338.30 687.58 338.30 C 689.79 338.30 691.58 340.09 691.58 342.30 z" />
        <desc>Point I: Intersection of d and i</desc>
      </g>
      <g class="point">
        <path d="M 534.42 478.41 C 534.42 480.62 532.63 482.41 530.42 482.41 C 528.21 482.41 526.42 480.62 526.42 478.41 C 526.42 476.20 528.21 474.41 530.42 474.41 C 532.63 474.41 534.42 476.20 534.42 478.41 z" />
        <path d="M 534.42 478.41 C 534.42 480.62 532.63 482.41 530.42 482.41 C 528.21 482.41 526.42 480.62 526.42 478.41 C 526.42 476.20 528.21 474.41 530.42 474.41 C 532.63 474.41 534.42 476.20 534.42 478.41 z" />
        <desc>Point J: Intersection of c and f</desc>
      </g>
      <g class="point">
        <path d="M 691.58 478.41 C 691.58 480.62 689.79 482.41 687.58 482.41 C 685.37 482.41 683.58 480.62 683.58 478.41 C 683.58 476.20 685.37 474.41 687.58 474.41 C 689.79 474.41 691.58 476.20 691.58 478.41 z" />
        <path d="M 691.58 478.41 C 691.58 480.62 689.79 482.41 687.58 482.41 C 685.37 482.41 683.58 480.62 683.58 478.41 C 683.58 476.20 685.37 474.41 687.58 474.41 C 689.79 474.41 691.58 476.20 691.58 478.41 z" />
        <desc>Point K: Intersection of d and g</desc>
      </g>
      <g class="point">
        <path d="M 613.00 433.04 C 613.00 435.25 611.21 437.04 609.00 437.04 C 606.79 437.04 605.00 435.25 605.00 433.04 C 605.00 430.83 606.79 429.04 609.00 429.04 C 611.21 429.04 613.00 430.83 613.00 433.04 z" />
        <path d="M 613.00 433.04 C 613.00 435.25 611.21 437.04 609.00 437.04 C 606.79 437.04 605.00 435.25 605.00 433.04 C 605.00 430.83 606.79 429.04 609.00 429.04 C 611.21 429.04 613.00 430.83 613.00 433.04 z" />
        <desc>Point L: Intersection of l and m</desc>
      </g>
      <g class="point">
        <path d="M 525.14 410.35 C 525.14 412.56 523.35 414.35 521.14 414.35 C 518.94 414.35 517.14 412.56 517.14 410.35 C 517.14 408.15 518.94 406.35 521.14 406.35 C 523.35 406.35 525.14 408.15 525.14 410.35 z" />
        <path d="M 525.14 410.35 C 525.14 412.56 523.35 414.35 521.14 414.35 C 518.94 414.35 517.14 412.56 517.14 410.35 C 517.14 408.15 518.94 406.35 521.14 406.35 C 523.35 406.35 525.14 408.15 525.14 410.35 z" />
        <desc>Point M: Intersection point of e, a</desc>
      </g>
      <g class="point">
        <path d="M 700.86 410.35 C 700.86 412.56 699.06 414.35 696.86 414.35 C 694.65 414.35 692.86 412.56 692.86 410.35 C 692.86 408.15 694.65 406.35 696.86 406.35 C 699.06 406.35 700.86 408.15 700.86 410.35 z" />
        <path d="M 700.86 410.35 C 700.86 412.56 699.06 414.35 696.86 414.35 C 694.65 414.35 692.86 412.56 692.86 410.35 C 692.86 408.15 694.65 406.35 696.86 406.35 C 699.06 406.35 700.86 408.15 700.86 410.35 z" />
        <desc>Point N: Intersection point of e, a</desc>
      </g>
      <g class="point">
        <path d="M 549.43 368.30 C 549.43 370.51 547.64 372.30 545.43 372.30 C 543.22 372.30 541.43 370.51 541.43 368.30 C 541.43 366.09 543.22 364.30 545.43 364.30 C 547.64 364.30 549.43 366.09 549.43 368.30 z" />
        <path d="M 549.43 368.30 C 549.43 370.51 547.64 372.30 545.43 372.30 C 543.22 372.30 541.43 370.51 541.43 368.30 C 541.43 366.09 543.22 364.30 545.43 364.30 C 547.64 364.30 549.43 366.09 549.43 368.30 z" />
        <desc>Point O: Intersection point of e, h</desc>
      </g>
      <g class="point">
        <path d="M 637.28 520.47 C 637.28 522.68 635.49 524.47 633.28 524.47 C 631.07 524.47 629.28 522.68 629.28 520.47 C 629.28 518.26 631.07 516.47 633.28 516.47 C 635.49 516.47 637.28 518.26 637.28 520.47 z" />
        <path d="M 637.28 520.47 C 637.28 522.68 635.49 524.47 633.28 524.47 C 631.07 524.47 629.28 522.68 629.28 520.47 C 629.28 518.26 631.07 516.47 633.28 516.47 C 635.49 516.47 637.28 518.26 637.28 520.47 z" />
        <desc>Point P: Intersection point of e, h</desc>
      </g>
      <g class="point">
        <path d="M 676.57 368.30 C 676.57 370.51 674.78 372.30 672.57 372.30 C 670.36 372.30 668.57 370.51 668.57 368.30 C 668.57 366.09 670.36 364.30 672.57 364.30 C 674.78 364.30 676.57 366.09 676.57 368.30 z" />
        <path d="M 676.57 368.30 C 676.57 370.51 674.78 372.30 672.57 372.30 C 670.36 372.30 668.57 370.51 668.57 368.30 C 668.57 366.09 670.36 364.30 672.57 364.30 C 674.78 364.30 676.57 366.09 676.57 368.30 z" />
        <desc>Point Q: Intersection point of e, i</desc>
      </g>
      <g class="point">
        <path d="M 588.72 520.47 C 588.72 522.68 586.93 524.47 584.72 524.47 C 582.51 524.47 580.72 522.68 580.72 520.47 C 580.72 518.26 582.51 516.47 584.72 516.47 C 586.93 516.47 588.72 518.26 588.72 520.47 z" />
        <path d="M 588.72 520.47 C 588.72 522.68 586.93 524.47 584.72 524.47 C 582.51 524.47 580.72 522.68 580.72 520.47 C 580.72 518.26 582.51 516.47 584.72 516.47 C 586.93 516.47 588.72 518.26 588.72 520.47 z" />
        <desc>Point R: Intersection point of e, i</desc>
      </g>
      <g class="point">
        <path d="M 280.13 478.41 C 280.13 480.62 278.34 482.41 276.13 482.41 C 273.92 482.41 272.13 480.62 272.13 478.41 C 272.13 476.20 273.92 474.41 276.13 474.41 C 278.34 474.41 280.13 476.20 280.13 478.41 z" />
        <path d="M 280.13 478.41 C 280.13 480.62 278.34 482.41 276.13 482.41 C 273.92 482.41 272.13 480.62 272.13 478.41 C 272.13 476.20 273.92 474.41 276.13 474.41 C 278.34 474.41 280.13 476.20 280.13 478.41 z" />
        <desc>Point S: Intersection of j and n</desc>
      </g>
      <g class="point">
        <path d="M 437.29 478.41 C 437.29 480.62 435.50 482.41 433.29 482.41 C 431.08 482.41 429.29 480.62 429.29 478.41 C 429.29 476.20 431.08 474.41 433.29 474.41 C 435.50 474.41 437.29 476.20 437.29 478.41 z" />
        <path d="M 437.29 478.41 C 437.29 480.62 435.50 482.41 433.29 482.41 C 431.08 482.41 429.29 480.62 429.29 478.41 C 429.29 476.20 431.08 474.41 433.29 474.41 C 435.50 474.41 437.29 476.20 437.29 478.41 z" />
        <desc>Point T: Intersection of j and p</desc>
      </g>
      <g class="point">
        <path d="M 594.45 478.41 C 594.45 480.62 592.66 482.41 590.45 482.41 C 588.24 482.41 586.45 480.62 586.45 478.41 C 586.45 476.20 588.24 474.41 590.45 474.41 C 592.66 474.41 594.45 476.20 594.45 478.41 z" />
        <path d="M 594.45 478.41 C 594.45 480.62 592.66 482.41 590.45 482.41 C 588.24 482.41 586.45 480.62 586.45 478.41 C 586.45 476.20 588.24 474.41 590.45 474.41 C 592.66 474.41 594.45 476.20 594.45 478.41 z" />
        <desc>Point U: Intersection of q and j</desc>
      </g>
      <g class="point">
        <path d="M 631.55 478.41 C 631.55 480.62 629.76 482.41 627.55 482.41 C 625.34 482.41 623.55 480.62 623.55 478.41 C 623.55 476.20 625.34 474.41 627.55 474.41 C 629.76 474.41 631.55 476.20 631.55 478.41 z" />
        <path d="M 631.55 478.41 C 631.55 480.62 629.76 482.41 627.55 482.41 C 625.34 482.41 623.55 480.62 623.55 478.41 C 623.55 476.20 625.34 474.41 627.55 474.41 C 629.76 474.41 631.55 476.20 631.55 478.41 z" />
        <desc>Point V: Intersection of r and j</desc>
      </g>
      <g class="point">
        <path d="M 788.71 478.41 C 788.71 480.62 786.92 482.41 784.71 482.41 C 782.50 482.41 780.71 480.62 780.71 478.41 C 780.71 476.20 782.50 474.41 784.71 474.41 C 786.92 474.41 788.71 476.20 788.71 478.41 z" />
        <path d="M 788.71 478.41 C 788.71 480.62 786.92 482.41 784.71 482.41 C 782.50 482.41 780.71 480.62 780.71 478.41 C 780.71 476.20 782.50 474.41 784.71 474.41 C 786.92 474.41 788.71 476.20 788.71 478.41 z" />
        <desc>Point Z: Intersection of s and j</desc>
      </g>
      <g class="point">
        <path d="M 945.87 478.41 C 945.87 480.62 944.08 482.41 941.87 482.41 C 939.66 482.41 937.87 480.62 937.87 478.41 C 937.87 476.20 939.66 474.41 941.87 474.41 C 944.08 474.41 945.87 476.20 945.87 478.41 z" />
        <path d="M 945.87 478.41 C 945.87 480.62 944.08 482.41 941.87 482.41 C 939.66 482.41 937.87 480.62 937.87 478.41 C 937.87 476.20 939.66 474.41 941.87 474.41 C 944.08 474.41 945.87 476.20 945.87 478.41 z" />
        <desc>Point A_1: Intersection of t and j</desc>
      </g>
    </g>
  </g>
</svg>
