<?xml version="1.0" encoding="iso-8859-1" standalone="no"?>
<svg version="1.1" baseProfile="full"
xmlns="http://www.w3.org/2000/svg"
xmlns:xlink="http://www.w3.org/1999/xlink"
xmlns:ev="http://www.w3.org/2001/xml-events" x="0px" y="0px"
width="1218px" height="860px" viewBox="0 0 1218 860">
  <style>
.golden { stroke: #DA0; stroke-opacity: 0.4; fill: #DA0; } 
.selected { stroke: #69C; stroke-opacity: 0.4; fill: #69C; } 
.point { stroke: black; stroke-width: 1.5; fill: white; }
.point > path:nth-child(1) { stroke: black;  fill: none; }
.point > path:nth-child(2) { stroke: black; stroke-width: 1.5;  fill: white; }
.point.golden > path:nth-child(1) { stroke-width: 12;   stroke: #DA0; stroke-opacity: 0.4; fill: #DA0;  }
.point.golden > path:nth-child(2) { stroke: black; stroke-width: 1.5; stroke-opacity: 1; fill: white; }
.point.selected > path:nth-child(1) { stroke-width: 12;   stroke: #69C; stroke-opacity: 0.4; fill: #DA0;  }
.point.selected > path:nth-child(2) { stroke: black; stroke-width: 1.5; stroke-opacity: 1; fill: white; }
.line { stroke: #93C; stroke-width: 1.5; stroke-opacity: 1; stroke-dasharray: 1.5 3;  } 
.line.selected { stroke: #69C; }
.line.highlight { stroke-dasharray: none; stroke-width: 3; }
.circle {fill: none; stroke: #93C; stroke-width: 1.5; stroke-opacity: 1; stroke-dasharray: 1.5 3; }
.polygon { stroke-width: 5; stroke-linejoin: round;  fill: #93C; fill-opacity: .1; } 
.bisector { stroke-dasharray: 1.5, 3, 5, 3; }
.segment {} 
.segment.golden > path:nth-child(2) { stroke: none;  }
.a { stroke-width: 4; } 
.b { stroke-width: 8; } 
.c { stroke-width: 12; } 
.d { stroke-width: 16; } 
#base .circle { stroke: #777; }
#base .line { stroke: #777; }
  </style>
  <g stroke-linejoin="miter" stroke-dashoffset="0.0000"
  stroke-dasharray="none" stroke-width="1.0000"
  stroke-miterlimit="10.000" stroke-linecap="square">
    <g id="misc"></g>
    <g id="base">
      <g class="circle">
        <path d="M 673.11 397.95 C 673.11 468.76 615.70 526.16 544.89 526.16 C 474.09 526.16 416.68 468.76 416.68 397.95 C 416.68 327.14 474.09 269.74 544.89 269.74 C 615.70 269.74 673.11 327.14 673.11 397.95 z" />
        <desc>Circle c: Circle through B with center A</desc>
      </g>
      <g class="circle">
        <path d="M 801.32 397.95 C 801.32 468.76 743.91 526.16 673.11 526.16 C 602.30 526.16 544.89 468.76 544.89 397.95 C 544.89 327.14 602.30 269.74 673.11 269.74 C 743.91 269.74 801.32 327.14 801.32 397.95 z" />
        <desc>Circle d: Circle through A with center B</desc>
      </g>
      <g class="line">
        <path d="M -5.0000 397.95 L 1223.0 397.95" />
        <desc>Line a: Line A, B</desc>
      </g>
    </g>
    <g id="main">
      <g class="line bisector">
        <path d="M 609.00 865.00 L 609.00 -5.0000" />
        <desc>Line b: Line D, C</desc>
      </g>
      <g class="line">
        <path d="M 814.55 865.00 L 312.25 -5.0000" />
        <desc>Line h: Line A, C</desc>
      </g>
      <g class="line">
        <path d="M 403.45 865.00 L 905.75 -5.0000" />
        <desc>Line i: Line B, C</desc>
      </g>
      <g class="line">
        <path d="M -5.0000 286.91 L 1223.0 286.91" />
        <desc>Line k: Line H, I</desc>
      </g>
    </g>
    <g id="layer1"></g>
    <g id="layer2"></g>
    <g id="layer3"></g>
    <g id="layer4"></g>
    <g id="layer5"></g>
    <g id="layer6"></g>
    <g id="layer7"></g>
    <g id="layer8">
      <g fill-opacity=".14902" fill-rule="evenodd" stroke="none"
      fill="#93C">
        <path d="M 609.00 286.91 L 480.79 508.98 L 737.21 508.98 z" />
        <desc>Triangle t1: Polygon D, J, K</desc>
      </g>
      <g class="circle">
        <path d="M 757.04 434.96 C 757.04 516.72 690.76 583.00 609.00 583.00 C 527.24 583.00 460.96 516.72 460.96 434.96 C 460.96 353.20 527.24 286.91 609.00 286.91 C 690.76 286.91 757.04 353.20 757.04 434.96 z" />
        <desc>Circle e: Circle through K with center L</desc>
      </g>
      <g class="line">
        <path d="M 275.24 865.00 L 777.54 -5.0000" />
        <desc>Line f: Line A, D</desc>
      </g>
      <g class="line">
        <path d="M 942.76 865.00 L 440.46 -5.0000" />
        <desc>Line g: Line B, D</desc>
      </g>
      <g class="line">
        <path d="M -5.0000 508.98 L 1223.0 508.98" />
        <desc>Line j: Line J, K</desc>
      </g>
      <g class="line bisector">
        <path d="M -5.0000 789.45 L 1223.0 80.465" />
        <desc>Line l: Line J, B</desc>
      </g>
      <g class="line bisector">
        <path d="M -5.0000 80.465 L 1223.0 789.45" />
        <desc>Line m: Line K, A</desc>
      </g>
      <g class="line selected">
        <path d="M -5.0000 537.97 L 1223.0 35.860" />
        <desc>Line n: Line D, O</desc>
      </g>
      <g class="line selected">
        <path d="M -5.0000 762.52 L 985.86 -5.0000" />
        <desc>Line p: Line D, M</desc>
      </g>
      <g class="line selected">
        <path d="M 530.21 865.00 L 648.79 -5.0000" />
        <desc>Line q: Line D, R</desc>
      </g>
      <g class="line selected">
        <path d="M 687.79 865.00 L 569.21 -5.0000" />
        <desc>Line r: Line D, P</desc>
      </g>
      <g class="line selected">
        <path d="M 232.14 -5.0000 L 1223.0 762.52" />
        <desc>Line s: Line D, N</desc>
      </g>
      <g class="line selected">
        <path d="M -5.0000 35.860 L 1223.0 537.97" />
        <desc>Line t: Line D, Q</desc>
      </g>
      <g class="line">
        <path d="M -5.0000 187.60 L 1223.0 528.67" />
        <desc>Line p_1: Line O, N</desc>
      </g>
      <g class="line highlight">
        <path d="M -5.0000 528.67 L 1223.0 187.60" />
        <desc>Line q_1: Line Q, M</desc>
      </g>
      <g class="point">
        <path d="M 844.94 107.26 C 844.94 109.47 843.14 111.26 840.94 111.26 C 838.73 111.26 836.94 109.47 836.94 107.26 C 836.94 105.05 838.73 103.26 840.94 103.26 C 843.14 103.26 844.94 105.05 844.94 107.26 z" />
        <path d="M 844.94 107.26 C 844.94 109.47 843.14 111.26 840.94 111.26 C 838.73 111.26 836.94 109.47 836.94 107.26 C 836.94 105.05 838.73 103.26 840.94 103.26 C 843.14 103.26 844.94 105.05 844.94 107.26 z" />
        <desc>Point W: Intersection of i and p</desc>
      </g>
      <g class="point">
        <path d="M 780.83 218.29 C 780.83 220.50 779.04 222.29 776.83 222.29 C 774.62 222.29 772.83 220.50 772.83 218.29 C 772.83 216.08 774.62 214.29 776.83 214.29 C 779.04 214.29 780.83 216.08 780.83 218.29 z" />
        <path d="M 780.83 218.29 C 780.83 220.50 779.04 222.29 776.83 222.29 C 774.62 222.29 772.83 220.50 772.83 218.29 C 772.83 216.08 774.62 214.29 776.83 214.29 C 779.04 214.29 780.83 216.08 780.83 218.29 z" />
        <desc>Point B_1: Intersection of i and n</desc>
      </g>
      <g class="point">
        <path d="M 701.59 355.54 C 701.59 357.75 699.80 359.54 697.59 359.54 C 695.38 359.54 693.59 357.75 693.59 355.54 C 693.59 353.33 695.38 351.54 697.59 351.54 C 699.80 351.54 701.59 353.33 701.59 355.54 z" />
        <path d="M 701.59 355.54 C 701.59 357.75 699.80 359.54 697.59 359.54 C 695.38 359.54 693.59 357.75 693.59 355.54 C 693.59 353.33 695.38 351.54 697.59 351.54 C 699.80 351.54 701.59 353.33 701.59 355.54 z" />
        <desc>Point C_1: Intersection of i and s</desc>
      </g>
      <g class="point">
        <path d="M 637.49 466.57 C 637.49 468.78 635.70 470.57 633.49 470.57 C 631.28 470.57 629.49 468.78 629.49 466.57 C 629.49 464.36 631.28 462.57 633.49 462.57 C 635.70 462.57 637.49 464.36 637.49 466.57 z" />
        <path d="M 637.49 466.57 C 637.49 468.78 635.70 470.57 633.49 470.57 C 631.28 470.57 629.49 468.78 629.49 466.57 C 629.49 464.36 631.28 462.57 633.49 462.57 C 635.70 462.57 637.49 464.36 637.49 466.57 z" />
        <desc>Point D_1: Intersection of r and i</desc>
      </g>
      <g class="point">
        <path d="M 591.10 447.60 C 591.10 449.81 589.31 451.60 587.10 451.60 C 584.89 451.60 583.10 449.81 583.10 447.60 C 583.10 445.39 584.89 443.60 587.10 443.60 C 589.31 443.60 591.10 445.39 591.10 447.60 z" />
        <path d="M 591.10 447.60 C 591.10 449.81 589.31 451.60 587.10 451.60 C 584.89 451.60 583.10 449.81 583.10 447.60 C 583.10 445.39 584.89 443.60 587.10 443.60 C 589.31 443.60 591.10 445.39 591.10 447.60 z" />
        <desc>Point E_1: Intersection of q and l</desc>
      </g>
      <g class="point">
        <path d="M 631.71 424.16 C 631.71 426.37 629.91 428.16 627.71 428.16 C 625.50 428.16 623.71 426.37 623.71 424.16 C 623.71 421.95 625.50 420.16 627.71 420.16 C 629.91 420.16 631.71 421.95 631.71 424.16 z" />
        <path d="M 631.71 424.16 C 631.71 426.37 629.91 428.16 627.71 428.16 C 625.50 428.16 623.71 426.37 623.71 424.16 C 623.71 421.95 625.50 420.16 627.71 420.16 C 629.91 420.16 631.71 421.95 631.71 424.16 z" />
        <desc>Point F_1: Intersection of r and l</desc>
      </g>
      <g class="point">
        <path d="M 722.50 371.74 C 722.50 373.95 720.71 375.74 718.50 375.74 C 716.30 375.74 714.50 373.95 714.50 371.74 C 714.50 369.53 716.30 367.74 718.50 367.74 C 720.71 367.74 722.50 369.53 722.50 371.74 z" />
        <path d="M 722.50 371.74 C 722.50 373.95 720.71 375.74 718.50 375.74 C 716.30 375.74 714.50 373.95 714.50 371.74 C 714.50 369.53 716.30 367.74 718.50 367.74 C 720.71 367.74 722.50 369.53 722.50 371.74 z" />
        <desc>Point G_1: Intersection of s and l</desc>
      </g>
      <g class="point">
        <path d="M 763.11 348.29 C 763.11 350.50 761.32 352.29 759.11 352.29 C 756.90 352.29 755.11 350.50 755.11 348.29 C 755.11 346.08 756.90 344.29 759.11 344.29 C 761.32 344.29 763.11 346.08 763.11 348.29 z" />
        <path d="M 763.11 348.29 C 763.11 350.50 761.32 352.29 759.11 352.29 C 756.90 352.29 755.11 350.50 755.11 348.29 C 755.11 346.08 756.90 344.29 759.11 344.29 C 761.32 344.29 763.11 346.08 763.11 348.29 z" />
        <desc>Point H_1: Intersection of t and l</desc>
      </g>
      <g class="point golden">
        <path d="M 869.42 286.91 C 869.42 289.12 867.63 290.91 865.42 290.91 C 863.21 290.91 861.42 289.12 861.42 286.91 C 861.42 284.70 863.21 282.91 865.42 282.91 C 867.63 282.91 869.42 284.70 869.42 286.91 z" />
        <path d="M 869.42 286.91 C 869.42 289.12 867.63 290.91 865.42 290.91 C 863.21 290.91 861.42 289.12 861.42 286.91 C 861.42 284.70 863.21 282.91 865.42 282.91 C 867.63 282.91 869.42 284.70 869.42 286.91 z" />
        <desc>Point I_1: Intersection of k and l</desc>
      </g>
    </g>
    <g id="layer9">
      <g class="segment golden c">
        <path d="M 65.891 508.98 L 465.66 397.95" />
        <path d="M 274.11 464.70 Q 272.81 464.70 272.30 465.00 Q 271.80 465.30 271.80 466.02 Q 271.80 466.59 272.18 466.93 Q 272.56 467.27 273.20 467.27 Q 274.11 467.27 274.65 466.63 Q 275.19 466.00 275.19 464.94 L 275.19 464.70 L 274.11 464.70 z M 276.27 464.25 L 276.27 468.00 L 275.19 468.00 L 275.19 467.00 Q 274.81 467.59 274.27 467.88 Q 273.72 468.17 272.92 468.17 Q 271.91 468.17 271.31 467.60 Q 270.72 467.03 270.72 466.09 Q 270.72 464.98 271.46 464.42 Q 272.20 463.86 273.67 463.86 L 275.19 463.86 L 275.19 463.75 Q 275.19 463.00 274.70 462.59 Q 274.20 462.19 273.33 462.19 Q 272.77 462.19 272.23 462.33 Q 271.69 462.47 271.20 462.73 L 271.20 461.73 Q 271.80 461.50 272.35 461.39 Q 272.91 461.28 273.44 461.28 Q 274.86 461.28 275.56 462.02 Q 276.27 462.75 276.27 464.25 z M 282.87 460.47 L 282.87 463.73 L 286.13 463.73 L 286.13 464.73 L 282.87 464.73 L 282.87 468.00 L 281.88 468.00 L 281.88 464.73 L 278.62 464.73 L 278.62 463.73 L 281.88 463.73 L 281.88 460.47 L 282.87 460.47 z M 293.25 464.72 Q 293.25 463.53 292.76 462.86 Q 292.27 462.19 291.42 462.19 Q 290.56 462.19 290.07 462.86 Q 289.58 463.53 289.58 464.72 Q 289.58 465.91 290.07 466.59 Q 290.56 467.27 291.42 467.27 Q 292.27 467.27 292.76 466.59 Q 293.25 465.91 293.25 464.72 z M 289.58 462.44 Q 289.92 461.84 290.44 461.56 Q 290.96 461.28 291.67 461.28 Q 292.88 461.28 293.63 462.23 Q 294.38 463.17 294.38 464.72 Q 294.38 466.27 293.63 467.22 Q 292.88 468.17 291.67 468.17 Q 290.96 468.17 290.44 467.88 Q 289.92 467.59 289.58 467.02 L 289.58 468.00 L 288.50 468.00 L 288.50 458.88 L 289.58 458.88 L 289.58 462.44 z" />
        <desc>Segment g006c: sectionBAB(S, M, Q, I_1)</desc>
      </g>
      <g class="segment golden b">
        <path d="M 465.66 397.95 L 712.72 329.32" />
        <path d="M 585.84 381.72 Q 585.84 380.53 585.35 379.86 Q 584.86 379.19 584.02 379.19 Q 583.16 379.19 582.66 379.86 Q 582.17 380.53 582.17 381.72 Q 582.17 382.91 582.66 383.59 Q 583.16 384.27 584.02 384.27 Q 584.86 384.27 585.35 383.59 Q 585.84 382.91 585.84 381.72 z M 582.17 379.44 Q 582.52 378.84 583.03 378.56 Q 583.55 378.28 584.27 378.28 Q 585.47 378.28 586.22 379.23 Q 586.97 380.17 586.97 381.72 Q 586.97 383.27 586.22 384.22 Q 585.47 385.17 584.27 385.17 Q 583.55 385.17 583.03 384.88 Q 582.52 384.59 582.17 384.02 L 582.17 385.00 L 581.09 385.00 L 581.09 375.88 L 582.17 375.88 L 582.17 379.44 z" />
        <desc>Segment g006b: sectionBAB(S, M, Q, I_1)</desc>
      </g>
      <g class="segment golden a">
        <path d="M 712.72 329.32 L 865.42 286.91" />
        <path d="M 791.11 318.70 Q 789.81 318.70 789.30 319.00 Q 788.80 319.30 788.80 320.02 Q 788.80 320.59 789.18 320.93 Q 789.56 321.27 790.20 321.27 Q 791.11 321.27 791.65 320.63 Q 792.19 320.00 792.19 318.94 L 792.19 318.70 L 791.11 318.70 z M 793.27 318.25 L 793.27 322.00 L 792.19 322.00 L 792.19 321.00 Q 791.81 321.59 791.27 321.88 Q 790.72 322.17 789.92 322.17 Q 788.91 322.17 788.31 321.60 Q 787.72 321.03 787.72 320.09 Q 787.72 318.98 788.46 318.42 Q 789.20 317.86 790.67 317.86 L 792.19 317.86 L 792.19 317.75 Q 792.19 317.00 791.70 316.59 Q 791.20 316.19 790.33 316.19 Q 789.77 316.19 789.23 316.33 Q 788.69 316.47 788.20 316.73 L 788.20 315.73 Q 788.80 315.50 789.35 315.39 Q 789.91 315.28 790.44 315.28 Q 791.86 315.28 792.56 316.02 Q 793.27 316.75 793.27 318.25 z" />
        <desc>Segment g006a: sectionBAB(S, M, Q, I_1)</desc>
      </g>
      <g class="point">
        <path d="M 548.89 397.95 C 548.89 400.16 547.10 401.95 544.89 401.95 C 542.69 401.95 540.89 400.16 540.89 397.95 C 540.89 395.74 542.69 393.95 544.89 393.95 C 547.10 393.95 548.89 395.74 548.89 397.95 z" />
        <path d="M 548.89 397.95 C 548.89 400.16 547.10 401.95 544.89 401.95 C 542.69 401.95 540.89 400.16 540.89 397.95 C 540.89 395.74 542.69 393.95 544.89 393.95 C 547.10 393.95 548.89 395.74 548.89 397.95 z" />
        <desc>Point A: Point on xAxis</desc>
      </g>
      <g class="point">
        <path d="M 677.11 397.95 C 677.11 400.16 675.31 401.95 673.11 401.95 C 670.90 401.95 669.11 400.16 669.11 397.95 C 669.11 395.74 670.90 393.95 673.11 393.95 C 675.31 393.95 677.11 395.74 677.11 397.95 z" />
        <path d="M 677.11 397.95 C 677.11 400.16 675.31 401.95 673.11 401.95 C 670.90 401.95 669.11 400.16 669.11 397.95 C 669.11 395.74 670.90 393.95 673.11 393.95 C 675.31 393.95 677.11 395.74 677.11 397.95 z" />
        <desc>Point B: Point on xAxis</desc>
      </g>
      <g class="point">
        <path d="M 613.00 286.91 C 613.00 289.12 611.21 290.91 609.00 290.91 C 606.79 290.91 605.00 289.12 605.00 286.91 C 605.00 284.70 606.79 282.91 609.00 282.91 C 611.21 282.91 613.00 284.70 613.00 286.91 z" />
        <path d="M 613.00 286.91 C 613.00 289.12 611.21 290.91 609.00 290.91 C 606.79 290.91 605.00 289.12 605.00 286.91 C 605.00 284.70 606.79 282.91 609.00 282.91 C 611.21 282.91 613.00 284.70 613.00 286.91 z" />
        <desc>Point D: Intersection point of c, d</desc>
      </g>
      <g class="point">
        <path d="M 613.00 508.98 C 613.00 511.19 611.21 512.98 609.00 512.98 C 606.79 512.98 605.00 511.19 605.00 508.98 C 605.00 506.77 606.79 504.98 609.00 504.98 C 611.21 504.98 613.00 506.77 613.00 508.98 z" />
        <path d="M 613.00 508.98 C 613.00 511.19 611.21 512.98 609.00 512.98 C 606.79 512.98 605.00 511.19 605.00 508.98 C 605.00 506.77 606.79 504.98 609.00 504.98 C 611.21 504.98 613.00 506.77 613.00 508.98 z" />
        <desc>Point C: Intersection point of c, d</desc>
      </g>
      <g class="point">
        <path d="M 613.00 397.95 C 613.00 400.16 611.21 401.95 609.00 401.95 C 606.79 401.95 605.00 400.16 605.00 397.95 C 605.00 395.74 606.79 393.95 609.00 393.95 C 611.21 393.95 613.00 395.74 613.00 397.95 z" />
        <path d="M 613.00 397.95 C 613.00 400.16 611.21 401.95 609.00 401.95 C 606.79 401.95 605.00 400.16 605.00 397.95 C 605.00 395.74 606.79 393.95 609.00 393.95 C 611.21 393.95 613.00 395.74 613.00 397.95 z" />
        <desc>Point E: Intersection of a and b</desc>
      </g>
      <g class="point">
        <path d="M 741.21 286.91 C 741.21 289.12 739.42 290.91 737.21 290.91 C 735.00 290.91 733.21 289.12 733.21 286.91 C 733.21 284.70 735.00 282.91 737.21 282.91 C 739.42 282.91 741.21 284.70 741.21 286.91 z" />
        <path d="M 741.21 286.91 C 741.21 289.12 739.42 290.91 737.21 290.91 C 735.00 290.91 733.21 289.12 733.21 286.91 C 733.21 284.70 735.00 282.91 737.21 282.91 C 739.42 282.91 741.21 284.70 741.21 286.91 z" />
        <desc>Point I: Intersection of d and i</desc>
      </g>
      <g class="point">
        <path d="M 484.79 508.98 C 484.79 511.19 483.00 512.98 480.79 512.98 C 478.58 512.98 476.79 511.19 476.79 508.98 C 476.79 506.77 478.58 504.98 480.79 504.98 C 483.00 504.98 484.79 506.77 484.79 508.98 z" />
        <path d="M 484.79 508.98 C 484.79 511.19 483.00 512.98 480.79 512.98 C 478.58 512.98 476.79 511.19 476.79 508.98 C 476.79 506.77 478.58 504.98 480.79 504.98 C 483.00 504.98 484.79 506.77 484.79 508.98 z" />
        <desc>Point J: Intersection of c and f</desc>
      </g>
      <g class="point">
        <path d="M 741.21 508.98 C 741.21 511.19 739.42 512.98 737.21 512.98 C 735.00 512.98 733.21 511.19 733.21 508.98 C 733.21 506.77 735.00 504.98 737.21 504.98 C 739.42 504.98 741.21 506.77 741.21 508.98 z" />
        <path d="M 741.21 508.98 C 741.21 511.19 739.42 512.98 737.21 512.98 C 735.00 512.98 733.21 511.19 733.21 508.98 C 733.21 506.77 735.00 504.98 737.21 504.98 C 739.42 504.98 741.21 506.77 741.21 508.98 z" />
        <desc>Point K: Intersection of d and g</desc>
      </g>
      <g class="point">
        <path d="M 613.00 434.96 C 613.00 437.17 611.21 438.96 609.00 438.96 C 606.79 438.96 605.00 437.17 605.00 434.96 C 605.00 432.75 606.79 430.96 609.00 430.96 C 611.21 430.96 613.00 432.75 613.00 434.96 z" />
        <path d="M 613.00 434.96 C 613.00 437.17 611.21 438.96 609.00 438.96 C 606.79 438.96 605.00 437.17 605.00 434.96 C 605.00 432.75 606.79 430.96 609.00 430.96 C 611.21 430.96 613.00 432.75 613.00 434.96 z" />
        <desc>Point L: Intersection of l and m</desc>
      </g>
      <g class="point golden">
        <path d="M 469.66 397.95 C 469.66 400.16 467.87 401.95 465.66 401.95 C 463.45 401.95 461.66 400.16 461.66 397.95 C 461.66 395.74 463.45 393.95 465.66 393.95 C 467.87 393.95 469.66 395.74 469.66 397.95 z" />
        <path d="M 469.66 397.95 C 469.66 400.16 467.87 401.95 465.66 401.95 C 463.45 401.95 461.66 400.16 461.66 397.95 C 461.66 395.74 463.45 393.95 465.66 393.95 C 467.87 393.95 469.66 395.74 469.66 397.95 z" />
        <desc>Point M: Intersection point of e, a</desc>
      </g>
      <g class="point">
        <path d="M 756.34 397.95 C 756.34 400.16 754.55 401.95 752.34 401.95 C 750.13 401.95 748.34 400.16 748.34 397.95 C 748.34 395.74 750.13 393.95 752.34 393.95 C 754.55 393.95 756.34 395.74 756.34 397.95 z" />
        <path d="M 756.34 397.95 C 756.34 400.16 754.55 401.95 752.34 401.95 C 750.13 401.95 748.34 400.16 748.34 397.95 C 748.34 395.74 750.13 393.95 752.34 393.95 C 754.55 393.95 756.34 395.74 756.34 397.95 z" />
        <desc>Point N: Intersection point of e, a</desc>
      </g>
      <g class="point">
        <path d="M 509.28 329.32 C 509.28 331.53 507.48 333.32 505.28 333.32 C 503.07 333.32 501.28 331.53 501.28 329.32 C 501.28 327.12 503.07 325.32 505.28 325.32 C 507.48 325.32 509.28 327.12 509.28 329.32 z" />
        <path d="M 509.28 329.32 C 509.28 331.53 507.48 333.32 505.28 333.32 C 503.07 333.32 501.28 331.53 501.28 329.32 C 501.28 327.12 503.07 325.32 505.28 325.32 C 507.48 325.32 509.28 327.12 509.28 329.32 z" />
        <desc>Point O: Intersection point of e, h</desc>
      </g>
      <g class="point">
        <path d="M 652.62 577.60 C 652.62 579.81 650.83 581.60 648.62 581.60 C 646.41 581.60 644.62 579.81 644.62 577.60 C 644.62 575.39 646.41 573.60 648.62 573.60 C 650.83 573.60 652.62 575.39 652.62 577.60 z" />
        <path d="M 652.62 577.60 C 652.62 579.81 650.83 581.60 648.62 581.60 C 646.41 581.60 644.62 579.81 644.62 577.60 C 644.62 575.39 646.41 573.60 648.62 573.60 C 650.83 573.60 652.62 575.39 652.62 577.60 z" />
        <desc>Point P: Intersection point of e, h</desc>
      </g>
      <g class="point golden">
        <path d="M 716.72 329.32 C 716.72 331.53 714.93 333.32 712.72 333.32 C 710.52 333.32 708.72 331.53 708.72 329.32 C 708.72 327.12 710.52 325.32 712.72 325.32 C 714.93 325.32 716.72 327.12 716.72 329.32 z" />
        <path d="M 716.72 329.32 C 716.72 331.53 714.93 333.32 712.72 333.32 C 710.52 333.32 708.72 331.53 708.72 329.32 C 708.72 327.12 710.52 325.32 712.72 325.32 C 714.93 325.32 716.72 327.12 716.72 329.32 z" />
        <desc>Point Q: Intersection point of e, i</desc>
      </g>
      <g class="point">
        <path d="M 573.38 577.60 C 573.38 579.81 571.59 581.60 569.38 581.60 C 567.17 581.60 565.38 579.81 565.38 577.60 C 565.38 575.39 567.17 573.60 569.38 573.60 C 571.59 573.60 573.38 575.39 573.38 577.60 z" />
        <path d="M 573.38 577.60 C 573.38 579.81 571.59 581.60 569.38 581.60 C 567.17 581.60 565.38 579.81 565.38 577.60 C 565.38 575.39 567.17 573.60 569.38 573.60 C 571.59 573.60 573.38 575.39 573.38 577.60 z" />
        <desc>Point R: Intersection point of e, i</desc>
      </g>
      <g class="point golden">
        <path d="M 69.891 508.98 C 69.891 511.19 68.101 512.98 65.891 512.98 C 63.682 512.98 61.891 511.19 61.891 508.98 C 61.891 506.77 63.682 504.98 65.891 504.98 C 68.101 504.98 69.891 506.77 69.891 508.98 z" />
        <path d="M 69.891 508.98 C 69.891 511.19 68.101 512.98 65.891 512.98 C 63.682 512.98 61.891 511.19 61.891 508.98 C 61.891 506.77 63.682 504.98 65.891 504.98 C 68.101 504.98 69.891 506.77 69.891 508.98 z" />
        <desc>Point S: Intersection of j and n</desc>
      </g>
      <g class="point">
        <path d="M 326.31 508.98 C 326.31 511.19 324.52 512.98 322.31 512.98 C 320.10 512.98 318.31 511.19 318.31 508.98 C 318.31 506.77 320.10 504.98 322.31 504.98 C 324.52 504.98 326.31 506.77 326.31 508.98 z" />
        <path d="M 326.31 508.98 C 326.31 511.19 324.52 512.98 322.31 512.98 C 320.10 512.98 318.31 511.19 318.31 508.98 C 318.31 506.77 320.10 504.98 322.31 504.98 C 324.52 504.98 326.31 506.77 326.31 508.98 z" />
        <desc>Point T: Intersection of j and p</desc>
      </g>
      <g class="point">
        <path d="M 582.73 508.98 C 582.73 511.19 580.94 512.98 578.73 512.98 C 576.52 512.98 574.73 511.19 574.73 508.98 C 574.73 506.77 576.52 504.98 578.73 504.98 C 580.94 504.98 582.73 506.77 582.73 508.98 z" />
        <path d="M 582.73 508.98 C 582.73 511.19 580.94 512.98 578.73 512.98 C 576.52 512.98 574.73 511.19 574.73 508.98 C 574.73 506.77 576.52 504.98 578.73 504.98 C 580.94 504.98 582.73 506.77 582.73 508.98 z" />
        <desc>Point U: Intersection of q and j</desc>
      </g>
      <g class="point">
        <path d="M 643.27 508.98 C 643.27 511.19 641.48 512.98 639.27 512.98 C 637.06 512.98 635.27 511.19 635.27 508.98 C 635.27 506.77 637.06 504.98 639.27 504.98 C 641.48 504.98 643.27 506.77 643.27 508.98 z" />
        <path d="M 643.27 508.98 C 643.27 511.19 641.48 512.98 639.27 512.98 C 637.06 512.98 635.27 511.19 635.27 508.98 C 635.27 506.77 637.06 504.98 639.27 504.98 C 641.48 504.98 643.27 506.77 643.27 508.98 z" />
        <desc>Point V: Intersection of r and j</desc>
      </g>
      <g class="point">
        <path d="M 899.69 508.98 C 899.69 511.19 897.90 512.98 895.69 512.98 C 893.48 512.98 891.69 511.19 891.69 508.98 C 891.69 506.77 893.48 504.98 895.69 504.98 C 897.90 504.98 899.69 506.77 899.69 508.98 z" />
        <path d="M 899.69 508.98 C 899.69 511.19 897.90 512.98 895.69 512.98 C 893.48 512.98 891.69 511.19 891.69 508.98 C 891.69 506.77 893.48 504.98 895.69 504.98 C 897.90 504.98 899.69 506.77 899.69 508.98 z" />
        <desc>Point Z: Intersection of s and j</desc>
      </g>
      <g class="point">
        <path d="M 1156.1 508.98 C 1156.1 511.19 1154.3 512.98 1152.1 512.98 C 1149.9 512.98 1148.1 511.19 1148.1 508.98 C 1148.1 506.77 1149.9 504.98 1152.1 504.98 C 1154.3 504.98 1156.1 506.77 1156.1 508.98 z" />
        <path d="M 1156.1 508.98 C 1156.1 511.19 1154.3 512.98 1152.1 512.98 C 1149.9 512.98 1148.1 511.19 1148.1 508.98 C 1148.1 506.77 1149.9 504.98 1152.1 504.98 C 1154.3 504.98 1156.1 506.77 1156.1 508.98 z" />
        <desc>Point A_1: Intersection of t and j</desc>
      </g>
    </g>
  </g>
</svg>
