<?xml version="1.0" encoding="iso-8859-1" standalone="no"?>
<svg version="1.1" baseProfile="full"
xmlns="http://www.w3.org/2000/svg"
xmlns:xlink="http://www.w3.org/1999/xlink"
xmlns:ev="http://www.w3.org/2001/xml-events"
width="42.968333333333334cm" height="30.33888888888889cm"
viewBox="0 0 1218 860">
  <style>
.golden { stroke: #DA0; stroke-opacity: 0.4; fill: #DA0; } 
.selected { stroke: #69C; stroke-opacity: 0.4; fill: #69C; } 
.point { stroke: black; stroke-width: 1.5; fill: white; }
.point > path:nth-child(1) { stroke: black;  fill: none; }
.point > path:nth-child(2) { stroke: black; stroke-width: 1.5;  fill: white; }
.point.golden > path:nth-child(1) { stroke-width: 12;   stroke: #DA0; stroke-opacity: 0.4; fill: #DA0;  }
.point.golden > path:nth-child(2) { stroke: black; stroke-width: 1.5; stroke-opacity: 1; fill: white; }
.point.selected > path:nth-child(1) { stroke-width: 12;   stroke: #69C; stroke-opacity: 0.4; fill: #DA0;  }
.point.selected > path:nth-child(2) { stroke: black; stroke-width: 1.5; stroke-opacity: 1; fill: white; }
.line { stroke: #93C; stroke-width: 1.5; stroke-opacity: 1; stroke-dasharray: 1.5 3;  } 
.line.selected { stroke: #69C; }
.line.highlight { stroke-dasharray: none; stroke-width: 3; }
.circle {fill: none; stroke: #93C; stroke-width: 1.5; stroke-opacity: 1; stroke-dasharray: 1.5 3; }
.polygon { stroke-width: 5; stroke-linejoin: round;  fill: #93C; fill-opacity: .1; } 
.bisector { stroke-dasharray: 1.5, 3, 5, 3; }
.segment {} 
.segment.golden > path:nth-child(2) { stroke: none;  }
.a { stroke-width: 4; } 
.b { stroke-width: 8; } 
.c { stroke-width: 12; } 
.d { stroke-width: 16; } 
#base .circle { stroke: #777; }
#base .line { stroke: #777; }
  </style>
  <g stroke-linejoin="miter" stroke-dashoffset="0.0000"
  stroke-dasharray="none" stroke-width="1.0000"
  stroke-miterlimit="10.000" stroke-linecap="square">
    <g id="misc"></g>
    <g id="base">
      <g class="circle">
        <path d="M 525.09 529.43 C 525.09 579.00 484.91 619.19 435.33 619.19 C 385.76 619.19 345.57 579.00 345.57 529.43 C 345.57 479.86 385.76 439.67 435.33 439.67 C 484.91 439.67 525.09 479.86 525.09 529.43 z" />
        <desc>Circle c: Circle through B with center A</desc>
      </g>
      <g class="circle">
        <path d="M 614.85 529.43 C 614.85 579.00 574.66 619.19 525.09 619.19 C 475.52 619.19 435.33 579.00 435.33 529.43 C 435.33 479.86 475.52 439.67 525.09 439.67 C 574.66 439.67 614.85 479.86 614.85 529.43 z" />
        <desc>Circle d: Circle through A with center B</desc>
      </g>
      <g class="line">
        <path d="M -5.0000 529.43 L 1223.0 529.43" />
        <desc>Line a: Line A, B</desc>
      </g>
    </g>
    <g id="main">
      <g class="line bisector">
        <path d="M 480.21 865.00 L 480.21 -5.0000" />
        <desc>Line b: Line D, C</desc>
      </g>
      <g class="line">
        <path d="M 629.07 865.00 L 126.78 -5.0000" />
        <desc>Line h: Line A, C</desc>
      </g>
      <g class="line">
        <path d="M 331.35 865.00 L 833.65 -5.0000" />
        <desc>Line i: Line B, C</desc>
      </g>
      <g class="line">
        <path d="M -5.0000 451.70 L 1223.0 451.70" />
        <desc>Line k: Line H, I</desc>
      </g>
    </g>
    <g id="layer1"></g>
    <g id="layer2"></g>
    <g id="layer3"></g>
    <g id="layer4"></g>
    <g id="layer5"></g>
    <g id="layer6"></g>
    <g id="layer7"></g>
    <g id="layer8">
      <g fill-opacity=".14902" fill-rule="evenodd" stroke="none"
      fill="#93C">
        <path d="M 480.21 451.70 L 390.45 607.17 L 569.97 607.17 z" />
        <desc>Triangle t1: Polygon D, J, K</desc>
      </g>
      <g class="circle">
        <path d="M 583.86 555.34 C 583.86 612.58 537.45 658.99 480.21 658.99 C 422.97 658.99 376.57 612.58 376.57 555.34 C 376.57 498.10 422.97 451.70 480.21 451.70 C 537.45 451.70 583.86 498.10 583.86 555.34 z" />
        <desc>Circle e: Circle through K with center L</desc>
      </g>
      <g class="line">
        <path d="M 241.59 865.00 L 743.89 -5.0000" />
        <desc>Line f: Line A, D</desc>
      </g>
      <g class="line">
        <path d="M 718.83 865.00 L 216.54 -5.0000" />
        <desc>Line g: Line B, D</desc>
      </g>
      <g class="line">
        <path d="M -5.0000 607.17 L 1223.0 607.17" />
        <desc>Line j: Line J, K</desc>
      </g>
      <g class="line bisector">
        <path d="M -5.0000 835.48 L 1223.0 126.50" />
        <desc>Line l: Line J, B</desc>
      </g>
      <g class="line bisector">
        <path d="M -5.0000 275.21 L 1016.6 865.00" />
        <desc>Line m: Line K, A</desc>
      </g>
      <g class="line selected highlight">
        <path d="M -5.0000 650.09 L 1223.0 147.99" />
        <desc>Line n: Line D, O</desc>
      </g>
      <g class="line selected">
        <path d="M -5.0000 827.54 L 1069.8 -5.0000" />
        <desc>Line p: Line D, M</desc>
      </g>
      <g class="line selected">
        <path d="M 423.88 865.00 L 542.46 -5.0000" />
        <desc>Line q: Line D, R</desc>
      </g>
      <g class="line selected">
        <path d="M 536.54 865.00 L 417.97 -5.0000" />
        <desc>Line r: Line D, P</desc>
      </g>
      <g class="line selected">
        <path d="M -5.0000 75.855 L 1013.8 865.00" />
        <desc>Line s: Line D, N</desc>
      </g>
      <g class="line selected">
        <path d="M -5.0000 253.30 L 1223.0 755.41" />
        <desc>Line t: Line D, Q</desc>
      </g>
      <g class="line">
        <path d="M 573.60 865.00 L 71.305 -5.0000" />
        <desc>Line m_1: Line R, M</desc>
      </g>
      <g class="line">
        <path d="M 386.83 865.00 L 889.12 -5.0000" />
        <desc>Line n_1: Line N, P</desc>
      </g>
      <g class="line">
        <path d="M -5.0000 366.79 L 1223.0 707.87" />
        <desc>Line p_1: Line O, N</desc>
      </g>
      <g class="line">
        <path d="M -5.0000 636.33 L 1223.0 295.25" />
        <desc>Line q_1: Line Q, M</desc>
      </g>
    </g>
    <g id="layer9">
      <g class="segment golden a">
        <path d="M 99.989 607.17 L 290.10 529.43" />
        <text fill-opacity="1.0000" font-style="normal"
        font-family="Helvetica" font-weight="normal" stroke="none"
        fill="#ffcc66" font-size="12.000" x="0" y="0">a</text>
      </g>
      <g class="segment golden b">
        <path d="M 290.10 529.43 L 597.71 403.66" />
        <text fill-opacity="1.0000" font-style="normal"
        font-family="Helvetica" font-weight="normal" stroke="none"
        fill="#ffcc66" font-size="12.000" x="0" y="0">b</text>
      </g>
      <g class="segment golden c">
        <path d="M 597.71 403.66 L 1095.4 200.15" />
        <text fill-opacity="1.0000" font-style="normal"
        font-family="Helvetica" font-weight="normal" stroke="none"
        fill="#ffcc66" font-size="12.000" x="0" y="0">a+b</text>
      </g>
      <g class="point">
        <path d="M 439.33 529.43 C 439.33 531.64 437.54 533.43 435.33 533.43 C 433.12 533.43 431.33 531.64 431.33 529.43 C 431.33 527.22 433.12 525.43 435.33 525.43 C 437.54 525.43 439.33 527.22 439.33 529.43 z" />
        <path d="M 439.33 529.43 C 439.33 531.64 437.54 533.43 435.33 533.43 C 433.12 533.43 431.33 531.64 431.33 529.43 C 431.33 527.22 433.12 525.43 435.33 525.43 C 437.54 525.43 439.33 527.22 439.33 529.43 z" />
        <desc>Point A: Point on xAxis</desc>
      </g>
      <g class="point">
        <path d="M 529.09 529.43 C 529.09 531.64 527.30 533.43 525.09 533.43 C 522.88 533.43 521.09 531.64 521.09 529.43 C 521.09 527.22 522.88 525.43 525.09 525.43 C 527.30 525.43 529.09 527.22 529.09 529.43 z" />
        <path d="M 529.09 529.43 C 529.09 531.64 527.30 533.43 525.09 533.43 C 522.88 533.43 521.09 531.64 521.09 529.43 C 521.09 527.22 522.88 525.43 525.09 525.43 C 527.30 525.43 529.09 527.22 529.09 529.43 z" />
        <desc>Point B: Point on xAxis</desc>
      </g>
      <g class="point">
        <path d="M 484.21 451.70 C 484.21 453.91 482.42 455.70 480.21 455.70 C 478.00 455.70 476.21 453.91 476.21 451.70 C 476.21 449.49 478.00 447.70 480.21 447.70 C 482.42 447.70 484.21 449.49 484.21 451.70 z" />
        <path d="M 484.21 451.70 C 484.21 453.91 482.42 455.70 480.21 455.70 C 478.00 455.70 476.21 453.91 476.21 451.70 C 476.21 449.49 478.00 447.70 480.21 447.70 C 482.42 447.70 484.21 449.49 484.21 451.70 z" />
        <desc>Point D: Intersection point of c, d</desc>
      </g>
      <g class="point">
        <path d="M 484.21 607.17 C 484.21 609.38 482.42 611.17 480.21 611.17 C 478.00 611.17 476.21 609.38 476.21 607.17 C 476.21 604.96 478.00 603.17 480.21 603.17 C 482.42 603.17 484.21 604.96 484.21 607.17 z" />
        <path d="M 484.21 607.17 C 484.21 609.38 482.42 611.17 480.21 611.17 C 478.00 611.17 476.21 609.38 476.21 607.17 C 476.21 604.96 478.00 603.17 480.21 603.17 C 482.42 603.17 484.21 604.96 484.21 607.17 z" />
        <desc>Point C: Intersection point of c, d</desc>
      </g>
      <g class="point">
        <path d="M 484.21 529.43 C 484.21 531.64 482.42 533.43 480.21 533.43 C 478.00 533.43 476.21 531.64 476.21 529.43 C 476.21 527.22 478.00 525.43 480.21 525.43 C 482.42 525.43 484.21 527.22 484.21 529.43 z" />
        <path d="M 484.21 529.43 C 484.21 531.64 482.42 533.43 480.21 533.43 C 478.00 533.43 476.21 531.64 476.21 529.43 C 476.21 527.22 478.00 525.43 480.21 525.43 C 482.42 525.43 484.21 527.22 484.21 529.43 z" />
        <desc>Point E: Intersection of a and b</desc>
      </g>
      <g class="point">
        <path d="M 573.97 451.70 C 573.97 453.91 572.18 455.70 569.97 455.70 C 567.76 455.70 565.97 453.91 565.97 451.70 C 565.97 449.49 567.76 447.70 569.97 447.70 C 572.18 447.70 573.97 449.49 573.97 451.70 z" />
        <path d="M 573.97 451.70 C 573.97 453.91 572.18 455.70 569.97 455.70 C 567.76 455.70 565.97 453.91 565.97 451.70 C 565.97 449.49 567.76 447.70 569.97 447.70 C 572.18 447.70 573.97 449.49 573.97 451.70 z" />
        <desc>Point I: Intersection of d and i</desc>
      </g>
      <g class="point">
        <path d="M 394.45 607.17 C 394.45 609.38 392.66 611.17 390.45 611.17 C 388.25 611.17 386.45 609.38 386.45 607.17 C 386.45 604.96 388.25 603.17 390.45 603.17 C 392.66 603.17 394.45 604.96 394.45 607.17 z" />
        <path d="M 394.45 607.17 C 394.45 609.38 392.66 611.17 390.45 611.17 C 388.25 611.17 386.45 609.38 386.45 607.17 C 386.45 604.96 388.25 603.17 390.45 603.17 C 392.66 603.17 394.45 604.96 394.45 607.17 z" />
        <desc>Point J: Intersection of c and f</desc>
      </g>
      <g class="point">
        <path d="M 573.97 607.17 C 573.97 609.38 572.18 611.17 569.97 611.17 C 567.76 611.17 565.97 609.38 565.97 607.17 C 565.97 604.96 567.76 603.17 569.97 603.17 C 572.18 603.17 573.97 604.96 573.97 607.17 z" />
        <path d="M 573.97 607.17 C 573.97 609.38 572.18 611.17 569.97 611.17 C 567.76 611.17 565.97 609.38 565.97 607.17 C 565.97 604.96 567.76 603.17 569.97 603.17 C 572.18 603.17 573.97 604.96 573.97 607.17 z" />
        <desc>Point K: Intersection of d and g</desc>
      </g>
      <g class="point">
        <path d="M 484.21 555.34 C 484.21 557.55 482.42 559.34 480.21 559.34 C 478.00 559.34 476.21 557.55 476.21 555.34 C 476.21 553.13 478.00 551.34 480.21 551.34 C 482.42 551.34 484.21 553.13 484.21 555.34 z" />
        <path d="M 484.21 555.34 C 484.21 557.55 482.42 559.34 480.21 559.34 C 478.00 559.34 476.21 557.55 476.21 555.34 C 476.21 553.13 478.00 551.34 480.21 551.34 C 482.42 551.34 484.21 553.13 484.21 555.34 z" />
        <desc>Point L: Intersection of l and m</desc>
      </g>
      <g class="point">
        <path d="M 383.86 529.43 C 383.86 531.64 382.07 533.43 379.86 533.43 C 377.65 533.43 375.86 531.64 375.86 529.43 C 375.86 527.22 377.65 525.43 379.86 525.43 C 382.07 525.43 383.86 527.22 383.86 529.43 z" />
        <path d="M 383.86 529.43 C 383.86 531.64 382.07 533.43 379.86 533.43 C 377.65 533.43 375.86 531.64 375.86 529.43 C 375.86 527.22 377.65 525.43 379.86 525.43 C 382.07 525.43 383.86 527.22 383.86 529.43 z" />
        <desc>Point M: Intersection point of e, a</desc>
      </g>
      <g class="point">
        <path d="M 584.57 529.43 C 584.57 531.64 582.78 533.43 580.57 533.43 C 578.36 533.43 576.57 531.64 576.57 529.43 C 576.57 527.22 578.36 525.43 580.57 525.43 C 582.78 525.43 584.57 527.22 584.57 529.43 z" />
        <path d="M 584.57 529.43 C 584.57 531.64 582.78 533.43 580.57 533.43 C 578.36 533.43 576.57 531.64 576.57 529.43 C 576.57 527.22 578.36 525.43 580.57 525.43 C 582.78 525.43 584.57 527.22 584.57 529.43 z" />
        <desc>Point N: Intersection point of e, a</desc>
      </g>
      <g class="point">
        <path d="M 411.60 481.39 C 411.60 483.60 409.81 485.39 407.60 485.39 C 405.39 485.39 403.60 483.60 403.60 481.39 C 403.60 479.18 405.39 477.39 407.60 477.39 C 409.81 477.39 411.60 479.18 411.60 481.39 z" />
        <path d="M 411.60 481.39 C 411.60 483.60 409.81 485.39 407.60 485.39 C 405.39 485.39 403.60 483.60 403.60 481.39 C 403.60 479.18 405.39 477.39 407.60 477.39 C 409.81 477.39 411.60 479.18 411.60 481.39 z" />
        <desc>Point O: Intersection point of e, h</desc>
      </g>
      <g class="point">
        <path d="M 511.95 655.21 C 511.95 657.42 510.16 659.21 507.95 659.21 C 505.74 659.21 503.95 657.42 503.95 655.21 C 503.95 653.00 505.74 651.21 507.95 651.21 C 510.16 651.21 511.95 653.00 511.95 655.21 z" />
        <path d="M 511.95 655.21 C 511.95 657.42 510.16 659.21 507.95 659.21 C 505.74 659.21 503.95 657.42 503.95 655.21 C 503.95 653.00 505.74 651.21 507.95 651.21 C 510.16 651.21 511.95 653.00 511.95 655.21 z" />
        <desc>Point P: Intersection point of e, h</desc>
      </g>
      <g class="point">
        <path d="M 556.83 481.39 C 556.83 483.60 555.04 485.39 552.83 485.39 C 550.62 485.39 548.83 483.60 548.83 481.39 C 548.83 479.18 550.62 477.39 552.83 477.39 C 555.04 477.39 556.83 479.18 556.83 481.39 z" />
        <path d="M 556.83 481.39 C 556.83 483.60 555.04 485.39 552.83 485.39 C 550.62 485.39 548.83 483.60 548.83 481.39 C 548.83 479.18 550.62 477.39 552.83 477.39 C 555.04 477.39 556.83 479.18 556.83 481.39 z" />
        <desc>Point Q: Intersection point of e, i</desc>
      </g>
      <g class="point">
        <path d="M 456.48 655.21 C 456.48 657.42 454.69 659.21 452.48 659.21 C 450.27 659.21 448.48 657.42 448.48 655.21 C 448.48 653.00 450.27 651.21 452.48 651.21 C 454.69 651.21 456.48 653.00 456.48 655.21 z" />
        <path d="M 456.48 655.21 C 456.48 657.42 454.69 659.21 452.48 659.21 C 450.27 659.21 448.48 657.42 448.48 655.21 C 448.48 653.00 450.27 651.21 452.48 651.21 C 454.69 651.21 456.48 653.00 456.48 655.21 z" />
        <desc>Point R: Intersection point of e, i</desc>
      </g>
      <g class="point golden">
        <path d="M 103.99 607.17 C 103.99 609.38 102.20 611.17 99.989 611.17 C 97.780 611.17 95.989 609.38 95.989 607.17 C 95.989 604.96 97.780 603.17 99.989 603.17 C 102.20 603.17 103.99 604.96 103.99 607.17 z" />
        <path d="M 103.99 607.17 C 103.99 609.38 102.20 611.17 99.989 611.17 C 97.780 611.17 95.989 609.38 95.989 607.17 C 95.989 604.96 97.780 603.17 99.989 603.17 C 102.20 603.17 103.99 604.96 103.99 607.17 z" />
        <desc>Point S: Intersection of j and n</desc>
      </g>
      <g class="point">
        <path d="M 283.51 607.17 C 283.51 609.38 281.72 611.17 279.51 611.17 C 277.30 611.17 275.51 609.38 275.51 607.17 C 275.51 604.96 277.30 603.17 279.51 603.17 C 281.72 603.17 283.51 604.96 283.51 607.17 z" />
        <path d="M 283.51 607.17 C 283.51 609.38 281.72 611.17 279.51 611.17 C 277.30 611.17 275.51 609.38 275.51 607.17 C 275.51 604.96 277.30 603.17 279.51 603.17 C 281.72 603.17 283.51 604.96 283.51 607.17 z" />
        <desc>Point T: Intersection of j and p</desc>
      </g>
      <g class="point">
        <path d="M 463.02 607.17 C 463.02 609.38 461.23 611.17 459.02 611.17 C 456.81 611.17 455.02 609.38 455.02 607.17 C 455.02 604.96 456.81 603.17 459.02 603.17 C 461.23 603.17 463.02 604.96 463.02 607.17 z" />
        <path d="M 463.02 607.17 C 463.02 609.38 461.23 611.17 459.02 611.17 C 456.81 611.17 455.02 609.38 455.02 607.17 C 455.02 604.96 456.81 603.17 459.02 603.17 C 461.23 603.17 463.02 604.96 463.02 607.17 z" />
        <desc>Point U: Intersection of q and j</desc>
      </g>
      <g class="point">
        <path d="M 505.40 607.17 C 505.40 609.38 503.61 611.17 501.40 611.17 C 499.19 611.17 497.40 609.38 497.40 607.17 C 497.40 604.96 499.19 603.17 501.40 603.17 C 503.61 603.17 505.40 604.96 505.40 607.17 z" />
        <path d="M 505.40 607.17 C 505.40 609.38 503.61 611.17 501.40 611.17 C 499.19 611.17 497.40 609.38 497.40 607.17 C 497.40 604.96 499.19 603.17 501.40 603.17 C 503.61 603.17 505.40 604.96 505.40 607.17 z" />
        <desc>Point V: Intersection of r and j</desc>
      </g>
      <g class="point">
        <path d="M 684.92 607.17 C 684.92 609.38 683.13 611.17 680.92 611.17 C 678.71 611.17 676.92 609.38 676.92 607.17 C 676.92 604.96 678.71 603.17 680.92 603.17 C 683.13 603.17 684.92 604.96 684.92 607.17 z" />
        <path d="M 684.92 607.17 C 684.92 609.38 683.13 611.17 680.92 611.17 C 678.71 611.17 676.92 609.38 676.92 607.17 C 676.92 604.96 678.71 603.17 680.92 603.17 C 683.13 603.17 684.92 604.96 684.92 607.17 z" />
        <desc>Point Z: Intersection of s and j</desc>
      </g>
      <g class="point">
        <path d="M 864.44 607.17 C 864.44 609.38 862.65 611.17 860.44 611.17 C 858.23 611.17 856.44 609.38 856.44 607.17 C 856.44 604.96 858.23 603.17 860.44 603.17 C 862.65 603.17 864.44 604.96 864.44 607.17 z" />
        <path d="M 864.44 607.17 C 864.44 609.38 862.65 611.17 860.44 611.17 C 858.23 611.17 856.44 609.38 856.44 607.17 C 856.44 604.96 858.23 603.17 860.44 603.17 C 862.65 603.17 864.44 604.96 864.44 607.17 z" />
        <desc>Point A_1: Intersection of t and j</desc>
      </g>
      <g class="point">
        <path d="M 646.59 325.92 C 646.59 328.13 644.80 329.92 642.59 329.92 C 640.38 329.92 638.59 328.13 638.59 325.92 C 638.59 323.71 640.38 321.92 642.59 321.92 C 644.80 321.92 646.59 323.71 646.59 325.92 z" />
        <path d="M 646.59 325.92 C 646.59 328.13 644.80 329.92 642.59 329.92 C 640.38 329.92 638.59 328.13 638.59 325.92 C 638.59 323.71 640.38 321.92 642.59 321.92 C 644.80 321.92 646.59 323.71 646.59 325.92 z" />
        <desc>Point W: Intersection of i and p</desc>
      </g>
      <g class="point golden">
        <path d="M 601.71 403.66 C 601.71 405.87 599.92 407.66 597.71 407.66 C 595.50 407.66 593.71 405.87 593.71 403.66 C 593.71 401.45 595.50 399.66 597.71 399.66 C 599.92 399.66 601.71 401.45 601.71 403.66 z" />
        <path d="M 601.71 403.66 C 601.71 405.87 599.92 407.66 597.71 407.66 C 595.50 407.66 593.71 405.87 593.71 403.66 C 593.71 401.45 595.50 399.66 597.71 399.66 C 599.92 399.66 601.71 401.45 601.71 403.66 z" />
        <desc>Point B_1: Intersection of i and n</desc>
      </g>
      <g class="point">
        <path d="M 546.23 499.74 C 546.23 501.95 544.44 503.74 542.23 503.74 C 540.03 503.74 538.23 501.95 538.23 499.74 C 538.23 497.53 540.03 495.74 542.23 495.74 C 544.44 495.74 546.23 497.53 546.23 499.74 z" />
        <path d="M 546.23 499.74 C 546.23 501.95 544.44 503.74 542.23 503.74 C 540.03 503.74 538.23 501.95 538.23 499.74 C 538.23 497.53 540.03 495.74 542.23 495.74 C 544.44 495.74 546.23 497.53 546.23 499.74 z" />
        <desc>Point C_1: Intersection of i and s</desc>
      </g>
      <g class="point">
        <path d="M 501.36 577.47 C 501.36 579.68 499.56 581.47 497.36 581.47 C 495.15 581.47 493.36 579.68 493.36 577.47 C 493.36 575.27 495.15 573.47 497.36 573.47 C 499.56 573.47 501.36 575.27 501.36 577.47 z" />
        <path d="M 501.36 577.47 C 501.36 579.68 499.56 581.47 497.36 581.47 C 495.15 581.47 493.36 579.68 493.36 577.47 C 493.36 575.27 495.15 573.47 497.36 573.47 C 499.56 573.47 501.36 575.27 501.36 577.47 z" />
        <desc>Point D_1: Intersection of r and i</desc>
      </g>
      <g class="point">
        <path d="M 468.88 564.20 C 468.88 566.41 467.09 568.20 464.88 568.20 C 462.67 568.20 460.88 566.41 460.88 564.20 C 460.88 561.99 462.67 560.20 464.88 560.20 C 467.09 560.20 468.88 561.99 468.88 564.20 z" />
        <path d="M 468.88 564.20 C 468.88 566.41 467.09 568.20 464.88 568.20 C 462.67 568.20 460.88 566.41 460.88 564.20 C 460.88 561.99 462.67 560.20 464.88 560.20 C 467.09 560.20 468.88 561.99 468.88 564.20 z" />
        <desc>Point E_1: Intersection of q and l</desc>
      </g>
      <g class="point">
        <path d="M 497.31 547.78 C 497.31 549.99 495.52 551.78 493.31 551.78 C 491.10 551.78 489.31 549.99 489.31 547.78 C 489.31 545.57 491.10 543.78 493.31 543.78 C 495.52 543.78 497.31 545.57 497.31 547.78 z" />
        <path d="M 497.31 547.78 C 497.31 549.99 495.52 551.78 493.31 551.78 C 491.10 551.78 489.31 549.99 489.31 547.78 C 489.31 545.57 491.10 543.78 493.31 543.78 C 495.52 543.78 497.31 545.57 497.31 547.78 z" />
        <desc>Point F_1: Intersection of r and l</desc>
      </g>
      <g class="point">
        <path d="M 560.88 511.08 C 560.88 513.29 559.09 515.08 556.88 515.08 C 554.67 515.08 552.88 513.29 552.88 511.08 C 552.88 508.87 554.67 507.08 556.88 507.08 C 559.09 507.08 560.88 508.87 560.88 511.08 z" />
        <path d="M 560.88 511.08 C 560.88 513.29 559.09 515.08 556.88 515.08 C 554.67 515.08 552.88 513.29 552.88 511.08 C 552.88 508.87 554.67 507.08 556.88 507.08 C 559.09 507.08 560.88 508.87 560.88 511.08 z" />
        <desc>Point G_1: Intersection of s and l</desc>
      </g>
      <g class="point">
        <path d="M 589.30 494.67 C 589.30 496.88 587.51 498.67 585.30 498.67 C 583.10 498.67 581.30 496.88 581.30 494.67 C 581.30 492.46 583.10 490.67 585.30 490.67 C 587.51 490.67 589.30 492.46 589.30 494.67 z" />
        <path d="M 589.30 494.67 C 589.30 496.88 587.51 498.67 585.30 498.67 C 583.10 498.67 581.30 496.88 581.30 494.67 C 581.30 492.46 583.10 490.67 585.30 490.67 C 587.51 490.67 589.30 492.46 589.30 494.67 z" />
        <desc>Point H_1: Intersection of t and l</desc>
      </g>
      <g class="point">
        <path d="M 663.73 451.70 C 663.73 453.91 661.94 455.70 659.73 455.70 C 657.52 455.70 655.73 453.91 655.73 451.70 C 655.73 449.49 657.52 447.70 659.73 447.70 C 661.94 447.70 663.73 449.49 663.73 451.70 z" />
        <path d="M 663.73 451.70 C 663.73 453.91 661.94 455.70 659.73 455.70 C 657.52 455.70 655.73 453.91 655.73 451.70 C 655.73 449.49 657.52 447.70 659.73 447.70 C 661.94 447.70 663.73 449.49 663.73 451.70 z" />
        <desc>Point I_1: Intersection of k and l</desc>
      </g>
      <g class="point golden">
        <path d="M 1099.4 200.15 C 1099.4 202.36 1097.6 204.15 1095.4 204.15 C 1093.2 204.15 1091.4 202.36 1091.4 200.15 C 1091.4 197.94 1093.2 196.15 1095.4 196.15 C 1097.6 196.15 1099.4 197.94 1099.4 200.15 z" />
        <path d="M 1099.4 200.15 C 1099.4 202.36 1097.6 204.15 1095.4 204.15 C 1093.2 204.15 1091.4 202.36 1091.4 200.15 C 1091.4 197.94 1093.2 196.15 1095.4 196.15 C 1097.6 196.15 1099.4 197.94 1099.4 200.15 z" />
        <desc>Point K_1: Intersection of n and l</desc>
      </g>
      <g class="point">
        <path d="M 490.76 499.74 C 490.76 501.95 488.97 503.74 486.76 503.74 C 484.55 503.74 482.76 501.95 482.76 499.74 C 482.76 497.53 484.55 495.74 486.76 495.74 C 488.97 495.74 490.76 497.53 490.76 499.74 z" />
        <path d="M 490.76 499.74 C 490.76 501.95 488.97 503.74 486.76 503.74 C 484.55 503.74 482.76 501.95 482.76 499.74 C 482.76 497.53 484.55 495.74 486.76 495.74 C 488.97 495.74 490.76 497.53 490.76 499.74 z" />
        <desc>Point L_1: Intersection of r and q_1</desc>
      </g>
      <g class="point">
        <path d="M 449.93 511.08 C 449.93 513.29 448.14 515.08 445.93 515.08 C 443.72 515.08 441.93 513.29 441.93 511.08 C 441.93 508.87 443.72 507.08 445.93 507.08 C 448.14 507.08 449.93 508.87 449.93 511.08 z" />
        <path d="M 449.93 511.08 C 449.93 513.29 448.14 515.08 445.93 515.08 C 443.72 515.08 441.93 513.29 441.93 511.08 C 441.93 508.87 443.72 507.08 445.93 507.08 C 448.14 507.08 449.93 508.87 449.93 511.08 z" />
        <desc>Point M_1: Intersection of f and q_1</desc>
      </g>
      <g class="point">
        <path d="M 622.90 463.04 C 622.90 465.25 621.11 467.04 618.90 467.04 C 616.69 467.04 614.90 465.25 614.90 463.04 C 614.90 460.83 616.69 459.04 618.90 459.04 C 621.11 459.04 622.90 460.83 622.90 463.04 z" />
        <path d="M 622.90 463.04 C 622.90 465.25 621.11 467.04 618.90 467.04 C 616.69 467.04 614.90 465.25 614.90 463.04 C 614.90 460.83 616.69 459.04 618.90 459.04 C 621.11 459.04 622.90 460.83 622.90 463.04 z" />
        <desc>Point N_1: Intersection of n_1 and q_1</desc>
      </g>
      <g class="point golden">
        <path d="M 294.10 529.43 C 294.10 531.64 292.31 533.43 290.10 533.43 C 287.89 533.43 286.10 531.64 286.10 529.43 C 286.10 527.22 287.89 525.43 290.10 525.43 C 292.31 525.43 294.10 527.22 294.10 529.43 z" />
        <path d="M 294.10 529.43 C 294.10 531.64 292.31 533.43 290.10 533.43 C 287.89 533.43 286.10 531.64 286.10 529.43 C 286.10 527.22 287.89 525.43 290.10 525.43 C 292.31 525.43 294.10 527.22 294.10 529.43 z" />
        <desc>Point O_1: Intersection of n and a</desc>
      </g>
    </g>
  </g>
</svg>
