<?xml version="1.0" encoding="iso-8859-1" standalone="no"?>
<svg version="1.1" baseProfile="full"
xmlns="http://www.w3.org/2000/svg"
xmlns:xlink="http://www.w3.org/1999/xlink"
xmlns:ev="http://www.w3.org/2001/xml-events"
width="42.968333333333334cm" height="30.33888888888889cm"
viewBox="0 0 1218 860">
  <style>
.golden { stroke: #DA0; stroke-opacity: 0.4; fill: #DA0; } 
.selected { stroke: #69C; stroke-opacity: 0.4; fill: #69C; } 
.point { stroke: black; stroke-width: 1.5; fill: white; }
.point > path:nth-child(1) { stroke: black;  fill: none; }
.point > path:nth-child(2) { stroke: black; stroke-width: 1.5;  fill: white; }
.point.golden > path:nth-child(1) { stroke-width: 12;   stroke: #DA0; stroke-opacity: 0.4; fill: #DA0;  }
.point.golden > path:nth-child(2) { stroke: black; stroke-width: 1.5; stroke-opacity: 1; fill: white; }
.point.selected > path:nth-child(1) { stroke-width: 12;   stroke: #69C; stroke-opacity: 0.4; fill: #DA0;  }
.point.selected > path:nth-child(2) { stroke: black; stroke-width: 1.5; stroke-opacity: 1; fill: white; }
.line { stroke: #93C; stroke-width: 1.5; stroke-opacity: 1; stroke-dasharray: 1.5 3;  } 
.line.selected { stroke: #69C; }
.line.highlight { stroke-dasharray: none; stroke-width: 3; }
.circle {fill: none; stroke: #93C; stroke-width: 1.5; stroke-opacity: 1; stroke-dasharray: 1.5 3; }
.polygon { stroke-width: 5; stroke-linejoin: round;  fill: #93C; fill-opacity: .1; } 
.bisector { stroke-dasharray: 1.5, 3, 5, 3; }
.segment {} 
.segment.golden > path:nth-child(2) { stroke: none;  }
.a { stroke-width: 4; } 
.b { stroke-width: 8; } 
.c { stroke-width: 12; } 
.d { stroke-width: 16; } 
#base .circle { stroke: #777; }
#base .line { stroke: #777; }
  </style>
  <g stroke-linejoin="miter" stroke-dashoffset="0.0000"
  stroke-dasharray="none" stroke-width="1.0000"
  stroke-miterlimit="10.000" stroke-linecap="square">
    <g id="misc"></g>
    <g id="base">
      <g class="circle">
        <path d="M 582.25 550.10 C 582.25 629.47 517.91 693.82 438.53 693.82 C 359.16 693.82 294.82 629.47 294.82 550.10 C 294.82 470.73 359.16 406.39 438.53 406.39 C 517.91 406.39 582.25 470.73 582.25 550.10 z" />
        <desc>Circle c: Circle through B with center A</desc>
      </g>
      <g class="circle">
        <path d="M 725.96 550.10 C 725.96 629.47 661.62 693.82 582.25 693.82 C 502.88 693.82 438.53 629.47 438.53 550.10 C 438.53 470.73 502.88 406.39 582.25 406.39 C 661.62 406.39 725.96 470.73 725.96 550.10 z" />
        <desc>Circle d: Circle through A with center B</desc>
      </g>
      <g class="line">
        <path d="M -5.0000 550.10 L 1223.0 550.10" />
        <desc>Line a: Line A, B</desc>
      </g>
    </g>
    <g id="main">
      <g class="line bisector">
        <path d="M 510.39 865.00 L 510.39 -5.0000" />
        <desc>Line b: Line D, C</desc>
      </g>
      <g class="line">
        <path d="M 620.34 865.00 L 118.05 -5.0000" />
        <desc>Line h: Line A, C</desc>
      </g>
      <g class="line">
        <path d="M 400.44 865.00 L 902.74 -5.0000" />
        <desc>Line i: Line B, C</desc>
      </g>
      <g class="line">
        <path d="M -5.0000 425.64 L 1223.0 425.64" />
        <desc>Line k: Line H, I</desc>
      </g>
    </g>
    <g id="layer1"></g>
    <g id="layer2"></g>
    <g id="layer3"></g>
    <g id="layer4"></g>
    <g id="layer5"></g>
    <g id="layer6"></g>
    <g id="layer7"></g>
    <g id="layer8">
      <g fill-opacity=".14902" fill-rule="evenodd" stroke="none"
      fill="#93C">
        <path d="M 510.39 425.64 L 366.68 674.56 L 654.10 674.56 z" />
        <desc>Triangle t1: Polygon D, J, K</desc>
      </g>
      <g class="circle">
        <path d="M 676.34 591.59 C 676.34 683.24 602.04 757.54 510.39 757.54 C 418.74 757.54 344.44 683.24 344.44 591.59 C 344.44 499.94 418.74 425.64 510.39 425.64 C 602.04 425.64 676.34 499.94 676.34 591.59 z" />
        <desc>Circle e: Circle through K with center L</desc>
      </g>
      <g class="line">
        <path d="M 256.73 865.00 L 759.02 -5.0000" />
        <desc>Line f: Line A, D</desc>
      </g>
      <g class="line">
        <path d="M 764.05 865.00 L 261.76 -5.0000" />
        <desc>Line g: Line B, D</desc>
      </g>
      <g class="line">
        <path d="M -5.0000 674.56 L 1223.0 674.56" />
        <desc>Line j: Line J, K</desc>
      </g>
      <g class="line bisector">
        <path d="M 36.830 865.00 L 1223.0 180.16" />
        <desc>Line l: Line J, B</desc>
      </g>
      <g class="line bisector">
        <path d="M -5.0000 294.03 L 983.95 865.00" />
        <desc>Line m: Line K, A</desc>
      </g>
      <g class="line selected">
        <path d="M -5.0000 636.38 L 1223.0 134.27" />
        <desc>Line n: Line D, O</desc>
      </g>
      <g class="line selected highlight">
        <path d="M -5.0000 824.86 L 1066.3 -5.0000" />
        <desc>Line p: Line D, M</desc>
      </g>
      <g class="line selected">
        <path d="M 450.51 865.00 L 569.09 -5.0000" />
        <desc>Line q: Line D, R</desc>
      </g>
      <g class="line selected">
        <path d="M 570.27 865.00 L 451.70 -5.0000" />
        <desc>Line r: Line D, P</desc>
      </g>
      <g class="line selected">
        <path d="M -5.0000 26.423 L 1077.6 865.00" />
        <desc>Line s: Line D, N</desc>
      </g>
      <g class="line selected">
        <path d="M -5.0000 214.91 L 1223.0 717.02" />
        <desc>Line t: Line D, Q</desc>
      </g>
      <g class="line">
        <path d="M 531.52 865.00 L 29.225 -5.0000" />
        <desc>Line m_1: Line R, M</desc>
      </g>
      <g class="line">
        <path d="M 489.26 865.00 L 991.56 -5.0000" />
        <desc>Line n_1: Line N, P</desc>
      </g>
      <g class="line">
        <path d="M -5.0000 362.33 L 1223.0 703.40" />
        <desc>Line p_1: Line O, N</desc>
      </g>
      <g class="line">
        <path d="M -5.0000 648.62 L 1223.0 307.55" />
        <desc>Line q_1: Line Q, M</desc>
      </g>
    </g>
    <g id="layer9">
      <g class="segment golden a">
        <path d="M 349.71 550.10 L 510.39 425.64" />
        <path d="M 443.11 496.70 Q 441.81 496.70 441.30 497.00 Q 440.80 497.30 440.80 498.02 Q 440.80 498.59 441.18 498.93 Q 441.56 499.27 442.20 499.27 Q 443.11 499.27 443.65 498.63 Q 444.19 498.00 444.19 496.94 L 444.19 496.70 L 443.11 496.70 z M 445.27 496.25 L 445.27 500.00 L 444.19 500.00 L 444.19 499.00 Q 443.81 499.59 443.27 499.88 Q 442.72 500.17 441.92 500.17 Q 440.91 500.17 440.31 499.60 Q 439.72 499.03 439.72 498.09 Q 439.72 496.98 440.46 496.42 Q 441.20 495.86 442.67 495.86 L 444.19 495.86 L 444.19 495.75 Q 444.19 495.00 443.70 494.59 Q 443.20 494.19 442.33 494.19 Q 441.77 494.19 441.23 494.33 Q 440.69 494.47 440.20 494.73 L 440.20 493.73 Q 440.80 493.50 441.35 493.39 Q 441.91 493.28 442.44 493.28 Q 443.86 493.28 444.56 494.02 Q 445.27 494.75 445.27 496.25 z" />
        <desc>Segment g010a_1: sectionABA(M, D, W, P_1)</desc>
      </g>
      <g class="segment golden b">
        <path d="M 510.39 425.64 L 770.37 224.26" />
        <path d="M 655.84 333.72 Q 655.84 332.53 655.35 331.86 Q 654.86 331.19 654.02 331.19 Q 653.16 331.19 652.66 331.86 Q 652.17 332.53 652.17 333.72 Q 652.17 334.91 652.66 335.59 Q 653.16 336.27 654.02 336.27 Q 654.86 336.27 655.35 335.59 Q 655.84 334.91 655.84 333.72 z M 652.17 331.44 Q 652.52 330.84 653.03 330.56 Q 653.55 330.28 654.27 330.28 Q 655.47 330.28 656.22 331.23 Q 656.97 332.17 656.97 333.72 Q 656.97 335.27 656.22 336.22 Q 655.47 337.17 654.27 337.17 Q 653.55 337.17 653.03 336.88 Q 652.52 336.59 652.17 336.02 L 652.17 337.00 L 651.09 337.00 L 651.09 327.88 L 652.17 327.88 L 652.17 331.44 z" />
        <desc>Segment g010b: sectionABA(M, D, W, P_1)</desc>
      </g>
      <g class="segment golden a">
        <path d="M 770.37 224.26 L 931.05 99.803" />
        <path d="M 864.11 170.70 Q 862.81 170.70 862.30 171.00 Q 861.80 171.30 861.80 172.02 Q 861.80 172.59 862.18 172.93 Q 862.56 173.27 863.20 173.27 Q 864.11 173.27 864.65 172.63 Q 865.19 172.00 865.19 170.94 L 865.19 170.70 L 864.11 170.70 z M 866.27 170.25 L 866.27 174.00 L 865.19 174.00 L 865.19 173.00 Q 864.81 173.59 864.27 173.88 Q 863.72 174.17 862.92 174.17 Q 861.91 174.17 861.31 173.60 Q 860.72 173.03 860.72 172.09 Q 860.72 170.98 861.46 170.42 Q 862.20 169.86 863.67 169.86 L 865.19 169.86 L 865.19 169.75 Q 865.19 169.00 864.70 168.59 Q 864.20 168.19 863.33 168.19 Q 862.77 168.19 862.23 168.33 Q 861.69 168.47 861.20 168.73 L 861.20 167.73 Q 861.80 167.50 862.35 167.39 Q 862.91 167.28 863.44 167.28 Q 864.86 167.28 865.56 168.02 Q 866.27 168.75 866.27 170.25 z" />
        <desc>Segment g010a_2: sectionABA(M, D, W, P_1)</desc>
      </g>
      <g class="point">
        <path d="M 442.53 550.10 C 442.53 552.31 440.74 554.10 438.53 554.10 C 436.32 554.10 434.53 552.31 434.53 550.10 C 434.53 547.89 436.32 546.10 438.53 546.10 C 440.74 546.10 442.53 547.89 442.53 550.10 z" />
        <path d="M 442.53 550.10 C 442.53 552.31 440.74 554.10 438.53 554.10 C 436.32 554.10 434.53 552.31 434.53 550.10 C 434.53 547.89 436.32 546.10 438.53 546.10 C 440.74 546.10 442.53 547.89 442.53 550.10 z" />
        <desc>Point A: Point on xAxis</desc>
      </g>
      <g class="point">
        <path d="M 586.25 550.10 C 586.25 552.31 584.46 554.10 582.25 554.10 C 580.04 554.10 578.25 552.31 578.25 550.10 C 578.25 547.89 580.04 546.10 582.25 546.10 C 584.46 546.10 586.25 547.89 586.25 550.10 z" />
        <path d="M 586.25 550.10 C 586.25 552.31 584.46 554.10 582.25 554.10 C 580.04 554.10 578.25 552.31 578.25 550.10 C 578.25 547.89 580.04 546.10 582.25 546.10 C 584.46 546.10 586.25 547.89 586.25 550.10 z" />
        <desc>Point B: Point on xAxis</desc>
      </g>
      <g class="point golden">
        <path d="M 514.39 425.64 C 514.39 427.85 512.60 429.64 510.39 429.64 C 508.18 429.64 506.39 427.85 506.39 425.64 C 506.39 423.43 508.18 421.64 510.39 421.64 C 512.60 421.64 514.39 423.43 514.39 425.64 z" />
        <path d="M 514.39 425.64 C 514.39 427.85 512.60 429.64 510.39 429.64 C 508.18 429.64 506.39 427.85 506.39 425.64 C 506.39 423.43 508.18 421.64 510.39 421.64 C 512.60 421.64 514.39 423.43 514.39 425.64 z" />
        <desc>Point D: Intersection point of c, d</desc>
      </g>
      <g class="point">
        <path d="M 514.39 674.56 C 514.39 676.77 512.60 678.56 510.39 678.56 C 508.18 678.56 506.39 676.77 506.39 674.56 C 506.39 672.35 508.18 670.56 510.39 670.56 C 512.60 670.56 514.39 672.35 514.39 674.56 z" />
        <path d="M 514.39 674.56 C 514.39 676.77 512.60 678.56 510.39 678.56 C 508.18 678.56 506.39 676.77 506.39 674.56 C 506.39 672.35 508.18 670.56 510.39 670.56 C 512.60 670.56 514.39 672.35 514.39 674.56 z" />
        <desc>Point C: Intersection point of c, d</desc>
      </g>
      <g class="point">
        <path d="M 514.39 550.10 C 514.39 552.31 512.60 554.10 510.39 554.10 C 508.18 554.10 506.39 552.31 506.39 550.10 C 506.39 547.89 508.18 546.10 510.39 546.10 C 512.60 546.10 514.39 547.89 514.39 550.10 z" />
        <path d="M 514.39 550.10 C 514.39 552.31 512.60 554.10 510.39 554.10 C 508.18 554.10 506.39 552.31 506.39 550.10 C 506.39 547.89 508.18 546.10 510.39 546.10 C 512.60 546.10 514.39 547.89 514.39 550.10 z" />
        <desc>Point E: Intersection of a and b</desc>
      </g>
      <g class="point">
        <path d="M 658.10 425.64 C 658.10 427.85 656.31 429.64 654.10 429.64 C 651.90 429.64 650.10 427.85 650.10 425.64 C 650.10 423.43 651.90 421.64 654.10 421.64 C 656.31 421.64 658.10 423.43 658.10 425.64 z" />
        <path d="M 658.10 425.64 C 658.10 427.85 656.31 429.64 654.10 429.64 C 651.90 429.64 650.10 427.85 650.10 425.64 C 650.10 423.43 651.90 421.64 654.10 421.64 C 656.31 421.64 658.10 423.43 658.10 425.64 z" />
        <desc>Point I: Intersection of d and i</desc>
      </g>
      <g class="point">
        <path d="M 370.68 674.56 C 370.68 676.77 368.89 678.56 366.68 678.56 C 364.47 678.56 362.68 676.77 362.68 674.56 C 362.68 672.35 364.47 670.56 366.68 670.56 C 368.89 670.56 370.68 672.35 370.68 674.56 z" />
        <path d="M 370.68 674.56 C 370.68 676.77 368.89 678.56 366.68 678.56 C 364.47 678.56 362.68 676.77 362.68 674.56 C 362.68 672.35 364.47 670.56 366.68 670.56 C 368.89 670.56 370.68 672.35 370.68 674.56 z" />
        <desc>Point J: Intersection of c and f</desc>
      </g>
      <g class="point">
        <path d="M 658.10 674.56 C 658.10 676.77 656.31 678.56 654.10 678.56 C 651.90 678.56 650.10 676.77 650.10 674.56 C 650.10 672.35 651.90 670.56 654.10 670.56 C 656.31 670.56 658.10 672.35 658.10 674.56 z" />
        <path d="M 658.10 674.56 C 658.10 676.77 656.31 678.56 654.10 678.56 C 651.90 678.56 650.10 676.77 650.10 674.56 C 650.10 672.35 651.90 670.56 654.10 670.56 C 656.31 670.56 658.10 672.35 658.10 674.56 z" />
        <desc>Point K: Intersection of d and g</desc>
      </g>
      <g class="point">
        <path d="M 514.39 591.59 C 514.39 593.80 512.60 595.59 510.39 595.59 C 508.18 595.59 506.39 593.80 506.39 591.59 C 506.39 589.38 508.18 587.59 510.39 587.59 C 512.60 587.59 514.39 589.38 514.39 591.59 z" />
        <path d="M 514.39 591.59 C 514.39 593.80 512.60 595.59 510.39 595.59 C 508.18 595.59 506.39 593.80 506.39 591.59 C 506.39 589.38 508.18 587.59 510.39 587.59 C 512.60 587.59 514.39 589.38 514.39 591.59 z" />
        <desc>Point L: Intersection of l and m</desc>
      </g>
      <g class="point golden">
        <path d="M 353.71 550.10 C 353.71 552.31 351.92 554.10 349.71 554.10 C 347.50 554.10 345.71 552.31 345.71 550.10 C 345.71 547.89 347.50 546.10 349.71 546.10 C 351.92 546.10 353.71 547.89 353.71 550.10 z" />
        <path d="M 353.71 550.10 C 353.71 552.31 351.92 554.10 349.71 554.10 C 347.50 554.10 345.71 552.31 345.71 550.10 C 345.71 547.89 347.50 546.10 349.71 546.10 C 351.92 546.10 353.71 547.89 353.71 550.10 z" />
        <desc>Point M: Intersection point of e, a</desc>
      </g>
      <g class="point">
        <path d="M 675.07 550.10 C 675.07 552.31 673.28 554.10 671.07 554.10 C 668.86 554.10 667.07 552.31 667.07 550.10 C 667.07 547.89 668.86 546.10 671.07 546.10 C 673.28 546.10 675.07 547.89 675.07 550.10 z" />
        <path d="M 675.07 550.10 C 675.07 552.31 673.28 554.10 671.07 554.10 C 668.86 554.10 667.07 552.31 667.07 550.10 C 667.07 547.89 668.86 546.10 671.07 546.10 C 673.28 546.10 675.07 547.89 675.07 550.10 z" />
        <desc>Point N: Intersection point of e, a</desc>
      </g>
      <g class="point">
        <path d="M 398.12 473.18 C 398.12 475.39 396.33 477.18 394.12 477.18 C 391.91 477.18 390.12 475.39 390.12 473.18 C 390.12 470.97 391.91 469.18 394.12 469.18 C 396.33 469.18 398.12 470.97 398.12 473.18 z" />
        <path d="M 398.12 473.18 C 398.12 475.39 396.33 477.18 394.12 477.18 C 391.91 477.18 390.12 475.39 390.12 473.18 C 390.12 470.97 391.91 469.18 394.12 469.18 C 396.33 469.18 398.12 470.97 398.12 473.18 z" />
        <desc>Point O: Intersection point of e, h</desc>
      </g>
      <g class="point">
        <path d="M 558.80 751.48 C 558.80 753.69 557.01 755.48 554.80 755.48 C 552.59 755.48 550.80 753.69 550.80 751.48 C 550.80 749.27 552.59 747.48 554.80 747.48 C 557.01 747.48 558.80 749.27 558.80 751.48 z" />
        <path d="M 558.80 751.48 C 558.80 753.69 557.01 755.48 554.80 755.48 C 552.59 755.48 550.80 753.69 550.80 751.48 C 550.80 749.27 552.59 747.48 554.80 747.48 C 557.01 747.48 558.80 749.27 558.80 751.48 z" />
        <desc>Point P: Intersection point of e, h</desc>
      </g>
      <g class="point">
        <path d="M 630.66 473.18 C 630.66 475.39 628.87 477.18 626.66 477.18 C 624.45 477.18 622.66 475.39 622.66 473.18 C 622.66 470.97 624.45 469.18 626.66 469.18 C 628.87 469.18 630.66 470.97 630.66 473.18 z" />
        <path d="M 630.66 473.18 C 630.66 475.39 628.87 477.18 626.66 477.18 C 624.45 477.18 622.66 475.39 622.66 473.18 C 622.66 470.97 624.45 469.18 626.66 469.18 C 628.87 469.18 630.66 470.97 630.66 473.18 z" />
        <desc>Point Q: Intersection point of e, i</desc>
      </g>
      <g class="point">
        <path d="M 469.98 751.48 C 469.98 753.69 468.19 755.48 465.98 755.48 C 463.77 755.48 461.98 753.69 461.98 751.48 C 461.98 749.27 463.77 747.48 465.98 747.48 C 468.19 747.48 469.98 749.27 469.98 751.48 z" />
        <path d="M 469.98 751.48 C 469.98 753.69 468.19 755.48 465.98 755.48 C 463.77 755.48 461.98 753.69 461.98 751.48 C 461.98 749.27 463.77 747.48 465.98 747.48 C 468.19 747.48 469.98 749.27 469.98 751.48 z" />
        <desc>Point R: Intersection point of e, i</desc>
      </g>
      <g class="point">
        <path d="M 193.04 674.56 C 193.04 676.77 191.25 678.56 189.04 678.56 C 186.83 678.56 185.04 676.77 185.04 674.56 C 185.04 672.35 186.83 670.56 189.04 670.56 C 191.25 670.56 193.04 672.35 193.04 674.56 z" />
        <path d="M 193.04 674.56 C 193.04 676.77 191.25 678.56 189.04 678.56 C 186.83 678.56 185.04 676.77 185.04 674.56 C 185.04 672.35 186.83 670.56 189.04 670.56 C 191.25 670.56 193.04 672.35 193.04 674.56 z" />
        <desc>Point T: Intersection of j and p</desc>
      </g>
      <g class="point">
        <path d="M 480.46 674.56 C 480.46 676.77 478.67 678.56 476.46 678.56 C 474.26 678.56 472.46 676.77 472.46 674.56 C 472.46 672.35 474.26 670.56 476.46 670.56 C 478.67 670.56 480.46 672.35 480.46 674.56 z" />
        <path d="M 480.46 674.56 C 480.46 676.77 478.67 678.56 476.46 678.56 C 474.26 678.56 472.46 676.77 472.46 674.56 C 472.46 672.35 474.26 670.56 476.46 670.56 C 478.67 670.56 480.46 672.35 480.46 674.56 z" />
        <desc>Point U: Intersection of q and j</desc>
      </g>
      <g class="point">
        <path d="M 548.32 674.56 C 548.32 676.77 546.53 678.56 544.32 678.56 C 542.11 678.56 540.32 676.77 540.32 674.56 C 540.32 672.35 542.11 670.56 544.32 670.56 C 546.53 670.56 548.32 672.35 548.32 674.56 z" />
        <path d="M 548.32 674.56 C 548.32 676.77 546.53 678.56 544.32 678.56 C 542.11 678.56 540.32 676.77 540.32 674.56 C 540.32 672.35 542.11 670.56 544.32 670.56 C 546.53 670.56 548.32 672.35 548.32 674.56 z" />
        <desc>Point V: Intersection of r and j</desc>
      </g>
      <g class="point">
        <path d="M 835.74 674.56 C 835.74 676.77 833.95 678.56 831.74 678.56 C 829.54 678.56 827.74 676.77 827.74 674.56 C 827.74 672.35 829.54 670.56 831.74 670.56 C 833.95 670.56 835.74 672.35 835.74 674.56 z" />
        <path d="M 835.74 674.56 C 835.74 676.77 833.95 678.56 831.74 678.56 C 829.54 678.56 827.74 676.77 827.74 674.56 C 827.74 672.35 829.54 670.56 831.74 670.56 C 833.95 670.56 835.74 672.35 835.74 674.56 z" />
        <desc>Point Z: Intersection of s and j</desc>
      </g>
      <g class="point">
        <path d="M 1123.2 674.56 C 1123.2 676.77 1121.4 678.56 1119.2 678.56 C 1117.0 678.56 1115.2 676.77 1115.2 674.56 C 1115.2 672.35 1117.0 670.56 1119.2 670.56 C 1121.4 670.56 1123.2 672.35 1123.2 674.56 z" />
        <path d="M 1123.2 674.56 C 1123.2 676.77 1121.4 678.56 1119.2 678.56 C 1117.0 678.56 1115.2 676.77 1115.2 674.56 C 1115.2 672.35 1117.0 670.56 1119.2 670.56 C 1121.4 670.56 1123.2 672.35 1123.2 674.56 z" />
        <desc>Point A_1: Intersection of t and j</desc>
      </g>
      <g class="point golden">
        <path d="M 774.37 224.26 C 774.37 226.47 772.58 228.26 770.37 228.26 C 768.16 228.26 766.37 226.47 766.37 224.26 C 766.37 222.05 768.16 220.26 770.37 220.26 C 772.58 220.26 774.37 222.05 774.37 224.26 z" />
        <path d="M 774.37 224.26 C 774.37 226.47 772.58 228.26 770.37 228.26 C 768.16 228.26 766.37 226.47 766.37 224.26 C 766.37 222.05 768.16 220.26 770.37 220.26 C 772.58 220.26 774.37 222.05 774.37 224.26 z" />
        <desc>Point W: Intersection of i and p</desc>
      </g>
      <g class="point">
        <path d="M 702.51 348.72 C 702.51 350.93 700.72 352.72 698.51 352.72 C 696.31 352.72 694.51 350.93 694.51 348.72 C 694.51 346.51 696.31 344.72 698.51 344.72 C 700.72 344.72 702.51 346.51 702.51 348.72 z" />
        <path d="M 702.51 348.72 C 702.51 350.93 700.72 352.72 698.51 352.72 C 696.31 352.72 694.51 350.93 694.51 348.72 C 694.51 346.51 696.31 344.72 698.51 344.72 C 700.72 344.72 702.51 346.51 702.51 348.72 z" />
        <desc>Point B_1: Intersection of i and n</desc>
      </g>
      <g class="point">
        <path d="M 613.69 502.56 C 613.69 504.77 611.90 506.56 609.69 506.56 C 607.49 506.56 605.69 504.77 605.69 502.56 C 605.69 500.35 607.49 498.56 609.69 498.56 C 611.90 498.56 613.69 500.35 613.69 502.56 z" />
        <path d="M 613.69 502.56 C 613.69 504.77 611.90 506.56 609.69 506.56 C 607.49 506.56 605.69 504.77 605.69 502.56 C 605.69 500.35 607.49 498.56 609.69 498.56 C 611.90 498.56 613.69 500.35 613.69 502.56 z" />
        <desc>Point C_1: Intersection of i and s</desc>
      </g>
      <g class="point">
        <path d="M 541.84 627.02 C 541.84 629.23 540.05 631.02 537.84 631.02 C 535.63 631.02 533.84 629.23 533.84 627.02 C 533.84 624.81 535.63 623.02 537.84 623.02 C 540.05 623.02 541.84 624.81 541.84 627.02 z" />
        <path d="M 541.84 627.02 C 541.84 629.23 540.05 631.02 537.84 631.02 C 535.63 631.02 533.84 629.23 533.84 627.02 C 533.84 624.81 535.63 623.02 537.84 623.02 C 540.05 623.02 541.84 624.81 541.84 627.02 z" />
        <desc>Point D_1: Intersection of r and i</desc>
      </g>
      <g class="point">
        <path d="M 489.84 605.76 C 489.84 607.97 488.05 609.76 485.84 609.76 C 483.63 609.76 481.84 607.97 481.84 605.76 C 481.84 603.55 483.63 601.76 485.84 601.76 C 488.05 601.76 489.84 603.55 489.84 605.76 z" />
        <path d="M 489.84 605.76 C 489.84 607.97 488.05 609.76 485.84 609.76 C 483.63 609.76 481.84 607.97 481.84 605.76 C 481.84 603.55 483.63 601.76 485.84 601.76 C 488.05 601.76 489.84 603.55 489.84 605.76 z" />
        <desc>Point E_1: Intersection of q and l</desc>
      </g>
      <g class="point">
        <path d="M 535.36 579.48 C 535.36 581.69 533.57 583.48 531.36 583.48 C 529.15 583.48 527.36 581.69 527.36 579.48 C 527.36 577.27 529.15 575.48 531.36 575.48 C 533.57 575.48 535.36 577.27 535.36 579.48 z" />
        <path d="M 535.36 579.48 C 535.36 581.69 533.57 583.48 531.36 583.48 C 529.15 583.48 527.36 581.69 527.36 579.48 C 527.36 577.27 529.15 575.48 531.36 575.48 C 533.57 575.48 535.36 577.27 535.36 579.48 z" />
        <desc>Point F_1: Intersection of r and l</desc>
      </g>
      <g class="point">
        <path d="M 637.14 520.72 C 637.14 522.93 635.35 524.72 633.14 524.72 C 630.93 524.72 629.14 522.93 629.14 520.72 C 629.14 518.51 630.93 516.72 633.14 516.72 C 635.35 516.72 637.14 518.51 637.14 520.72 z" />
        <path d="M 637.14 520.72 C 637.14 522.93 635.35 524.72 633.14 524.72 C 630.93 524.72 629.14 522.93 629.14 520.72 C 629.14 518.51 630.93 516.72 633.14 516.72 C 635.35 516.72 637.14 518.51 637.14 520.72 z" />
        <desc>Point G_1: Intersection of s and l</desc>
      </g>
      <g class="point">
        <path d="M 682.65 494.44 C 682.65 496.65 680.86 498.44 678.65 498.44 C 676.44 498.44 674.65 496.65 674.65 494.44 C 674.65 492.23 676.44 490.44 678.65 490.44 C 680.86 490.44 682.65 492.23 682.65 494.44 z" />
        <path d="M 682.65 494.44 C 682.65 496.65 680.86 498.44 678.65 498.44 C 676.44 498.44 674.65 496.65 674.65 494.44 C 674.65 492.23 676.44 490.44 678.65 490.44 C 680.86 490.44 682.65 492.23 682.65 494.44 z" />
        <desc>Point H_1: Intersection of t and l</desc>
      </g>
      <g class="point">
        <path d="M 801.82 425.64 C 801.82 427.85 800.03 429.64 797.82 429.64 C 795.61 429.64 793.82 427.85 793.82 425.64 C 793.82 423.43 795.61 421.64 797.82 421.64 C 800.03 421.64 801.82 423.43 801.82 425.64 z" />
        <path d="M 801.82 425.64 C 801.82 427.85 800.03 429.64 797.82 429.64 C 795.61 429.64 793.82 427.85 793.82 425.64 C 793.82 423.43 795.61 421.64 797.82 421.64 C 800.03 421.64 801.82 423.43 801.82 425.64 z" />
        <desc>Point I_1: Intersection of k and l</desc>
      </g>
      <g class="point">
        <path d="M 524.87 502.56 C 524.87 504.77 523.08 506.56 520.87 506.56 C 518.67 506.56 516.87 504.77 516.87 502.56 C 516.87 500.35 518.67 498.56 520.87 498.56 C 523.08 498.56 524.87 500.35 524.87 502.56 z" />
        <path d="M 524.87 502.56 C 524.87 504.77 523.08 506.56 520.87 506.56 C 518.67 506.56 516.87 504.77 516.87 502.56 C 516.87 500.35 518.67 498.56 520.87 498.56 C 523.08 498.56 524.87 500.35 524.87 502.56 z" />
        <desc>Point L_1: Intersection of r and q_1</desc>
      </g>
      <g class="point">
        <path d="M 459.50 520.72 C 459.50 522.93 457.71 524.72 455.50 524.72 C 453.29 524.72 451.50 522.93 451.50 520.72 C 451.50 518.51 453.29 516.72 455.50 516.72 C 457.71 516.72 459.50 518.51 459.50 520.72 z" />
        <path d="M 459.50 520.72 C 459.50 522.93 457.71 524.72 455.50 524.72 C 453.29 524.72 451.50 522.93 451.50 520.72 C 451.50 518.51 453.29 516.72 455.50 516.72 C 457.71 516.72 459.50 518.51 459.50 520.72 z" />
        <desc>Point M_1: Intersection of f and q_1</desc>
      </g>
      <g class="point">
        <path d="M 736.44 443.80 C 736.44 446.01 734.65 447.80 732.44 447.80 C 730.23 447.80 728.44 446.01 728.44 443.80 C 728.44 441.59 730.23 439.80 732.44 439.80 C 734.65 439.80 736.44 441.59 736.44 443.80 z" />
        <path d="M 736.44 443.80 C 736.44 446.01 734.65 447.80 732.44 447.80 C 730.23 447.80 728.44 446.01 728.44 443.80 C 728.44 441.59 730.23 439.80 732.44 439.80 C 734.65 439.80 736.44 441.59 736.44 443.80 z" />
        <desc>Point N_1: Intersection of n_1 and q_1</desc>
      </g>
      <g class="point">
        <path d="M 210.00 550.10 C 210.00 552.31 208.21 554.10 206.00 554.10 C 203.79 554.10 202.00 552.31 202.00 550.10 C 202.00 547.89 203.79 546.10 206.00 546.10 C 208.21 546.10 210.00 547.89 210.00 550.10 z" />
        <path d="M 210.00 550.10 C 210.00 552.31 208.21 554.10 206.00 554.10 C 203.79 554.10 202.00 552.31 202.00 550.10 C 202.00 547.89 203.79 546.10 206.00 546.10 C 208.21 546.10 210.00 547.89 210.00 550.10 z" />
        <desc>Point O_1: Intersection of n and a</desc>
      </g>
      <g class="point golden">
        <path d="M 935.05 99.803 C 935.05 102.01 933.26 103.80 931.05 103.80 C 928.84 103.80 927.05 102.01 927.05 99.803 C 927.05 97.593 928.84 95.803 931.05 95.803 C 933.26 95.803 935.05 97.593 935.05 99.803 z" />
        <path d="M 935.05 99.803 C 935.05 102.01 933.26 103.80 931.05 103.80 C 928.84 103.80 927.05 102.01 927.05 99.803 C 927.05 97.593 928.84 95.803 931.05 95.803 C 933.26 95.803 935.05 97.593 935.05 99.803 z" />
        <desc>Point P_1: Intersection of n_1 and p</desc>
      </g>
    </g>
  </g>
</svg>
