<?xml version="1.0" encoding="iso-8859-1" standalone="no"?>
<svg version="1.1" baseProfile="full"
xmlns="http://www.w3.org/2000/svg"
xmlns:xlink="http://www.w3.org/1999/xlink"
xmlns:ev="http://www.w3.org/2001/xml-events" x="0px" y="0px"
width="1218px" height="860px" viewBox="0 0 1218 860">
  <style>
.golden { stroke: #DA0; stroke-opacity: 0.4; fill: #DA0; } 
.selected { stroke: #69C; stroke-opacity: 0.4; fill: #69C; } 
.point { stroke: black; stroke-width: 1.5; fill: white; }
.point > path:nth-child(1) { stroke: black;  fill: none; }
.point > path:nth-child(2) { stroke: black; stroke-width: 1.5;  fill: white; }
.point.golden > path:nth-child(1) { stroke-width: 12;   stroke: #DA0; stroke-opacity: 0.4; fill: #DA0;  }
.point.golden > path:nth-child(2) { stroke: black; stroke-width: 1.5; stroke-opacity: 1; fill: white; }
.point.selected > path:nth-child(1) { stroke-width: 12;   stroke: #69C; stroke-opacity: 0.4; fill: #DA0;  }
.point.selected > path:nth-child(2) { stroke: black; stroke-width: 1.5; stroke-opacity: 1; fill: white; }
.line { stroke: #93C; stroke-width: 1.5; stroke-opacity: 1; stroke-dasharray: 1.5 3;  } 
.line.selected { stroke: #69C; }
.line.highlight { stroke-dasharray: none; stroke-width: 3; }
.circle {fill: none; stroke: #93C; stroke-width: 1.5; stroke-opacity: 1; stroke-dasharray: 1.5 3; }
.polygon { stroke-width: 5; stroke-linejoin: round;  fill: #93C; fill-opacity: .1; } 
.bisector { stroke-dasharray: 1.5, 3, 5, 3; }
.segment {} 
.segment.golden > path:nth-child(2) { stroke: none;  }
.a { stroke-width: 4; } 
.b { stroke-width: 8; } 
.c { stroke-width: 12; } 
.d { stroke-width: 16; } 
#base .circle { stroke: #777; }
#base .line { stroke: #777; }
  </style>
  <g stroke-linejoin="miter" stroke-dashoffset="0.0000"
  stroke-dasharray="none" stroke-width="1.0000"
  stroke-miterlimit="10.000" stroke-linecap="square">
    <g id="misc"></g>
    <g id="base">
      <g class="circle">
        <path d="M 673.11 397.95 C 673.11 468.76 615.70 526.16 544.89 526.16 C 474.09 526.16 416.68 468.76 416.68 397.95 C 416.68 327.14 474.09 269.74 544.89 269.74 C 615.70 269.74 673.11 327.14 673.11 397.95 z" />
        <desc>Circle c: Circle through B with center A</desc>
      </g>
      <g class="circle">
        <path d="M 801.32 397.95 C 801.32 468.76 743.91 526.16 673.11 526.16 C 602.30 526.16 544.89 468.76 544.89 397.95 C 544.89 327.14 602.30 269.74 673.11 269.74 C 743.91 269.74 801.32 327.14 801.32 397.95 z" />
        <desc>Circle d: Circle through A with center B</desc>
      </g>
      <g class="line">
        <path d="M -5.0000 397.95 L 1223.0 397.95" />
        <desc>Line a: Line A, B</desc>
      </g>
    </g>
    <g id="main">
      <g class="line bisector">
        <path d="M 609.00 865.00 L 609.00 -5.0000" />
        <desc>Line b: Line D, C</desc>
      </g>
      <g class="line">
        <path d="M 814.55 865.00 L 312.25 -5.0000" />
        <desc>Line h: Line A, C</desc>
      </g>
      <g class="line">
        <path d="M 403.45 865.00 L 905.75 -5.0000" />
        <desc>Line i: Line B, C</desc>
      </g>
      <g class="line">
        <path d="M -5.0000 286.91 L 1223.0 286.91" />
        <desc>Line k: Line H, I</desc>
      </g>
    </g>
    <g id="layer1"></g>
    <g id="layer2"></g>
    <g id="layer3"></g>
    <g id="layer4"></g>
    <g id="layer5"></g>
    <g id="layer6"></g>
    <g id="layer7"></g>
    <g id="layer8">
      <g fill-opacity=".14902" fill-rule="evenodd" stroke="none"
      fill="#93C">
        <path d="M 609.00 286.91 L 480.79 508.98 L 737.21 508.98 z" />
        <desc>Triangle t1: Polygon D, J, K</desc>
      </g>
      <g class="circle">
        <path d="M 757.04 434.96 C 757.04 516.72 690.76 583.00 609.00 583.00 C 527.24 583.00 460.96 516.72 460.96 434.96 C 460.96 353.20 527.24 286.91 609.00 286.91 C 690.76 286.91 757.04 353.20 757.04 434.96 z" />
        <desc>Circle e: Circle through K with center L</desc>
      </g>
      <g class="line">
        <path d="M 275.24 865.00 L 777.54 -5.0000" />
        <desc>Line f: Line A, D</desc>
      </g>
      <g class="line">
        <path d="M 942.76 865.00 L 440.46 -5.0000" />
        <desc>Line g: Line B, D</desc>
      </g>
      <g class="line">
        <path d="M -5.0000 508.98 L 1223.0 508.98" />
        <desc>Line j: Line J, K</desc>
      </g>
      <g class="line bisector">
        <path d="M -5.0000 789.45 L 1223.0 80.465" />
        <desc>Line l: Line J, B</desc>
      </g>
      <g class="line bisector">
        <path d="M -5.0000 80.465 L 1223.0 789.45" />
        <desc>Line m: Line K, A</desc>
      </g>
      <g class="line">
        <path d="M -5.0000 537.97 L 1223.0 35.860" />
        <desc>Line n: Line D, O</desc>
      </g>
      <g class="line">
        <path d="M -5.0000 762.52 L 985.86 -5.0000" />
        <desc>Line p: Line D, M</desc>
      </g>
      <g class="line">
        <path d="M 530.21 865.00 L 648.79 -5.0000" />
        <desc>Line q: Line D, R</desc>
      </g>
      <g class="line">
        <path d="M 687.79 865.00 L 569.21 -5.0000" />
        <desc>Line r: Line D, P</desc>
      </g>
      <g class="line">
        <path d="M 232.14 -5.0000 L 1223.0 762.52" />
        <desc>Line s: Line D, N</desc>
      </g>
      <g class="line">
        <path d="M -5.0000 35.860 L 1223.0 537.97" />
        <desc>Line t: Line D, Q</desc>
      </g>
      <g class="line">
        <path d="M 735.31 865.00 L 233.01 -5.0000" />
        <desc>Line m_1: Line R, M</desc>
      </g>
      <g class="line">
        <path d="M 482.69 865.00 L 984.99 -5.0000" />
        <desc>Line n_1: Line N, P</desc>
      </g>
      <g class="line">
        <path d="M -5.0000 187.60 L 1223.0 528.67" />
        <desc>Line p_1: Line O, N</desc>
      </g>
      <g class="line">
        <path d="M -5.0000 528.67 L 1223.0 187.60" />
        <desc>Line q_1: Line Q, M</desc>
      </g>
      <g class="line">
        <path d="M 529.31 865.00 L 410.74 -5.0000" />
        <desc>Line r_1: Line J, M</desc>
      </g>
      <g class="line">
        <path d="M 432.27 865.00 L 550.84 -5.0000" />
        <desc>Line s_1: Line J, O</desc>
      </g>
      <g class="line">
        <path d="M 21.171 865.00 L 1144.3 -5.0000" />
        <desc>Line t_1: Line J, Q</desc>
      </g>
      <g class="line">
        <path d="M -5.0000 707.61 L 1223.0 205.50" />
        <desc>Line a_1: Line J, N</desc>
      </g>
      <g class="line">
        <path d="M -5.0000 310.35 L 1223.0 812.46" />
        <desc>Line b_1: Line J, P</desc>
      </g>
      <g class="line">
        <path d="M -5.0000 132.69 L 940.41 865.00" />
        <desc>Line c_1: Line J, R</desc>
      </g>
      <g class="line">
        <path d="M 688.69 865.00 L 807.26 -5.0000" />
        <desc>Line d_1: Line K, N</desc>
      </g>
      <g class="line">
        <path d="M 785.73 865.00 L 667.16 -5.0000" />
        <desc>Line e_1: Line K, Q</desc>
      </g>
      <g class="line">
        <path d="M 73.664 -5.0000 L 1196.8 865.00" />
        <desc>Line f_2: Line K, O</desc>
      </g>
      <g class="line">
        <path d="M -5.0000 205.50 L 1223.0 707.61" />
        <desc>Line g_2: Line K, M</desc>
      </g>
      <g class="line">
        <path d="M -5.0000 812.46 L 1223.0 310.35" />
        <desc>Line h_2: Line K, R</desc>
      </g>
      <g class="line">
        <path d="M 277.59 865.00 L 1223.0 132.69" />
        <desc>Line i_2: Line K, P</desc>
      </g>
      <g class="point">
        <path d="M 844.94 107.26 C 844.94 109.47 843.14 111.26 840.94 111.26 C 838.73 111.26 836.94 109.47 836.94 107.26 C 836.94 105.05 838.73 103.26 840.94 103.26 C 843.14 103.26 844.94 105.05 844.94 107.26 z" />
        <path d="M 844.94 107.26 C 844.94 109.47 843.14 111.26 840.94 111.26 C 838.73 111.26 836.94 109.47 836.94 107.26 C 836.94 105.05 838.73 103.26 840.94 103.26 C 843.14 103.26 844.94 105.05 844.94 107.26 z" />
        <desc>Point W: Intersection of i and p</desc>
      </g>
      <g class="point">
        <path d="M 780.83 218.29 C 780.83 220.50 779.04 222.29 776.83 222.29 C 774.62 222.29 772.83 220.50 772.83 218.29 C 772.83 216.08 774.62 214.29 776.83 214.29 C 779.04 214.29 780.83 216.08 780.83 218.29 z" />
        <path d="M 780.83 218.29 C 780.83 220.50 779.04 222.29 776.83 222.29 C 774.62 222.29 772.83 220.50 772.83 218.29 C 772.83 216.08 774.62 214.29 776.83 214.29 C 779.04 214.29 780.83 216.08 780.83 218.29 z" />
        <desc>Point B_1: Intersection of i and n</desc>
      </g>
      <g class="point">
        <path d="M 701.59 355.54 C 701.59 357.75 699.80 359.54 697.59 359.54 C 695.38 359.54 693.59 357.75 693.59 355.54 C 693.59 353.33 695.38 351.54 697.59 351.54 C 699.80 351.54 701.59 353.33 701.59 355.54 z" />
        <path d="M 701.59 355.54 C 701.59 357.75 699.80 359.54 697.59 359.54 C 695.38 359.54 693.59 357.75 693.59 355.54 C 693.59 353.33 695.38 351.54 697.59 351.54 C 699.80 351.54 701.59 353.33 701.59 355.54 z" />
        <desc>Point C_1: Intersection of i and s</desc>
      </g>
      <g class="point">
        <path d="M 637.49 466.57 C 637.49 468.78 635.70 470.57 633.49 470.57 C 631.28 470.57 629.49 468.78 629.49 466.57 C 629.49 464.36 631.28 462.57 633.49 462.57 C 635.70 462.57 637.49 464.36 637.49 466.57 z" />
        <path d="M 637.49 466.57 C 637.49 468.78 635.70 470.57 633.49 470.57 C 631.28 470.57 629.49 468.78 629.49 466.57 C 629.49 464.36 631.28 462.57 633.49 462.57 C 635.70 462.57 637.49 464.36 637.49 466.57 z" />
        <desc>Point D_1: Intersection of r and i</desc>
      </g>
      <g class="point">
        <path d="M 591.10 447.60 C 591.10 449.81 589.31 451.60 587.10 451.60 C 584.89 451.60 583.10 449.81 583.10 447.60 C 583.10 445.39 584.89 443.60 587.10 443.60 C 589.31 443.60 591.10 445.39 591.10 447.60 z" />
        <path d="M 591.10 447.60 C 591.10 449.81 589.31 451.60 587.10 451.60 C 584.89 451.60 583.10 449.81 583.10 447.60 C 583.10 445.39 584.89 443.60 587.10 443.60 C 589.31 443.60 591.10 445.39 591.10 447.60 z" />
        <desc>Point E_1: Intersection of q and l</desc>
      </g>
      <g class="point">
        <path d="M 631.71 424.16 C 631.71 426.37 629.91 428.16 627.71 428.16 C 625.50 428.16 623.71 426.37 623.71 424.16 C 623.71 421.95 625.50 420.16 627.71 420.16 C 629.91 420.16 631.71 421.95 631.71 424.16 z" />
        <path d="M 631.71 424.16 C 631.71 426.37 629.91 428.16 627.71 428.16 C 625.50 428.16 623.71 426.37 623.71 424.16 C 623.71 421.95 625.50 420.16 627.71 420.16 C 629.91 420.16 631.71 421.95 631.71 424.16 z" />
        <desc>Point F_1: Intersection of r and l</desc>
      </g>
      <g class="point">
        <path d="M 722.50 371.74 C 722.50 373.95 720.71 375.74 718.50 375.74 C 716.30 375.74 714.50 373.95 714.50 371.74 C 714.50 369.53 716.30 367.74 718.50 367.74 C 720.71 367.74 722.50 369.53 722.50 371.74 z" />
        <path d="M 722.50 371.74 C 722.50 373.95 720.71 375.74 718.50 375.74 C 716.30 375.74 714.50 373.95 714.50 371.74 C 714.50 369.53 716.30 367.74 718.50 367.74 C 720.71 367.74 722.50 369.53 722.50 371.74 z" />
        <desc>Point G_1: Intersection of s and l</desc>
      </g>
      <g class="point">
        <path d="M 763.11 348.29 C 763.11 350.50 761.32 352.29 759.11 352.29 C 756.90 352.29 755.11 350.50 755.11 348.29 C 755.11 346.08 756.90 344.29 759.11 344.29 C 761.32 344.29 763.11 346.08 763.11 348.29 z" />
        <path d="M 763.11 348.29 C 763.11 350.50 761.32 352.29 759.11 352.29 C 756.90 352.29 755.11 350.50 755.11 348.29 C 755.11 346.08 756.90 344.29 759.11 344.29 C 761.32 344.29 763.11 346.08 763.11 348.29 z" />
        <desc>Point H_1: Intersection of t and l</desc>
      </g>
      <g class="point">
        <path d="M 869.42 286.91 C 869.42 289.12 867.63 290.91 865.42 290.91 C 863.21 290.91 861.42 289.12 861.42 286.91 C 861.42 284.70 863.21 282.91 865.42 282.91 C 867.63 282.91 869.42 284.70 869.42 286.91 z" />
        <path d="M 869.42 286.91 C 869.42 289.12 867.63 290.91 865.42 290.91 C 863.21 290.91 861.42 289.12 861.42 286.91 C 861.42 284.70 863.21 282.91 865.42 282.91 C 867.63 282.91 869.42 284.70 869.42 286.91 z" />
        <desc>Point I_1: Intersection of k and l</desc>
      </g>
      <g class="point">
        <path d="M 622.35 355.54 C 622.35 357.75 620.56 359.54 618.35 359.54 C 616.14 359.54 614.35 357.75 614.35 355.54 C 614.35 353.33 616.14 351.54 618.35 351.54 C 620.56 351.54 622.35 353.33 622.35 355.54 z" />
        <path d="M 622.35 355.54 C 622.35 357.75 620.56 359.54 618.35 359.54 C 616.14 359.54 614.35 357.75 614.35 355.54 C 614.35 353.33 616.14 351.54 618.35 351.54 C 620.56 351.54 622.35 353.33 622.35 355.54 z" />
        <desc>Point L_1: Intersection of r and q_1</desc>
      </g>
      <g class="point">
        <path d="M 564.03 371.74 C 564.03 373.95 562.24 375.74 560.03 375.74 C 557.82 375.74 556.03 373.95 556.03 371.74 C 556.03 369.53 557.82 367.74 560.03 367.74 C 562.24 367.74 564.03 369.53 564.03 371.74 z" />
        <path d="M 564.03 371.74 C 564.03 373.95 562.24 375.74 560.03 375.74 C 557.82 375.74 556.03 373.95 556.03 371.74 C 556.03 369.53 557.82 367.74 560.03 367.74 C 562.24 367.74 564.03 369.53 564.03 371.74 z" />
        <desc>Point M_1: Intersection of f and q_1</desc>
      </g>
      <g class="point">
        <path d="M 811.10 303.11 C 811.10 305.32 809.31 307.11 807.10 307.11 C 804.89 307.11 803.10 305.32 803.10 303.11 C 803.10 300.90 804.89 299.11 807.10 299.11 C 809.31 299.11 811.10 300.90 811.10 303.11 z" />
        <path d="M 811.10 303.11 C 811.10 305.32 809.31 307.11 807.10 307.11 C 804.89 307.11 803.10 305.32 803.10 303.11 C 803.10 300.90 804.89 299.11 807.10 299.11 C 809.31 299.11 811.10 300.90 811.10 303.11 z" />
        <desc>Point N_1: Intersection of n_1 and q_1</desc>
      </g>
      <g class="point">
        <path d="M 341.45 397.95 C 341.45 400.16 339.65 401.95 337.45 401.95 C 335.24 401.95 333.45 400.16 333.45 397.95 C 333.45 395.74 335.24 393.95 337.45 393.95 C 339.65 393.95 341.45 395.74 341.45 397.95 z" />
        <path d="M 341.45 397.95 C 341.45 400.16 339.65 401.95 337.45 401.95 C 335.24 401.95 333.45 400.16 333.45 397.95 C 333.45 395.74 335.24 393.95 337.45 393.95 C 339.65 393.95 341.45 395.74 341.45 397.95 z" />
        <desc>Point O_1: Intersection of n and a</desc>
      </g>
      <g class="point">
        <path d="M 988.28 -3.7759 C 988.28 -1.5667 986.49 .22413 984.28 .22413 C 982.07 .22413 980.28 -1.5667 980.28 -3.7759 C 980.28 -5.9850 982.07 -7.7759 984.28 -7.7759 C 986.49 -7.7759 988.28 -5.9850 988.28 -3.7759 z" />
        <path d="M 988.28 -3.7759 C 988.28 -1.5667 986.49 .22413 984.28 .22413 C 982.07 .22413 980.28 -1.5667 980.28 -3.7759 C 980.28 -5.9850 982.07 -7.7759 984.28 -7.7759 C 986.49 -7.7759 988.28 -5.9850 988.28 -3.7759 z" />
        <desc>Point P_1: Intersection of n_1 and p</desc>
      </g>
    </g>
    <g id="layer9">
      <g class="point">
        <path d="M 548.89 397.95 C 548.89 400.16 547.10 401.95 544.89 401.95 C 542.69 401.95 540.89 400.16 540.89 397.95 C 540.89 395.74 542.69 393.95 544.89 393.95 C 547.10 393.95 548.89 395.74 548.89 397.95 z" />
        <path d="M 548.89 397.95 C 548.89 400.16 547.10 401.95 544.89 401.95 C 542.69 401.95 540.89 400.16 540.89 397.95 C 540.89 395.74 542.69 393.95 544.89 393.95 C 547.10 393.95 548.89 395.74 548.89 397.95 z" />
        <desc>Point A: Point on xAxis</desc>
      </g>
      <g class="point">
        <path d="M 677.11 397.95 C 677.11 400.16 675.31 401.95 673.11 401.95 C 670.90 401.95 669.11 400.16 669.11 397.95 C 669.11 395.74 670.90 393.95 673.11 393.95 C 675.31 393.95 677.11 395.74 677.11 397.95 z" />
        <path d="M 677.11 397.95 C 677.11 400.16 675.31 401.95 673.11 401.95 C 670.90 401.95 669.11 400.16 669.11 397.95 C 669.11 395.74 670.90 393.95 673.11 393.95 C 675.31 393.95 677.11 395.74 677.11 397.95 z" />
        <desc>Point B: Point on xAxis</desc>
      </g>
      <g class="point">
        <path d="M 613.00 286.91 C 613.00 289.12 611.21 290.91 609.00 290.91 C 606.79 290.91 605.00 289.12 605.00 286.91 C 605.00 284.70 606.79 282.91 609.00 282.91 C 611.21 282.91 613.00 284.70 613.00 286.91 z" />
        <path d="M 613.00 286.91 C 613.00 289.12 611.21 290.91 609.00 290.91 C 606.79 290.91 605.00 289.12 605.00 286.91 C 605.00 284.70 606.79 282.91 609.00 282.91 C 611.21 282.91 613.00 284.70 613.00 286.91 z" />
        <desc>Point D: Intersection point of c, d</desc>
      </g>
      <g class="point">
        <path d="M 613.00 508.98 C 613.00 511.19 611.21 512.98 609.00 512.98 C 606.79 512.98 605.00 511.19 605.00 508.98 C 605.00 506.77 606.79 504.98 609.00 504.98 C 611.21 504.98 613.00 506.77 613.00 508.98 z" />
        <path d="M 613.00 508.98 C 613.00 511.19 611.21 512.98 609.00 512.98 C 606.79 512.98 605.00 511.19 605.00 508.98 C 605.00 506.77 606.79 504.98 609.00 504.98 C 611.21 504.98 613.00 506.77 613.00 508.98 z" />
        <desc>Point C: Intersection point of c, d</desc>
      </g>
      <g class="point">
        <path d="M 613.00 397.95 C 613.00 400.16 611.21 401.95 609.00 401.95 C 606.79 401.95 605.00 400.16 605.00 397.95 C 605.00 395.74 606.79 393.95 609.00 393.95 C 611.21 393.95 613.00 395.74 613.00 397.95 z" />
        <path d="M 613.00 397.95 C 613.00 400.16 611.21 401.95 609.00 401.95 C 606.79 401.95 605.00 400.16 605.00 397.95 C 605.00 395.74 606.79 393.95 609.00 393.95 C 611.21 393.95 613.00 395.74 613.00 397.95 z" />
        <desc>Point E: Intersection of a and b</desc>
      </g>
      <g class="point">
        <path d="M 741.21 286.91 C 741.21 289.12 739.42 290.91 737.21 290.91 C 735.00 290.91 733.21 289.12 733.21 286.91 C 733.21 284.70 735.00 282.91 737.21 282.91 C 739.42 282.91 741.21 284.70 741.21 286.91 z" />
        <path d="M 741.21 286.91 C 741.21 289.12 739.42 290.91 737.21 290.91 C 735.00 290.91 733.21 289.12 733.21 286.91 C 733.21 284.70 735.00 282.91 737.21 282.91 C 739.42 282.91 741.21 284.70 741.21 286.91 z" />
        <desc>Point I: Intersection of d and i</desc>
      </g>
      <g class="point">
        <path d="M 484.79 508.98 C 484.79 511.19 483.00 512.98 480.79 512.98 C 478.58 512.98 476.79 511.19 476.79 508.98 C 476.79 506.77 478.58 504.98 480.79 504.98 C 483.00 504.98 484.79 506.77 484.79 508.98 z" />
        <path d="M 484.79 508.98 C 484.79 511.19 483.00 512.98 480.79 512.98 C 478.58 512.98 476.79 511.19 476.79 508.98 C 476.79 506.77 478.58 504.98 480.79 504.98 C 483.00 504.98 484.79 506.77 484.79 508.98 z" />
        <desc>Point J: Intersection of c and f</desc>
      </g>
      <g class="point">
        <path d="M 741.21 508.98 C 741.21 511.19 739.42 512.98 737.21 512.98 C 735.00 512.98 733.21 511.19 733.21 508.98 C 733.21 506.77 735.00 504.98 737.21 504.98 C 739.42 504.98 741.21 506.77 741.21 508.98 z" />
        <path d="M 741.21 508.98 C 741.21 511.19 739.42 512.98 737.21 512.98 C 735.00 512.98 733.21 511.19 733.21 508.98 C 733.21 506.77 735.00 504.98 737.21 504.98 C 739.42 504.98 741.21 506.77 741.21 508.98 z" />
        <desc>Point K: Intersection of d and g</desc>
      </g>
      <g class="point">
        <path d="M 613.00 434.96 C 613.00 437.17 611.21 438.96 609.00 438.96 C 606.79 438.96 605.00 437.17 605.00 434.96 C 605.00 432.75 606.79 430.96 609.00 430.96 C 611.21 430.96 613.00 432.75 613.00 434.96 z" />
        <path d="M 613.00 434.96 C 613.00 437.17 611.21 438.96 609.00 438.96 C 606.79 438.96 605.00 437.17 605.00 434.96 C 605.00 432.75 606.79 430.96 609.00 430.96 C 611.21 430.96 613.00 432.75 613.00 434.96 z" />
        <desc>Point L: Intersection of l and m</desc>
      </g>
      <g class="point">
        <path d="M 469.66 397.95 C 469.66 400.16 467.87 401.95 465.66 401.95 C 463.45 401.95 461.66 400.16 461.66 397.95 C 461.66 395.74 463.45 393.95 465.66 393.95 C 467.87 393.95 469.66 395.74 469.66 397.95 z" />
        <path d="M 469.66 397.95 C 469.66 400.16 467.87 401.95 465.66 401.95 C 463.45 401.95 461.66 400.16 461.66 397.95 C 461.66 395.74 463.45 393.95 465.66 393.95 C 467.87 393.95 469.66 395.74 469.66 397.95 z" />
        <desc>Point M: Intersection point of e, a</desc>
      </g>
      <g class="point">
        <path d="M 756.34 397.95 C 756.34 400.16 754.55 401.95 752.34 401.95 C 750.13 401.95 748.34 400.16 748.34 397.95 C 748.34 395.74 750.13 393.95 752.34 393.95 C 754.55 393.95 756.34 395.74 756.34 397.95 z" />
        <path d="M 756.34 397.95 C 756.34 400.16 754.55 401.95 752.34 401.95 C 750.13 401.95 748.34 400.16 748.34 397.95 C 748.34 395.74 750.13 393.95 752.34 393.95 C 754.55 393.95 756.34 395.74 756.34 397.95 z" />
        <desc>Point N: Intersection point of e, a</desc>
      </g>
      <g class="point">
        <path d="M 509.28 329.32 C 509.28 331.53 507.48 333.32 505.28 333.32 C 503.07 333.32 501.28 331.53 501.28 329.32 C 501.28 327.12 503.07 325.32 505.28 325.32 C 507.48 325.32 509.28 327.12 509.28 329.32 z" />
        <path d="M 509.28 329.32 C 509.28 331.53 507.48 333.32 505.28 333.32 C 503.07 333.32 501.28 331.53 501.28 329.32 C 501.28 327.12 503.07 325.32 505.28 325.32 C 507.48 325.32 509.28 327.12 509.28 329.32 z" />
        <desc>Point O: Intersection point of e, h</desc>
      </g>
      <g class="point">
        <path d="M 652.62 577.60 C 652.62 579.81 650.83 581.60 648.62 581.60 C 646.41 581.60 644.62 579.81 644.62 577.60 C 644.62 575.39 646.41 573.60 648.62 573.60 C 650.83 573.60 652.62 575.39 652.62 577.60 z" />
        <path d="M 652.62 577.60 C 652.62 579.81 650.83 581.60 648.62 581.60 C 646.41 581.60 644.62 579.81 644.62 577.60 C 644.62 575.39 646.41 573.60 648.62 573.60 C 650.83 573.60 652.62 575.39 652.62 577.60 z" />
        <desc>Point P: Intersection point of e, h</desc>
      </g>
      <g class="point">
        <path d="M 716.72 329.32 C 716.72 331.53 714.93 333.32 712.72 333.32 C 710.52 333.32 708.72 331.53 708.72 329.32 C 708.72 327.12 710.52 325.32 712.72 325.32 C 714.93 325.32 716.72 327.12 716.72 329.32 z" />
        <path d="M 716.72 329.32 C 716.72 331.53 714.93 333.32 712.72 333.32 C 710.52 333.32 708.72 331.53 708.72 329.32 C 708.72 327.12 710.52 325.32 712.72 325.32 C 714.93 325.32 716.72 327.12 716.72 329.32 z" />
        <desc>Point Q: Intersection point of e, i</desc>
      </g>
      <g class="point">
        <path d="M 573.38 577.60 C 573.38 579.81 571.59 581.60 569.38 581.60 C 567.17 581.60 565.38 579.81 565.38 577.60 C 565.38 575.39 567.17 573.60 569.38 573.60 C 571.59 573.60 573.38 575.39 573.38 577.60 z" />
        <path d="M 573.38 577.60 C 573.38 579.81 571.59 581.60 569.38 581.60 C 567.17 581.60 565.38 579.81 565.38 577.60 C 565.38 575.39 567.17 573.60 569.38 573.60 C 571.59 573.60 573.38 575.39 573.38 577.60 z" />
        <desc>Point R: Intersection point of e, i</desc>
      </g>
      <g class="point">
        <path d="M 69.891 508.98 C 69.891 511.19 68.101 512.98 65.891 512.98 C 63.682 512.98 61.891 511.19 61.891 508.98 C 61.891 506.77 63.682 504.98 65.891 504.98 C 68.101 504.98 69.891 506.77 69.891 508.98 z" />
        <path d="M 69.891 508.98 C 69.891 511.19 68.101 512.98 65.891 512.98 C 63.682 512.98 61.891 511.19 61.891 508.98 C 61.891 506.77 63.682 504.98 65.891 504.98 C 68.101 504.98 69.891 506.77 69.891 508.98 z" />
        <desc>Point S: Intersection of j and n</desc>
      </g>
      <g class="point">
        <path d="M 326.31 508.98 C 326.31 511.19 324.52 512.98 322.31 512.98 C 320.10 512.98 318.31 511.19 318.31 508.98 C 318.31 506.77 320.10 504.98 322.31 504.98 C 324.52 504.98 326.31 506.77 326.31 508.98 z" />
        <path d="M 326.31 508.98 C 326.31 511.19 324.52 512.98 322.31 512.98 C 320.10 512.98 318.31 511.19 318.31 508.98 C 318.31 506.77 320.10 504.98 322.31 504.98 C 324.52 504.98 326.31 506.77 326.31 508.98 z" />
        <desc>Point T: Intersection of j and p</desc>
      </g>
      <g class="point">
        <path d="M 582.73 508.98 C 582.73 511.19 580.94 512.98 578.73 512.98 C 576.52 512.98 574.73 511.19 574.73 508.98 C 574.73 506.77 576.52 504.98 578.73 504.98 C 580.94 504.98 582.73 506.77 582.73 508.98 z" />
        <path d="M 582.73 508.98 C 582.73 511.19 580.94 512.98 578.73 512.98 C 576.52 512.98 574.73 511.19 574.73 508.98 C 574.73 506.77 576.52 504.98 578.73 504.98 C 580.94 504.98 582.73 506.77 582.73 508.98 z" />
        <desc>Point U: Intersection of q and j</desc>
      </g>
      <g class="point">
        <path d="M 643.27 508.98 C 643.27 511.19 641.48 512.98 639.27 512.98 C 637.06 512.98 635.27 511.19 635.27 508.98 C 635.27 506.77 637.06 504.98 639.27 504.98 C 641.48 504.98 643.27 506.77 643.27 508.98 z" />
        <path d="M 643.27 508.98 C 643.27 511.19 641.48 512.98 639.27 512.98 C 637.06 512.98 635.27 511.19 635.27 508.98 C 635.27 506.77 637.06 504.98 639.27 504.98 C 641.48 504.98 643.27 506.77 643.27 508.98 z" />
        <desc>Point V: Intersection of r and j</desc>
      </g>
      <g class="point">
        <path d="M 899.69 508.98 C 899.69 511.19 897.90 512.98 895.69 512.98 C 893.48 512.98 891.69 511.19 891.69 508.98 C 891.69 506.77 893.48 504.98 895.69 504.98 C 897.90 504.98 899.69 506.77 899.69 508.98 z" />
        <path d="M 899.69 508.98 C 899.69 511.19 897.90 512.98 895.69 512.98 C 893.48 512.98 891.69 511.19 891.69 508.98 C 891.69 506.77 893.48 504.98 895.69 504.98 C 897.90 504.98 899.69 506.77 899.69 508.98 z" />
        <desc>Point Z: Intersection of s and j</desc>
      </g>
      <g class="point">
        <path d="M 1156.1 508.98 C 1156.1 511.19 1154.3 512.98 1152.1 512.98 C 1149.9 512.98 1148.1 511.19 1148.1 508.98 C 1148.1 506.77 1149.9 504.98 1152.1 504.98 C 1154.3 504.98 1156.1 506.77 1156.1 508.98 z" />
        <path d="M 1156.1 508.98 C 1156.1 511.19 1154.3 512.98 1152.1 512.98 C 1149.9 512.98 1148.1 511.19 1148.1 508.98 C 1148.1 506.77 1149.9 504.98 1152.1 504.98 C 1154.3 504.98 1156.1 506.77 1156.1 508.98 z" />
        <desc>Point A_1: Intersection of t and j</desc>
      </g>
    </g>
  </g>
</svg>
